<svg id="Layer_1" data-name="Layer 1" xmlns="http://www.w3.org/2000/svg" viewBox="0 0 47.02 47.02"><defs><style>.cls-1,.cls-2{fill:#fff;}.cls-2{stroke:#fff;stroke-miterlimit:10;}</style></defs><title>arrow-right</title><g id="_" data-name="&gt;"><path class="cls-1" d="M23.51,0A23.51,23.51,0,1,0,47,23.51,23.53,23.53,0,0,0,23.51,0Zm0,45.1A21.59,21.59,0,1,1,45.1,23.51,21.62,21.62,0,0,1,23.51,45.1Zm0-3.17"/><path id="_2" data-name="&gt;" class="cls-2" d="M27.77,23.51l-7.7,7.7a.48.48,0,1,0,.68.68l8-8a.48.48,0,0,0,0-.68l-8-8a.48.48,0,0,0-.34-.14.47.47,0,0,0-.34.14.48.48,0,0,0,0,.68Zm.49,0"/></g></svg>