<?xml version="1.0" encoding="utf-8"?>
<!-- Generator: Adobe Illustrator 20.0.0, SVG Export Plug-In . SVG Version: 6.00 Build 0)  -->
<svg version="1.1" id="Layer_1" xmlns="http://www.w3.org/2000/svg" xmlns:xlink="http://www.w3.org/1999/xlink" x="0px" y="0px"
	 viewBox="0 0 49 49" style="enable-background:new 0 0 49 49;" xml:space="preserve">
<style type="text/css">
	.st0{fill:#462B76;}
	.st1{fill:#FFFFFF;}
</style>
<g id="close_4_">
	<g>
		<path class="st0" d="M24.5,1C11.5,1,1,11.5,1,24.5C1,37.5,11.5,48,24.5,48C37.5,48,48,37.5,48,24.5C48,11.5,37.5,1,24.5,1L24.5,1z
			 M24.5,42.9"/>
		<path class="st1" d="M24.5,49C11,49,0,38,0,24.5S11,0,24.5,0S49,11,49,24.5S38,49,24.5,49z M24.5,2C12.1,2,2,12.1,2,24.5
			S12.1,47,24.5,47S47,36.9,47,24.5S36.9,2,24.5,2z"/>
	</g>
	<g>
		<path class="st1" d="M22.3,25l-4-4l2-2l4,4l3.7-3.7l1.9,1.9l-3.7,3.7l4,4l-2,2l-4-4l-3.7,3.7l-1.9-1.9L22.3,25z"/>
	</g>
</g>
</svg>
