<svg id="Layer_1" data-name="Layer 1" xmlns="http://www.w3.org/2000/svg" viewBox="0 0 49.02 49.02"><defs><style>.cls-1{fill:#462b76;}.cls-2{fill:#fff;}</style></defs><title>close-icon</title><g id="close"><path class="cls-1" d="M24.51,1A23.51,23.51,0,1,0,48,24.51,23.53,23.53,0,0,0,24.51,1Zm0,41.93"/><path class="cls-2" d="M24.51,49A24.51,24.51,0,1,1,49,24.51,24.54,24.54,0,0,1,24.51,49Zm0-47A22.51,22.51,0,1,0,47,24.51,22.53,22.53,0,0,0,24.51,2Z"/><path class="cls-2" d="M22.34,25l-4-4,2-2,4,4,3.68-3.68L30,21.21l-3.68,3.68,4,4-2,2-4-4-3.7,3.7-1.89-1.89Z"/></g></svg>