<?xml version="1.0" encoding="utf-8"?>
<!-- Generator: Adobe Illustrator 20.0.0, SVG Export Plug-In . SVG Version: 6.00 Build 0)  -->
<svg version="1.1" id="Layer_1" xmlns="http://www.w3.org/2000/svg" xmlns:xlink="http://www.w3.org/1999/xlink" x="0px" y="0px"
	 viewBox="0 0 47 47" style="enable-background:new 0 0 47 47;" xml:space="preserve">
<style type="text/css">
	.st0{fill:#FFFFFF;}
	.st1{fill:#FFFFFF;stroke:#FFFFFF;stroke-miterlimit:10;}
</style>
<g id="_x3E__3_">
	<path class="st0" d="M23.5,47C36.5,47,47,36.5,47,23.5C47,10.5,36.5,0,23.5,0C10.5,0,0,10.5,0,23.5C0,36.5,10.5,47,23.5,47L23.5,47
		z M23.5,1.9c11.9,0,21.6,9.7,21.6,21.6c0,11.9-9.7,21.6-21.6,21.6c-11.9,0-21.6-9.7-21.6-21.6C1.9,11.6,11.6,1.9,23.5,1.9L23.5,1.9
		z M23.5,5.1"/>
	<path id="_x3E__6_" class="st1" d="M19.2,23.5l7.7-7.7c0.2-0.2,0.2-0.5,0-0.7c-0.2-0.2-0.5-0.2-0.7,0l-8,8c-0.2,0.2-0.2,0.5,0,0.7
		l8,8c0.1,0.1,0.2,0.1,0.3,0.1c0.1,0,0.2,0,0.3-0.1c0.2-0.2,0.2-0.5,0-0.7L19.2,23.5z M18.8,23.5"/>
</g>
</svg>
