<?xml version="1.0" standalone="no"?>
<!DOCTYPE svg PUBLIC "-//W3C//DTD SVG 1.1//EN" "http://www.w3.org/Graphics/SVG/1.1/DTD/svg11.dtd" >
<svg>
<metadata>
Created by FontForge 20090622 at Wed Aug 31 14:37:39 2016
 By deploy user
Copyright 2010-13 Paul Barnes, under exclusive license to Schwartzco Inc./Commercial Type. All rights reserved.
</metadata>
<defs>
<font id="TelesansText-Regular" horiz-adv-x="500" >
  <font-face 
    font-family="Telesans Text Regular"
    font-weight="400"
    font-stretch="normal"
    units-per-em="1000"
    panose-1="0 0 0 0 0 0 0 0 0 0"
    ascent="780"
    descent="-220"
    x-height="524"
    cap-height="706"
    bbox="-157 -240 1149 1110"
    underline-thickness="68"
    underline-position="122"
    unicode-range="U+000D-U+FB04"
  />
<missing-glyph horiz-adv-x="241" 
 />
    <glyph glyph-name="f_b" unicode="fb" horiz-adv-x="882" 
d="M90 580q0 88 52 131t137 43q52 0 101 -20l76 16h16v-280h7q23 28 65.5 46.5t89.5 18.5q96 0 152 -69.5t56 -197.5q0 -142 -68.5 -211t-193.5 -69q-119 0 -202 45v637q-39 15 -83 15q-107 0 -107 -104v-59h113v-65h-113v-457h-98v457h-69v58l69 7v58zM742 261
q0 106 -35.5 153t-106.5 47q-72 0 -125 -51v-334q53 -20 105 -20q162 0 162 205z" />
    <glyph glyph-name="f_f_b" unicode="ffb" horiz-adv-x="1173" 
d="M381 580q0 88 52 131t137 43q54 0 101 -20l76 16h16v-280h7q23 28 65.5 46.5t89.5 18.5q96 0 152 -69.5t56 -197.5q0 -142 -68.5 -211t-193.5 -69q-119 0 -202 45v637q-38 15 -83 15q-107 0 -107 -104v-59h113v-65h-113v-457h-98v457h-193v-457h-98v457h-69v57l69 8v61
q0 80 46 120t119 40q64 0 103 -23l-20 -61h-10q-30 16 -62 16q-78 0 -78 -91v-62h193v58zM1033 261q0 106 -35.5 153t-106.5 47q-72 0 -125 -51v-334q53 -20 105 -20q162 0 162 205z" />
    <glyph glyph-name="f_f_h" unicode="ffh" horiz-adv-x="1166" 
d="M381 580q0 88 52 131t137 43q54 0 101 -20l77 17h16v-302h6q79 86 185 86q77 0 113 -38t36 -115v-382h-98v357q0 54 -20.5 76.5t-71.5 22.5q-76 0 -148 -65v-391h-97v670q-38 15 -83 15q-107 0 -107 -104v-59h113v-65h-113v-457h-98v457h-193v-457h-98v457h-69v57l69 8
v61q0 80 46 120t119 40q64 0 103 -23l-20 -61h-10q-30 16 -62 16q-78 0 -78 -91v-62h193v58z" />
    <glyph glyph-name="f_f_j" unicode="ffj" horiz-adv-x="840" 
d="M381 592q0 83 42.5 122t112.5 39q61 0 96 -23l-19 -61h-10q-23 17 -54 17q-70 0 -70 -92v-72h211l65 7h15v-594q0 -80 -43 -121t-124 -41q-59 0 -104 19l19 70h13q35 -13 63 -13q44 0 61 22.5t17 70.5v515h-193v-457h-98v457h-193v-457h-98v457h-69v58l69 7v60
q0 81 45 121t118 40q66 0 105 -23l-20 -61h-10q-30 16 -62 16q-78 0 -78 -92v-61h193v70zM666 679q0 24 16 39.5t40 15.5t40.5 -15t16.5 -40q0 -24 -16.5 -39t-40.5 -15t-40 15t-16 39z" />
    <glyph glyph-name="f_f_k" unicode="ffk" horiz-adv-x="1094" 
d="M592 457h-113v-457h-98v457h-193v-457h-98v457h-69v57l69 8v61q0 80 46 120t119 40q64 0 103 -23l-20 -61h-10q-30 16 -62 16q-78 0 -78 -91v-62h193v58q0 88 52 131t137 43q54 0 101 -20l78 17h17v-471h6l215 244h95v-10l-186 -208l192 -297v-9h-106l-153 239l-63 -70
v-169h-97v670q-38 15 -83 15q-107 0 -107 -104v-59h113v-65z" />
    <glyph glyph-name="f_h" unicode="fh" horiz-adv-x="875" 
d="M90 580q0 88 52 131t137 43q52 0 101 -20l77 17h16v-302h6q79 86 185 86q76 0 112.5 -38t37.5 -115v-382h-99v357q0 54 -20.5 76.5t-71.5 22.5q-76 0 -148 -65v-391h-97v670q-39 15 -83 15q-107 0 -107 -104v-59h113v-65h-113v-457h-98v457h-69v58l69 7v58z" />
    <glyph glyph-name="f_j" unicode="fj" horiz-adv-x="548" 
d="M90 592q0 83 42.5 122t112.5 39q61 0 96 -23l-19 -61h-10q-23 17 -54 17q-70 0 -70 -92v-72h211l65 7h15v-594q0 -80 -43 -121t-124 -41q-59 0 -104 19l19 70h13q35 -13 63 -13q44 0 61 22.5t17 70.5v515h-193v-457h-98v457h-69v58l69 7v70zM375 679q0 24 16 39.5
t40 15.5t40.5 -15t16.5 -40q0 -24 -16.5 -39t-40.5 -15t-40 15t-16 39z" />
    <glyph glyph-name="f_k" unicode="fk" horiz-adv-x="804" 
d="M21 515l69 7v58q0 88 52 131t137 43q52 0 101 -20l78 17h18v-471h6l215 244h95v-10l-187 -208l193 -297v-9h-107l-153 239l-63 -70v-169h-97v670q-39 15 -83 15q-107 0 -107 -104v-59h113v-65h-113v-457h-98v457h-69v58z" />
    <glyph glyph-name="f_f" unicode="ff" horiz-adv-x="597" 
d="M580 457h-109v-457h-98v457h-185v-457h-98v457h-69v58l69 7v60q0 81 45 121t118 40q66 0 105 -23l-20 -61h-10q-30 16 -62 16q-78 0 -78 -93v-60h185v70q0 82 48.5 122t126.5 40q65 0 109 -23l-23 -65h-12q-28 18 -65 18q-86 0 -86 -93v-69h109v-65z" />
    <glyph glyph-name="f_i" unicode="fi" horiz-adv-x="548" 
d="M21 515l69 7v70q0 83 42.5 122t112.5 39q61 0 96 -23l-19 -61h-10q-23 17 -54 17q-70 0 -70 -92v-72h211l66 7h15v-529h-99v457h-193v-457h-98v457h-69v58zM376 679q0 24 16 39.5t40 15.5t40 -15t16 -40q0 -24 -16 -39t-40 -15t-40 15t-16 39z" />
    <glyph glyph-name="f_l" unicode="fl" horiz-adv-x="540" 
d="M21 515l69 7v58q0 88 52 131t137 43q52 0 101 -20l79 17h16v-751h-97v670q-39 15 -83 15q-107 0 -107 -104v-59h113v-65h-113v-457h-98v457h-69v58z" />
    <glyph glyph-name="f_f_i" unicode="ffi" horiz-adv-x="838" 
d="M381 592q0 83 42.5 122t112.5 39q61 0 96 -23l-19 -61h-10q-23 17 -54 17q-70 0 -70 -92v-72h211l65 7h15v-529h-98v457h-193v-457h-98v457h-193v-457h-98v457h-69v58l69 7v60q0 81 45 121t118 40q66 0 105 -23l-20 -61h-10q-30 16 -62 16q-78 0 -78 -92v-61h193v70z
M667 679q0 24 16 39.5t40 15.5t40 -15t16 -40q0 -24 -16 -39t-40 -15t-40 15t-16 39z" />
    <glyph glyph-name="f_f_l" unicode="ffl" horiz-adv-x="831" 
d="M592 457h-114l1 -457h-98v457h-193v-457h-98v457h-69v57l69 8v61q0 80 46 120t119 40q64 0 103 -23l-20 -61h-10q-30 16 -62 16q-78 0 -78 -91v-62h193v58q0 88 52 131t137 43q52 0 101 -20l79 17h16v-751h-97v670q-39 15 -83 15q-108 0 -108 -104v-59h114v-65z" />
    <glyph glyph-name=".notdef" horiz-adv-x="241" 
 />
    <glyph glyph-name=".null" horiz-adv-x="241" 
 />
    <glyph glyph-name=".null" horiz-adv-x="241" 
 />
    <glyph glyph-name="nonmarkingreturn" horiz-adv-x="333" 
 />
    <glyph glyph-name="CR" unicode="&#xd;" horiz-adv-x="241" 
 />
    <glyph glyph-name="space" unicode=" " horiz-adv-x="241" 
 />
    <glyph glyph-name="exclam" unicode="!" horiz-adv-x="267" 
d="M71 50q0 26 18 43.5t44 17.5q27 0 45 -17.5t18 -43.5q0 -27 -18 -44.5t-45 -17.5q-26 0 -44 17.5t-18 44.5zM81 706h104l-11 -526h-82z" />
    <glyph glyph-name="quotedbl" unicode="&#x22;" horiz-adv-x="381" 
d="M67 736h94l-7 -224h-81zM223 736h92l-7 -224h-79z" />
    <glyph glyph-name="numbersign" unicode="#" horiz-adv-x="711" 
d="M498 706h64l-32 -194h137l-13 -70h-136l-29 -174h138l-12 -69h-137l-33 -199h-65l33 199h-167l-33 -199h-64l33 199h-137l11 69h137l29 174h-138l12 70h138l32 194h65l-33 -194h167zM287 442l-29 -174h167l29 174h-167z" />
    <glyph glyph-name="dollar" unicode="$" horiz-adv-x="537" 
d="M35 61l35 64h10q51 -42 122 -57l35 264q-94 41 -135.5 85t-41.5 118q0 86 64 134.5t168 48.5l12 97h69l-14 -104q70 -14 126 -55l-34 -64h-11q-47 35 -91 46l-31 -239q97 -42 141.5 -88t44.5 -124q0 -93 -64 -145.5t-183 -53.5l-12 -97h-66l13 103q-93 14 -157 67z
M413 177q0 47 -27.5 74.5t-86.5 53.5l-32 -243q146 2 146 115zM150 547q0 -45 23.5 -70t82.5 -52l27 221q-64 -2 -98.5 -27t-34.5 -72z" />
    <glyph glyph-name="percent" unicode="%" horiz-adv-x="796" 
d="M605 48q42 0 63.5 36.5t21.5 94.5t-21.5 94.5t-63.5 36.5q-41 0 -63 -36.5t-22 -94.5t22 -94.5t63 -36.5zM605 -12q-73 0 -116.5 55t-43.5 136q0 80 43.5 135.5t116.5 55.5t117 -55.5t44 -135.5q0 -81 -44 -136t-117 -55zM30 527q0 80 44.5 135.5t115.5 55.5
q73 0 117 -55.5t44 -135.5q0 -81 -43.5 -136t-117.5 -55q-73 0 -116.5 55t-43.5 136zM276 527q0 58 -22 94.5t-64 36.5q-41 0 -62.5 -36.5t-21.5 -94.5t21.5 -94.5t62.5 -36.5q42 0 64 36t22 95zM125 9l474 697h72v-9l-474 -697h-72v9z" />
    <glyph glyph-name="ampersand" unicode="&#x26;" horiz-adv-x="664" 
d="M40 177q0 136 168 215q-10 12 -14 18q-58 79 -58 145q0 78 49 120.5t131 42.5q78 0 123.5 -40t45.5 -106q0 -117 -146 -192l149 -177q24 51 41 150l74 -9q-19 -124 -63 -202l114 -130v-12h-110l-67 74q-73 -86 -206 -86q-112 0 -171.5 51t-59.5 138zM430 128l-181 213
q-115 -60 -115 -155q0 -58 39 -92.5t109 -34.5q91 0 148 69zM285 445l13 -16q51 27 78 58.5t27 78.5q0 41 -22 63t-62 22q-38 0 -62 -21.5t-24 -66.5q0 -58 52 -118z" />
    <glyph glyph-name="quotesingle" unicode="'" horiz-adv-x="226" 
d="M67 736h93l-7 -224h-80z" />
    <glyph glyph-name="parenleft" unicode="(" horiz-adv-x="337" 
d="M73 304q0 253 159 456h74v-12q-132 -206 -132 -444t132 -444v-12h-74q-159 203 -159 456z" />
    <glyph glyph-name="parenright" unicode=")" horiz-adv-x="337" 
d="M264 304q0 -251 -159 -456h-74v12q131 202 131 444t-131 444v12h74q159 -205 159 -456z" />
    <glyph glyph-name="asterisk" unicode="*" horiz-adv-x="432" 
d="M182 372l14 122l-97 -73l-20 -12l-35 59l21 12l110 48l-110 48l-21 12l35 58l20 -11l97 -72l-14 120v23h68v-23l-14 -120l97 73l19 12l35 -59l-20 -12l-112 -49l113 -49l19 -10l-34 -59l-20 11l-97 72l14 -121v-22h-68v22z" />
    <glyph glyph-name="plus" unicode="+" horiz-adv-x="578" 
d="M50 313h197v211h84v-211h197v-77h-197v-212h-84v212h-197v77z" />
    <glyph glyph-name="comma" unicode="," horiz-adv-x="230" 
d="M78 106h102l-62 -226h-76z" />
    <glyph glyph-name="hyphen" unicode="-" horiz-adv-x="420" 
d="M66 236v77h289v-77h-289z" />
    <glyph glyph-name="period" unicode="." horiz-adv-x="251" 
d="M63 51q0 27 18 44.5t45 17.5q26 0 44 -17.5t18 -44.5t-18 -45t-44 -18q-27 0 -45 17.5t-18 45.5z" />
    <glyph glyph-name="slash" unicode="/" horiz-adv-x="358" 
d="M336 738l-268 -870h-77l268 870h77z" />
    <glyph glyph-name="zero" unicode="0" horiz-adv-x="659" 
d="M332 62q88 0 132.5 75.5t44.5 213.5q0 139 -45.5 216.5t-133.5 77.5q-85 0 -132 -77.5t-47 -213.5q0 -140 45 -216t136 -76zM330 718q135 0 208.5 -100.5t73.5 -260.5q0 -171 -73.5 -270t-206.5 -99q-138 0 -211.5 100t-73.5 260q0 170 76 270t207 100z" />
    <glyph glyph-name="one" unicode="1" horiz-adv-x="329" 
d="M154 0v610q-76 -24 -111 -38h-11l-18 70q15 5 90 32l101 37l49 -6v-705h-100z" />
    <glyph glyph-name="two" unicode="2" horiz-adv-x="545" 
d="M232 639q-85 0 -152 -53h-10l-33 62q89 70 206 70q114 0 175.5 -51t61.5 -153q0 -69 -29 -130t-94 -127q-62 -63 -196 -166v-9h343l-4 -82h-454l-5 82q36 33 114 99t110 99q62 63 87.5 113t25.5 108q0 138 -146 138z" />
    <glyph glyph-name="three" unicode="3" horiz-adv-x="548" 
d="M390 188q0 140 -175 140h-51l-4 73h46q71 0 113.5 33.5t42.5 89.5q0 117 -126 117q-83 0 -146 -46h-8l-36 60q86 63 207 63q102 0 158 -45.5t56 -130.5q0 -65 -40.5 -109.5t-105.5 -58.5v-5q73 -11 123.5 -58t50.5 -128q0 -91 -66 -143t-184 -52q-138 0 -216 62l36 67h11
q60 -55 153 -55q77 0 119 33t42 93z" />
    <glyph glyph-name="four" unicode="4" horiz-adv-x="606" 
d="M357 175h-315l-7 66l319 465h99v-459h123l-6 -72h-117l1 -175h-97v175zM356 247v332h-7l-222 -332h229z" />
    <glyph glyph-name="five" unicode="5" horiz-adv-x="553" 
d="M26 50l36 67h9q67 -55 168 -55q83 0 121.5 41t38.5 109q0 80 -42 114.5t-120 34.5q-66 0 -136 -29l-25 21l22 353h369l-4 -81h-284l-11 -207q54 14 104 14q105 0 168 -51.5t63 -166.5q0 -100 -63.5 -163t-194.5 -63q-135 0 -219 62z" />
    <glyph glyph-name="six" unicode="6" horiz-adv-x="608" 
d="M49 292q0 198 82 312t238 114q100 0 160 -41l-33 -64h-10q-54 31 -113 31q-186 0 -215 -253h5q58 55 171 55q109 0 168.5 -58.5t59.5 -164.5q0 -107 -65 -171t-183 -64q-125 0 -195 83t-70 221zM307 377q-84 0 -154 -55q-1 -14 -1 -44q0 -102 41 -160t121 -58
q71 0 109.5 43t38.5 118q0 156 -155 156z" />
    <glyph glyph-name="seven" unicode="7" horiz-adv-x="526" 
d="M187 0h-104v12l325 613h-372l4 81h464l3 -81z" />
    <glyph glyph-name="eight" unicode="8" horiz-adv-x="610" 
d="M393 379v-6q84 -34 127.5 -78.5t43.5 -112.5q0 -90 -67 -142t-191 -52q-120 0 -189 49.5t-69 137.5q0 58 42.5 104t121.5 66v6q-141 64 -142 185q0 82 67 132t169 50q111 0 172 -42.5t61 -125.5q0 -59 -38.5 -105.5t-107.5 -65.5zM463 172q0 53 -43.5 85.5t-141.5 68.5
q-135 -44 -135 -143q0 -61 43.5 -92.5t119.5 -31.5q81 0 119 30.5t38 82.5zM165 544q0 -51 40.5 -83.5t116.5 -61.5q55 19 90 56t35 84q0 108 -145 108q-61 0 -99 -28.5t-38 -74.5z" />
    <glyph glyph-name="nine" unicode="9" horiz-adv-x="606" 
d="M67 35l32 65h10q63 -38 129 -38q98 0 148 62.5t63 189.5h-7q-29 -27 -74.5 -44t-94.5 -17q-110 0 -169 59.5t-59 164.5q0 108 70 174.5t188 66.5q123 0 189 -85t66 -226q0 -199 -79 -309t-236 -110q-51 0 -100 14t-76 33zM300 324q80 0 153 57q1 14 1 42q0 223 -153 223
q-70 0 -113.5 -46t-43.5 -121q0 -72 38 -113.5t118 -41.5z" />
    <glyph glyph-name="colon" unicode=":" horiz-adv-x="248" 
d="M61 51q0 27 18 44.5t45 17.5q26 0 44 -17.5t18 -44.5t-18 -45t-44 -18q-27 0 -45 17.5t-18 45.5zM61 436q0 27 18 44.5t45 17.5q26 0 44 -17.5t18 -44.5q0 -28 -18 -45.5t-44 -17.5q-27 0 -45 17.5t-18 45.5z" />
    <glyph glyph-name="semicolon" unicode=";" horiz-adv-x="248" 
d="M81 106h102l-62 -226h-76zM61 436q0 27 18 44.5t45 17.5q26 0 44 -17.5t18 -44.5q0 -28 -18 -45.5t-44 -17.5q-27 0 -45 17.5t-18 45.5z" />
    <glyph glyph-name="less" unicode="&#x3c;" horiz-adv-x="520" 
d="M50 233v75l394 204h13v-83l-304 -159l304 -157v-85h-13z" />
    <glyph glyph-name="equal" unicode="=" horiz-adv-x="603" 
d="M63 422h477v-76h-477v76zM63 194h477v-76h-477v76z" />
    <glyph glyph-name="greater" unicode="&#x3e;" horiz-adv-x="520" 
d="M470 308v-75l-394 -205h-13v85l304 157l-304 159v83h13z" />
    <glyph glyph-name="question" unicode="?" horiz-adv-x="498" 
d="M134 357h38q178 0 178 144q0 65 -34 101.5t-99 36.5q-76 0 -143 -44h-11l-35 62q83 61 198 61q113 0 171.5 -57t58.5 -157q0 -102 -68.5 -155.5t-163.5 -53.5h-10v-120h-80v182zM110 49q0 26 17.5 43.5t44.5 17.5t45 -17.5t18 -43.5t-18 -43.5t-45 -17.5t-44.5 17.5
t-17.5 43.5z" />
    <glyph glyph-name="at" unicode="@" horiz-adv-x="1006" 
d="M274 214q0 135 81 216t216 82q70 0 137 -23l-62 -312q-9 -46 10.5 -64t62.5 -18q82 0 125 66t43 175q0 149 -95.5 236.5t-257.5 87.5q-181 0 -296 -111t-115 -288q0 -184 110.5 -287t296.5 -103q188 0 296 91h12l26 -46q-51 -49 -142 -76.5t-193 -27.5q-221 0 -348.5 119
t-127.5 331q0 201 138 328t344 127q191 0 306.5 -104.5t115.5 -275.5q0 -139 -67 -221t-187 -82q-113 0 -139 75h-10q-54 -72 -132 -72q-69 0 -108.5 48.5t-39.5 128.5zM448 101q32 0 61.5 20t44.5 46l58 276q-22 8 -53 8q-133 -2 -180 -136q-17 -48 -17 -101
q0 -52 22 -82.5t64 -30.5z" />
    <glyph glyph-name="A" unicode="A" horiz-adv-x="657" 
d="M530 0l-65 191h-285l-64 -191h-98v9l253 697h115l253 -697v-9h-109zM320 592l-112 -323h231l-111 323h-8z" />
    <glyph glyph-name="B" unicode="B" horiz-adv-x="595" 
d="M314 0h-246v706h239q221 0 221 -177q0 -64 -36 -102.5t-94 -50.5v-9q156 -26 156 -168q0 -93 -60 -146t-180 -53zM298 330h-127v-256h126q77 0 113 31.5t36 98.5q0 126 -148 126zM286 632h-115v-230h122q130 0 130 116q0 63 -32 88.5t-105 25.5z" />
    <glyph glyph-name="C" unicode="C" horiz-adv-x="631" 
d="M561 132l40 -65q-85 -79 -224 -79q-155 0 -244.5 102t-89.5 264q0 163 92.5 263.5t247.5 100.5q125 0 212 -70l-39 -71h-11q-63 58 -155 58q-111 0 -175 -74.5t-64 -202.5q0 -132 64 -209t176 -77q91 0 156 60h14z" />
    <glyph glyph-name="D" unicode="D" horiz-adv-x="680" 
d="M288 77q126 0 183 65.5t57 212.5q0 140 -57.5 207t-183.5 67h-111v-552h112zM72 0v706h212q352 0 352 -352q0 -174 -85.5 -264t-255.5 -90h-223z" />
    <glyph glyph-name="E" unicode="E" horiz-adv-x="536" 
d="M424 404l-3 -78h-250v-246h336l-4 -80h-436v706h436l-5 -80h-327v-222h253z" />
    <glyph glyph-name="F" unicode="F" horiz-adv-x="538" 
d="M67 706h437l-6 -80h-327v-225h255l-4 -78h-251v-323h-104v706z" />
    <glyph glyph-name="G" unicode="G" horiz-adv-x="682" 
d="M390 635q-114 0 -176.5 -76t-62.5 -207q0 -132 64.5 -207.5t175.5 -75.5q80 0 142 31v177h-188v79h280v-307q-38 -24 -101.5 -42.5t-139.5 -18.5q-156 0 -248.5 102t-92.5 263q0 164 94.5 264.5t248.5 100.5q134 0 223 -67l-35 -74h-12q-65 58 -172 58z" />
    <glyph glyph-name="H" unicode="H" horiz-adv-x="684" 
d="M171 0h-104v706h104v-295h341v295h104v-706h-104v328h-341v-328z" />
    <glyph glyph-name="I" unicode="I" horiz-adv-x="238" 
d="M171 0h-104v706h104v-706z" />
    <glyph glyph-name="J" unicode="J" horiz-adv-x="362" 
d="M194 157v549h105v-556q0 -80 -44.5 -121t-121.5 -41q-74 0 -119 29l26 70h10q28 -18 62 -18q44 0 63 20t19 68z" />
    <glyph glyph-name="K" unicode="K" horiz-adv-x="584" 
d="M67 706h104v-325h8l273 325h103v-8l-252 -293l274 -395v-10h-112l-231 333l-63 -74v-259h-104v706z" />
    <glyph glyph-name="L" unicode="L" horiz-adv-x="533" 
d="M176 706v-623h323l-5 -83h-422v706h104z" />
    <glyph glyph-name="M" unicode="M" horiz-adv-x="807" 
d="M67 706h136l198 -567h8l199 567h132v-706h-91q2 32 2 588h-6l-203 -588h-85l-200 588h-6l1 -588h-85v706z" />
    <glyph glyph-name="N" unicode="N" horiz-adv-x="669" 
d="M602 0h-97l-342 575h-7q0 -561 1 -575h-90v706h109l330 -543h8q0 5 -0.5 271t-0.5 272h89v-706z" />
    <glyph glyph-name="O" unicode="O" horiz-adv-x="741" 
d="M371 67q106 0 162.5 76t56.5 210t-57 210t-163 76t-162.5 -76t-56.5 -210t57 -210t163 -76zM370 718q151 0 239.5 -102.5t88.5 -260.5q0 -161 -87.5 -264t-239.5 -103q-151 0 -239.5 102.5t-88.5 260.5q0 161 87.5 264t239.5 103z" />
    <glyph glyph-name="P" unicode="P" horiz-adv-x="566" 
d="M68 706h210q122 0 188.5 -53.5t66.5 -161.5q0 -222 -268 -222h-93v-269h-104v706zM263 342q84 0 125 33.5t41 114.5q0 142 -153 142h-104v-290h91z" />
    <glyph glyph-name="Q" unicode="Q" horiz-adv-x="741" 
d="M370 718q152 0 240 -102t88 -261q0 -129 -67 -223t-176 -118v-7q61 -14 203 -37l-13 -83h-13q-240 53 -394 126q-92 44 -143.5 132.5t-51.5 205.5q0 162 87.5 264.5t239.5 102.5zM371 68q106 0 162.5 75.5t56.5 209.5t-57 209.5t-163 75.5t-162.5 -75.5t-56.5 -209.5
q0 -135 57 -210t163 -75z" />
    <glyph glyph-name="R" unicode="R" horiz-adv-x="606" 
d="M546 500q0 -83 -43 -132t-115 -66l174 -292v-10h-113l-162 286h-116v-286h-104v706h234q116 0 180.5 -51t64.5 -155zM285 630h-114v-270h113q80 0 118 32t38 106q0 132 -155 132z" />
    <glyph glyph-name="S" unicode="S" horiz-adv-x="534" 
d="M21 74l41 68h12q84 -76 185 -76q72 0 105 26t33 80q0 51 -34 82.5t-125 66.5q-102 39 -144 86.5t-42 124.5q0 86 65 136t165 50q117 0 194 -69l-41 -68h-12q-60 58 -137 58q-62 0 -98 -26t-36 -74q0 -45 29.5 -71t112.5 -60q111 -45 157 -92t46 -134q0 -93 -61.5 -143.5
t-173.5 -50.5q-146 0 -241 86z" />
    <glyph glyph-name="T" unicode="T" horiz-adv-x="579" 
d="M236 623h-220l3 83h542l2 -83h-222v-623h-105v623z" />
    <glyph glyph-name="U" unicode="U" horiz-adv-x="688" 
d="M344 67q176 0 176 190v449h104v-450q0 -268 -280 -268t-280 268v450h104v-449q0 -190 176 -190z" />
    <glyph glyph-name="V" unicode="V" horiz-adv-x="638" 
d="M123 706l197 -587h8l197 587h98v-10l-247 -696h-115l-246 696v10h108z" />
    <glyph glyph-name="W" unicode="W" horiz-adv-x="937" 
d="M514 706l151 -580h7l145 580h94v-9l-183 -697h-109l-148 547h-5l-147 -547h-109l-184 697v9h98l145 -580h8l151 580h86z" />
    <glyph glyph-name="X" unicode="X" horiz-adv-x="621" 
d="M22 9l228 352l-217 335v10h113l169 -272h6l173 272h96v-10l-220 -336l227 -351v-9h-112l-180 285h-6l-181 -285h-96v9z" />
    <glyph glyph-name="Y" unicode="Y" horiz-adv-x="600" 
d="M248 281l-239 415v10h108l188 -341h8l184 341h91v-10l-236 -414v-282h-104v281z" />
    <glyph glyph-name="Z" unicode="Z" horiz-adv-x="585" 
d="M546 625l-384 -535v-8h390l-2 -40q-3 -41 -3 -42h-506l-6 80l386 537v7h-368l6 82h483z" />
    <glyph glyph-name="bracketleft" unicode="[" horiz-adv-x="329" 
d="M74 760h231v-66h-139v-781h139v-65h-231v912z" />
    <glyph glyph-name="backslash" unicode="\" horiz-adv-x="358" 
d="M291 -132l-269 870h78l268 -870h-77z" />
    <glyph glyph-name="bracketright" unicode="]" horiz-adv-x="329" 
d="M23 760h231v-912h-231v65h139v781h-139v66z" />
    <glyph glyph-name="underscore" unicode="_" horiz-adv-x="408" 
d="M20 -122v68h368v-68h-368z" />
    <glyph glyph-name="grave" unicode="`" horiz-adv-x="252" 
d="M26 735v9h94l94 -140v-9h-78z" />
    <glyph glyph-name="a" unicode="a" horiz-adv-x="517" 
d="M79 428l-25 61q90 46 194 46q95 0 140 -37.5t45 -114.5v-286q0 -44 35 -44q13 0 28 6h6l13 -51q-29 -19 -75 -19q-86 0 -96 76h-7q-18 -33 -58 -54.5t-91 -21.5q-68 0 -108 34.5t-40 101.5q0 59 33.5 92.5t105.5 55.5l155 48v43q0 54 -22 77t-82 23q-64 0 -140 -36h-11z
M334 109v151l-118 -37q-43 -14 -61.5 -35t-18.5 -56q0 -77 76 -77q32 0 66.5 15t55.5 39z" />
    <glyph glyph-name="b" unicode="b" horiz-adv-x="571" 
d="M65 744l80 10h16v-284h6q24 28 66 46.5t89 18.5q96 0 152.5 -69.5t56.5 -197.5q0 -142 -68.5 -211t-194.5 -69q-120 0 -203 45v711zM164 410v-334q53 -20 104 -20q80 0 121.5 48.5t41.5 156.5q0 106 -36 153t-106 47q-72 0 -125 -51z" />
    <glyph glyph-name="c" unicode="c" horiz-adv-x="499" 
d="M445 115l31 -59q-71 -67 -185 -67q-122 0 -187 74.5t-65 201.5q0 128 74.5 199t181.5 71q108 0 166 -49l-32 -65h-13q-45 41 -116 41q-68 0 -114.5 -49.5t-46.5 -145.5q0 -203 167 -203q75 0 126 51h13z" />
    <glyph glyph-name="d" unicode="d" horiz-adv-x="563" 
d="M400 744l82 10h16v-754h-80l-9 61h-7q-44 -72 -145 -72q-102 0 -160 69.5t-58 205.5q0 133 69 202t173 69q65 0 119 -26v235zM399 116v326q-44 28 -105 28q-68 0 -111.5 -51.5t-43.5 -154.5q0 -105 38 -157t104 -52q72 0 118 61z" />
    <glyph glyph-name="e" unicode="e" horiz-adv-x="535" 
d="M490 245h-351q8 -185 171 -185q82 0 138 50h11l31 -54q-72 -67 -197 -67q-120 0 -187 74t-67 203q0 124 66.5 196.5t166.5 72.5q113 0 165.5 -71.5t52.5 -218.5zM274 470q-123 0 -134 -169l255 4q-2 82 -30 123.5t-91 41.5z" />
    <glyph glyph-name="f" unicode="f" horiz-adv-x="313" 
d="M90 457h-69v58l69 9v72q0 80 48 119t127 39q65 0 109 -23l-23 -65h-12q-26 17 -65 17q-86 0 -86 -92v-67h110v-67h-109v-457h-99v457z" />
    <glyph glyph-name="g" unicode="g" horiz-adv-x="526" 
d="M454 351q0 -80 -53.5 -131.5t-146.5 -51.5q-42 0 -78 11q-21 -17 -21 -45q0 -51 66 -51h143q159 0 159 -132q0 -79 -71.5 -128.5t-193.5 -49.5q-119 0 -183.5 35.5t-64.5 104.5q0 40 30 70t80 39v5q-48 29 -48 83q0 28 17 50.5t43 32.5v6q-81 49 -81 152q0 81 53.5 132.5
t149.5 51.5q80 0 133 -40h9q15 28 51 50.5t68 24.5l-3 -76q-55 -2 -90 -37q32 -46 32 -106zM351 6h-172q-37 -5 -61.5 -27t-24.5 -57q0 -46 41.5 -66t123.5 -20q85 0 132.5 26.5t47.5 74.5q0 39 -20.5 54t-66.5 15zM365 350q0 61 -28.5 93t-82.5 32q-53 0 -82 -32t-29 -93
q0 -60 29 -91.5t82 -31.5q54 0 82.5 31.5t28.5 91.5z" />
    <glyph glyph-name="h" unicode="h" horiz-adv-x="563" 
d="M65 743l80 11h16v-305h6q79 86 184 86q151 0 151 -153l-1 -382h-99v357q0 54 -20 76.5t-71 22.5q-76 0 -147 -65l-1 -391h-98v743z" />
    <glyph glyph-name="i" unicode="i" horiz-adv-x="237" 
d="M70 520l84 9h15v-529h-99v520zM63 679q0 24 16 39.5t40 15.5q25 0 41 -15t16 -40q0 -24 -16 -39t-41 -15q-24 0 -40 15t-16 39z" />
    <glyph glyph-name="j" unicode="j" horiz-adv-x="239" 
d="M65 679q0 24 16 39.5t40 15.5t40.5 -15t16.5 -40q0 -24 -16 -39t-41 -15q-24 0 -40 15t-16 39zM172 529v-594q0 -80 -43.5 -121t-125.5 -41q-59 0 -104 19l20 70h12q35 -13 63 -13q44 0 61.5 22.5t17.5 70.5v578l84 9h15z" />
    <glyph glyph-name="k" unicode="k" horiz-adv-x="491" 
d="M65 743l81 11h17v-474h5l217 244h95v-10l-188 -208l192 -297l1 -9h-106l-155 243l-61 -68v-175h-98v743z" />
    <glyph glyph-name="l" unicode="l" horiz-adv-x="229" 
d="M164 754v-754h-99v743l82 11h17z" />
    <glyph glyph-name="m" unicode="m" horiz-adv-x="876" 
d="M714 359q0 54 -17.5 75.5t-68.5 21.5q-74 0 -139 -65v-8v-383h-99v359q0 54 -18 75.5t-68 21.5q-72 0 -139 -65v-391h-99v519l71 10h16l5 -80h6q31 37 78 61.5t101 24.5q113 0 137 -86h7q31 36 78.5 61t102.5 25q76 0 110.5 -38t34.5 -115v-382h-99v359z" />
    <glyph glyph-name="n" unicode="n" horiz-adv-x="565" 
d="M65 520l72 9h16l4 -80h7q29 35 80.5 60.5t106.5 25.5q152 0 152 -153v-382h-100v357q0 53 -21 76t-72 23q-77 0 -146 -65v-391h-100z" />
    <glyph glyph-name="o" unicode="o" horiz-adv-x="568" 
d="M39 262q0 129 67.5 201t177.5 72t177.5 -71t67.5 -202q0 -129 -67.5 -201t-177.5 -72t-177.5 71t-67.5 202zM429 263q0 203 -145 203q-144 0 -144 -205q0 -203 144 -203q145 0 145 205z" />
    <glyph glyph-name="p" unicode="p" horiz-adv-x="570" 
d="M65 519l72 10h17l3 -67h7q57 73 160 73q97 0 152 -67.5t55 -199.5q0 -143 -67.5 -211t-176.5 -68q-68 0 -123 29v-238h-99v739zM164 406v-317q49 -33 108 -33q76 0 117.5 47.5t41.5 160.5q0 104 -36 150t-105 46q-65 0 -126 -54z" />
    <glyph glyph-name="q" unicode="q" horiz-adv-x="562" 
d="M311 535q96 0 186 -30v-725h-95v259h-6q-17 -20 -52 -35t-80 -15q-105 0 -165 68.5t-60 202.5t76.5 204.5t195.5 70.5zM398 104v348q-37 13 -88 13q-75 0 -123 -50.5t-48 -149.5q0 -106 38.5 -157t106.5 -51q69 0 114 47z" />
    <glyph glyph-name="r" unicode="r" horiz-adv-x="347" 
d="M157 448h7q17 37 53.5 62t76.5 25q33 0 51 -9l-16 -91h-11q-20 9 -45 9q-69 0 -109 -62v-382h-99v519l72 10h16z" />
    <glyph glyph-name="s" unicode="s" horiz-adv-x="454" 
d="M398 484l-35 -61h-13q-45 43 -117 43q-90 0 -90 -67q0 -34 24.5 -53.5t85.5 -38.5q88 -28 126.5 -61t38.5 -98q0 -77 -48.5 -118t-144.5 -41q-112 0 -189 62l32 61h12q63 -57 148 -57q100 0 100 75q0 39 -25.5 57t-106.5 43q-72 23 -107.5 60.5t-35.5 96.5
q0 69 51.5 108.5t129.5 39.5q103 0 164 -51z" />
    <glyph glyph-name="t" unicode="t" horiz-adv-x="359" 
d="M104 659l75 12h15v-147h126v-68h-126v-327q0 -68 59 -68q31 0 61 16h10l18 -60q-49 -28 -120 -28q-126 0 -126 127v340h-73v58l73 10z" />
    <glyph glyph-name="u" unicode="u" horiz-adv-x="565" 
d="M500 529v-529h-83l-6 68h-8q-61 -79 -165 -79q-175 0 -175 169v361l83 10h16v-357q0 -59 24.5 -84.5t78.5 -25.5q81 0 136 60v397l82 10h17z" />
    <glyph glyph-name="v" unicode="v" horiz-adv-x="504" 
d="M256 110h7l140 414h86v-11l-187 -513h-101l-186 513v11h101z" />
    <glyph glyph-name="w" unicode="w" horiz-adv-x="767" 
d="M543 118h8l107 406h91v-11l-146 -513h-99l-116 399h-7l-117 -399h-100l-146 513v11h94l108 -406h7l115 406h87z" />
    <glyph glyph-name="x" unicode="x" horiz-adv-x="493" 
d="M126 524l125 -196h6l124 196h84v-11l-166 -248l170 -254v-11h-97l-129 199h-6l-128 -199h-85v11l168 248l-168 254v11h102z" />
    <glyph glyph-name="y" unicode="y" horiz-adv-x="501" 
d="M102 -156q31 0 48 18t36 72l22 60l-191 519v11h102l116 -346l21 -71h7l23 72l117 345h83v-11l-214 -589q-31 -85 -64.5 -117.5t-96.5 -32.5q-47 0 -82 14l15 68h9q21 -12 49 -12z" />
    <glyph glyph-name="z" unicode="z" horiz-adv-x="482" 
d="M56 524h381l5 -65l-283 -384v-7h286l-3 -68h-403l-3 60l286 389v6h-271q4 69 5 69z" />
    <glyph glyph-name="braceleft" unicode="{" horiz-adv-x="372" 
d="M242 185l-1 -181q0 -46 20 -69t75 -23h13v-64h-28q-171 0 -171 149v181q0 47 -18.5 69.5t-61.5 22.5h-30v68h30q43 0 61.5 22.5t18.5 71.5v179q0 149 171 149h28v-63h-13q-55 0 -75 -23t-20 -69v-181q0 -53 -30 -83t-72 -33v-7q42 -3 72.5 -33.5t30.5 -82.5z" />
    <glyph glyph-name="bar" unicode="|" horiz-adv-x="236" 
d="M153 738v-870h-70v870h70z" />
    <glyph glyph-name="braceright" unicode="}" horiz-adv-x="372" 
d="M131 4v181q0 52 30 82.5t72 33.5v7q-42 3 -72 33t-30 83v181q0 46 -20 69t-75 23h-13v63h29q92 0 131 -41.5t39 -107.5v-180q0 -48 18.5 -70.5t62.5 -22.5h28v-68h-28q-44 0 -62.5 -22.5t-18.5 -69.5v-181q0 -66 -39 -107.5t-131 -41.5h-29v64h13q55 0 75 23t20 69z" />
    <glyph glyph-name="uni00A0" unicode="&#xa0;" horiz-adv-x="241" 
 />
    <glyph glyph-name="exclamdown" unicode="&#xa1;" horiz-adv-x="267" 
d="M71 492q0 27 17.5 44t44.5 17q28 0 45.5 -17t17.5 -44t-17.5 -44.5t-45.5 -17.5q-26 0 -44 17.5t-18 44.5zM92 342h83l11 -508h-105z" />
    <glyph glyph-name="cent" unicode="&#xa2;" horiz-adv-x="502" 
d="M294 632h66l-12 -101q72 -10 114 -45l-32 -65h-13q-29 26 -77 36l-46 -393h11q77 0 128 51h13l31 -59q-71 -67 -185 -67h-7l-11 -97h-65l12 105q-89 20 -136 90.5t-47 177.5q0 123 71 194t174 76zM136 267q0 -149 94 -190l44 383q-60 -8 -99 -57t-39 -136z" />
    <glyph glyph-name="sterling" unicode="&#xa3;" horiz-adv-x="552" 
d="M384 319h-187q5 -47 5 -79q0 -59 -12 -92t-40 -66h361l-5 -82h-447l-17 66q35 42 48.5 79t13.5 101q0 32 -9 119t-9 121q0 102 64 167t182 65q116 0 185 -67l-41 -60h-10q-30 27 -57.5 39.5t-71.5 12.5q-153 0 -153 -158q0 -43 6 -91h197z" />
    <glyph glyph-name="yen" unicode="&#xa5;" horiz-adv-x="619" 
d="M58 360h161l-192 336v10h103l185 -335h4l183 335h91v-10l-195 -336h164v-60h-203v-87h203v-60h-203v-153h-101v153h-200v60h200v87h-200v60z" />
    <glyph glyph-name="section" unicode="&#xa7;" horiz-adv-x="589" 
d="M71 -107l38 57h13q60 -62 175 -62q62 0 92.5 22t30.5 58q0 33 -34.5 59t-121.5 53q-115 34 -162 81t-47 114q0 59 34.5 98.5t85.5 54.5q-44 25 -62.5 57t-18.5 79q0 71 53.5 112.5t155.5 41.5q75 0 121.5 -16.5t83.5 -51.5l-37 -57h-13q-32 30 -65.5 43t-86.5 13
q-121 0 -121 -82q0 -34 30 -60t115 -52q115 -33 162 -79.5t47 -115.5q0 -58 -34 -97.5t-83 -55.5q90 -47 90 -134q0 -72 -52.5 -113.5t-158.5 -41.5q-153 0 -230 75zM293 381l-45 15q-47 -9 -75.5 -37.5t-28.5 -71.5q0 -47 32.5 -75t125.5 -58l43 -14q47 9 75.5 37t28.5 71
q0 47 -32 75.5t-124 57.5z" />
    <glyph glyph-name="dieresis" unicode="&#xa8;" horiz-adv-x="364" 
d="M269 713q20 0 34 -14t14 -35q0 -22 -14 -35.5t-34 -13.5q-21 0 -35 13.5t-14 35.5q0 21 14 35t35 14zM95 713q20 0 34 -14t14 -35q0 -22 -14 -35.5t-34 -13.5q-21 0 -35 13.5t-14 35.5q0 21 14 35t35 14z" />
    <glyph glyph-name="copyright" unicode="&#xa9;" horiz-adv-x="814" 
d="M213 355q0 100 60.5 156t145.5 56q77 0 128 -37l-28 -55h-10q-35 26 -85 26q-55 0 -92.5 -38t-37.5 -108q0 -68 35 -108.5t100 -40.5q57 0 90 33h11l27 -51q-48 -48 -142 -48q-95 0 -148.5 60.5t-53.5 154.5zM42 354q0 155 102.5 259.5t262.5 104.5t262.5 -104
t102.5 -260t-102.5 -261t-262.5 -105t-262.5 105t-102.5 261zM716 354q0 136 -86 226.5t-223 90.5q-136 0 -223 -90.5t-87 -226.5t87 -227t223 -91q137 0 223 91t86 227z" />
    <glyph glyph-name="ordfeminine" unicode="&#xaa;" horiz-adv-x="424" 
d="M276 355h-6q-44 -55 -120 -55q-52 0 -84 27.5t-32 78.5q0 46 27 72t83 43l121 35v29q0 41 -17.5 58t-64.5 17q-56 0 -108 -28h-9l-20 52q65 34 152 34q75 0 111 -28.5t36 -88.5v-212q0 -35 27 -35q12 0 24 6h5l12 -44q-25 -16 -66 -16q-63 0 -71 55zM265 395v115l-90 -28
q-35 -10 -50.5 -27t-15.5 -44q0 -59 68 -59q49 0 88 43z" />
    <glyph glyph-name="guillemotleft" unicode="&#xab;" horiz-adv-x="493" 
d="M370 72l-130 180v20l129 176h77v-11l-114 -175l114 -180v-10h-76zM47 252v20l129 176h77v-11l-114 -175l114 -180v-10h-76z" />
    <glyph glyph-name="registered" unicode="&#xae;" horiz-adv-x="513" 
d="M37 499q0 93 62 156t158 63t157.5 -63t61.5 -156q0 -94 -61.5 -157t-157.5 -63t-158 63t-62 157zM438 499q0 81 -50 134t-131 53t-132 -53.5t-51 -133.5q0 -81 51 -134.5t132 -53.5t131 53.5t50 134.5zM169 622h82q99 0 99 -81q0 -53 -48 -71l55 -89v-6h-49l-50 88h-7
h-36v-88h-46v247zM249 500q29 0 41 10t12 33q0 22 -12.5 32t-41.5 10h-33v-85h34z" />
    <glyph glyph-name="macron" unicode="&#xaf;" horiz-adv-x="365" 
d="M52 700h261v-69h-261v69z" />
    <glyph glyph-name="degree" unicode="&#xb0;" horiz-adv-x="352" 
d="M34 584q0 63 40.5 102t101.5 39t101.5 -39t40.5 -102t-40.5 -102.5t-101.5 -39.5t-101.5 39.5t-40.5 102.5zM257 584q0 41 -23 64t-58 23t-58 -23.5t-23 -63.5q0 -41 23 -64t58 -23t58 23t23 64z" />
    <glyph glyph-name="plusminus" unicode="&#xb1;" horiz-adv-x="603" 
d="M63 412h196v203h85v-203h196v-78h-196v-204h-85v204h-196v78zM63 79h477v-79h-477v79z" />
    <glyph glyph-name="acute" unicode="&#xb4;" horiz-adv-x="252" 
d="M229 735l-110 -140h-77v9l94 140h93v-9z" />
    <glyph glyph-name="paragraph" unicode="&#xb6;" horiz-adv-x="643" 
d="M25 480q0 102 71 164t184 62h294v-881h-72v815h-123v-815h-72v446h-28q-116 0 -185 57t-69 152z" />
    <glyph glyph-name="periodcentered" unicode="&#xb7;" horiz-adv-x="224" 
d="M49 296q0 27 18 45t45 18q26 0 44.5 -18t18.5 -45t-18 -44.5t-45 -17.5t-45 17.5t-18 44.5z" />
    <glyph glyph-name="cedilla" unicode="&#xb8;" horiz-adv-x="285" 
d="M24 -213l20 40h10q25 -16 53 -16q57 0 57 43q0 22 -14.5 32.5t-48.5 10.5q-9 0 -23 -2l-6 5l53 121l50 -14l-30 -66q45 -3 70 -27.5t25 -60.5q0 -42 -31.5 -67t-83.5 -25q-64 0 -101 26z" />
    <glyph glyph-name="ordmasculine" unicode="&#xba;" horiz-adv-x="459" 
d="M39 509q0 98 52.5 153.5t139.5 55.5q85 0 137 -53.5t52 -154.5q0 -99 -51.5 -154.5t-137.5 -55.5q-85 0 -138.5 54t-53.5 155zM337 510q0 77 -29 114t-79 37t-78 -38t-28 -115q0 -78 28.5 -114.5t77.5 -36.5q50 0 79 38.5t29 114.5z" />
    <glyph glyph-name="guillemotright" unicode="&#xbb;" horiz-adv-x="493" 
d="M122 72h-76v10l114 180l-114 175v11h77l129 -176v-20zM446 252l-130 -180h-76v10l114 180l-114 175v11h77l129 -176v-20z" />
    <glyph glyph-name="onequarter" unicode="&#xbc;" horiz-adv-x="760" 
d="M103 631l-64 -21h-7l-12 55l125 44l37 -5v-417h-79v344zM73 8l475 698h71v-8l-474 -698h-72v8zM585 101h-191l-5 51l180 267h90v-265h72l-4 -53h-68v-101h-74v101zM585 154v187h-8l-125 -187h133z" />
    <glyph glyph-name="onehalf" unicode="&#xbd;" horiz-adv-x="800" 
d="M71 8l475 698h71v-8l-474 -698h-72v8zM101 631l-64 -21h-7l-12 55l125 44l37 -5v-417h-79v344zM476 57q118 95 157.5 143t39.5 88q0 76 -82 76q-55 0 -86 -31h-8l-25 48q57 46 137 46q69 0 107.5 -32t38.5 -93q0 -54 -34 -101t-150 -135v-5h199l-4 -61h-288z" />
    <glyph glyph-name="threequarters" unicode="&#xbe;" horiz-adv-x="864" 
d="M24 319l25 51h8q39 -30 95 -30q41 0 63 18t22 51q0 67 -97 67h-28v53h25q40 0 65 17t25 46q0 62 -76 62q-50 0 -80 -27h-7l-23 47q54 40 134 40q64 0 100 -28t36 -79q0 -39 -25.5 -63.5t-68.5 -33.5v-6q48 -6 76.5 -32.5t28.5 -73.5q0 -55 -40.5 -87t-116.5 -32
q-90 0 -141 40zM178 8l475 698h71v-8l-474 -698h-72v8zM689 101h-191l-5 51l180 267h90v-265h72l-4 -53h-68v-101h-74v101zM689 154v187h-8l-125 -187h133z" />
    <glyph glyph-name="questiondown" unicode="&#xbf;" horiz-adv-x="499" 
d="M42 35q0 102 68.5 156t163.5 54h10v119h81v-182h-38q-179 0 -179 -144q0 -65 34.5 -101t99.5 -36q77 0 142 43h11l35 -61q-83 -61 -198 -61q-113 0 -171.5 57t-58.5 156zM263 492q0 26 18.5 43.5t44.5 17.5q27 0 45 -17.5t18 -43.5q0 -27 -18 -44.5t-45 -17.5t-45 17.5
t-18 44.5z" />
    <glyph glyph-name="Agrave" unicode="&#xc0;" horiz-adv-x="657" 
d="M530 0l-65 191h-285l-64 -191h-98v9l253 697h115l253 -697v-9h-109zM320 592l-112 -323h231l-111 323h-8zM192 904v9h99l89 -127v-9h-80z" />
    <glyph glyph-name="Aacute" unicode="&#xc1;" horiz-adv-x="657" 
d="M530 0l-65 191h-285l-64 -191h-98v9l253 697h115l253 -697v-9h-109zM320 592l-112 -323h231l-111 323h-8zM468 904l-108 -127h-80v9l89 127h99v-9z" />
    <glyph glyph-name="Acircumflex" unicode="&#xc2;" horiz-adv-x="657" 
d="M530 0l-65 191h-285l-64 -191h-98v9l253 697h115l253 -697v-9h-109zM320 592l-112 -323h231l-111 323h-8zM176 786l105 118h93l104 -117v-10h-78l-73 76l-72 -76h-79v9z" />
    <glyph glyph-name="Atilde" unicode="&#xc3;" horiz-adv-x="657" 
d="M530 0l-65 191h-285l-64 -191h-98v9l253 697h115l253 -697v-9h-109zM320 592l-112 -323h231l-111 323h-8zM267 832q-18 0 -26.5 -11.5t-10.5 -38.5h-55v11q0 52 24 79.5t64 27.5q35 0 72.5 -27.5t54.5 -27.5q18 0 26 10.5t9 38.5h56v-11q0 -52 -22 -80t-60 -28
q-36 0 -76 28.5t-56 28.5z" />
    <glyph glyph-name="Adieresis" unicode="&#xc4;" horiz-adv-x="657" 
d="M530 0l-65 191h-285l-64 -191h-98v9l253 697h115l253 -697v-9h-109zM320 592l-112 -323h231l-111 323h-8zM188 834q0 23 15 37.5t37 14.5q21 0 36 -14.5t15 -37.5t-14.5 -37t-36.5 -14t-37 14t-15 37zM364 834q0 23 15 37.5t37 14.5q21 0 36 -14.5t15 -37.5t-14.5 -37
t-36.5 -14t-37 14t-15 37z" />
    <glyph glyph-name="Aring" unicode="&#xc5;" horiz-adv-x="657" 
d="M530 0l-65 191h-285l-64 -191h-98v9l253 697h115l253 -697v-9h-109zM320 592l-112 -323h231l-111 323h-8zM224 857q0 39 28 64.5t75 25.5t75.5 -25.5t28.5 -64.5t-28 -64t-76 -25q-47 0 -75 25.5t-28 63.5zM378 857q0 21 -13.5 33.5t-37.5 12.5q-23 0 -36.5 -12.5
t-13.5 -33.5q0 -20 13.5 -33t36.5 -13t37 13t14 33z" />
    <glyph glyph-name="AE" unicode="&#xc6;" horiz-adv-x="897" 
d="M2 9l369 697h493l-6 -80h-317v-222h244l-3 -78h-241v-246h327l-4 -80h-426v207h-230l-110 -207h-96v9zM430 626l-180 -340h188v340h-8z" />
    <glyph glyph-name="Ccedilla" unicode="&#xc7;" horiz-adv-x="631" 
d="M245 -213l20 40h10q26 -17 54 -17q57 0 57 43q0 23 -14.5 33.5t-48.5 10.5q-9 0 -23 -2l-6 5l39 90q-136 15 -213 114.5t-77 249.5q0 163 92.5 263.5t247.5 100.5q125 0 212 -70l-39 -71h-11q-63 58 -155 58q-111 0 -175 -74.5t-64 -202.5q0 -132 64 -209t176 -77
q91 0 156 60h14l40 -65q-81 -75 -213 -79l-21 -47q45 -3 70 -27.5t25 -60.5q0 -43 -31.5 -68t-84.5 -25q-64 0 -101 27z" />
    <glyph glyph-name="Egrave" unicode="&#xc8;" horiz-adv-x="536" 
d="M154 904v9h99l89 -127v-9h-80zM424 404l-3 -78h-250v-246h336l-4 -80h-436v706h436l-5 -80h-327v-222h253z" />
    <glyph glyph-name="Eacute" unicode="&#xc9;" horiz-adv-x="536" 
d="M430 904l-108 -127h-80v9l89 127h99v-9zM424 404l-3 -78h-250v-246h336l-4 -80h-436v706h436l-5 -80h-327v-222h253z" />
    <glyph glyph-name="Ecircumflex" unicode="&#xca;" horiz-adv-x="536" 
d="M424 404l-3 -78h-250v-246h336l-4 -80h-436v706h436l-5 -80h-327v-222h253zM139 786l105 118h93l104 -117v-10h-78l-73 76l-72 -76h-79v9z" />
    <glyph glyph-name="Edieresis" unicode="&#xcb;" horiz-adv-x="536" 
d="M424 404l-3 -78h-250v-246h336l-4 -80h-436v706h436l-5 -80h-327v-222h253zM150 834q0 23 15 37.5t37 14.5q21 0 36 -14.5t15 -37.5t-14.5 -37t-36.5 -14t-37 14t-15 37zM326 834q0 23 15 37.5t37 14.5q21 0 36 -14.5t15 -37.5t-14.5 -37t-36.5 -14t-37 14t-15 37z" />
    <glyph glyph-name="Igrave" unicode="&#xcc;" horiz-adv-x="238" 
d="M171 0h-104v706h104v-706zM-16 904v9h99l89 -127v-9h-80z" />
    <glyph glyph-name="Iacute" unicode="&#xcd;" horiz-adv-x="238" 
d="M171 0h-104v706h104v-706zM260 904l-108 -127h-80v9l89 127h99v-9z" />
    <glyph glyph-name="Icircumflex" unicode="&#xce;" horiz-adv-x="238" 
d="M171 0h-104v706h104v-706zM-31 786l105 118h93l104 -117v-10h-78l-73 76l-72 -76h-79v9z" />
    <glyph glyph-name="Idieresis" unicode="&#xcf;" horiz-adv-x="238" 
d="M171 0h-104v706h104v-706zM-20 834q0 23 15 37.5t37 14.5q21 0 36 -14.5t15 -37.5t-14.5 -37t-36.5 -14t-37 14t-15 37zM156 834q0 23 15 37.5t37 14.5q21 0 36 -14.5t15 -37.5t-14.5 -37t-36.5 -14t-37 14t-15 37z" />
    <glyph glyph-name="Eth" unicode="&#xd0;" horiz-adv-x="699" 
d="M92 0v319h-85v72h85v315h212q353 0 353 -352q0 -174 -86 -264t-255 -90h-224zM308 77q126 0 183.5 65.5t57.5 212.5q0 140 -58 207t-183 67h-112v-238h190v-72h-190v-242h112z" />
    <glyph glyph-name="Ntilde" unicode="&#xd1;" horiz-adv-x="669" 
d="M602 0h-97l-342 575h-7q0 -561 1 -575h-90v706h109l330 -543h8q0 5 -0.5 271t-0.5 272h89v-706zM274 832q-18 0 -26.5 -11.5t-10.5 -38.5h-55v11q0 52 24 79.5t64 27.5q35 0 72.5 -27.5t54.5 -27.5q18 0 26 10.5t9 38.5h56v-11q0 -52 -22 -80t-60 -28q-36 0 -76 28.5
t-56 28.5z" />
    <glyph glyph-name="Ograve" unicode="&#xd2;" horiz-adv-x="741" 
d="M233 904v9h99l89 -127v-9h-80zM371 67q106 0 162.5 76t56.5 210t-57 210t-163 76t-162.5 -76t-56.5 -210t57 -210t163 -76zM370 718q151 0 239.5 -102.5t88.5 -260.5q0 -161 -87.5 -264t-239.5 -103q-151 0 -239.5 102.5t-88.5 260.5q0 161 87.5 264t239.5 103z" />
    <glyph glyph-name="Oacute" unicode="&#xd3;" horiz-adv-x="741" 
d="M509 904l-108 -127h-80v9l89 127h99v-9zM371 67q106 0 162.5 76t56.5 210t-57 210t-163 76t-162.5 -76t-56.5 -210t57 -210t163 -76zM370 718q151 0 239.5 -102.5t88.5 -260.5q0 -161 -87.5 -264t-239.5 -103q-151 0 -239.5 102.5t-88.5 260.5q0 161 87.5 264t239.5 103z
" />
    <glyph glyph-name="Ocircumflex" unicode="&#xd4;" horiz-adv-x="741" 
d="M370 718q151 0 239.5 -102.5t88.5 -260.5q0 -161 -87.5 -264t-239.5 -103q-151 0 -239.5 102.5t-88.5 260.5q0 161 87.5 264t239.5 103zM371 67q106 0 162.5 76t56.5 210t-57 210t-163 76t-162.5 -76t-56.5 -210t57 -210t163 -76zM217 786l105 118h93l104 -117v-10h-78
l-73 76l-72 -76h-79v9z" />
    <glyph glyph-name="Otilde" unicode="&#xd5;" horiz-adv-x="741" 
d="M370 718q151 0 239.5 -102.5t88.5 -260.5q0 -161 -87.5 -264t-239.5 -103q-151 0 -239.5 102.5t-88.5 260.5q0 161 87.5 264t239.5 103zM371 67q106 0 162.5 76t56.5 210t-57 210t-163 76t-162.5 -76t-56.5 -210t57 -210t163 -76zM308 832q-18 0 -26.5 -11.5t-10.5 -38.5
h-55v11q0 52 24 79.5t64 27.5q35 0 72.5 -27.5t54.5 -27.5q18 0 26 10.5t9 38.5h56v-11q0 -52 -22 -80t-60 -28q-36 0 -76 28.5t-56 28.5z" />
    <glyph glyph-name="Odieresis" unicode="&#xd6;" horiz-adv-x="741" 
d="M229 834q0 23 15 37.5t37 14.5q21 0 36 -14.5t15 -37.5t-14.5 -37t-36.5 -14t-37 14t-15 37zM405 834q0 23 15 37.5t37 14.5q21 0 36 -14.5t15 -37.5t-14.5 -37t-36.5 -14t-37 14t-15 37zM371 67q106 0 162.5 76t56.5 210t-57 210t-163 76t-162.5 -76t-56.5 -210t57 -210
t163 -76zM370 718q151 0 239.5 -102.5t88.5 -260.5q0 -161 -87.5 -264t-239.5 -103q-151 0 -239.5 102.5t-88.5 260.5q0 161 87.5 264t239.5 103z" />
    <glyph glyph-name="multiply" unicode="&#xd7;" horiz-adv-x="530" 
d="M47 443l57 54l160 -170l161 169l57 -53l-164 -173l159 -167l-58 -54l-155 164l-160 -170l-57 55l163 172z" />
    <glyph glyph-name="Oslash" unicode="&#xd8;" horiz-adv-x="735" 
d="M36 12l81 98q-74 99 -74 242q0 160 87.5 263t239.5 103q115 0 197 -66l45 54h82v-12l-76 -93q79 -99 79 -247q0 -160 -87.5 -263t-239.5 -103q-120 0 -204 70l-48 -58h-82v12zM591 353q0 105 -35 175l-335 -404q55 -58 149 -58q107 0 164 76t57 211zM150 354
q0 -100 30 -168l333 402q-55 52 -143 52q-107 0 -163.5 -76t-56.5 -210z" />
    <glyph glyph-name="Ugrave" unicode="&#xd9;" horiz-adv-x="688" 
d="M209 904v9h99l89 -127v-9h-80zM344 67q176 0 176 190v449h104v-450q0 -268 -280 -268t-280 268v450h104v-449q0 -190 176 -190z" />
    <glyph glyph-name="Uacute" unicode="&#xda;" horiz-adv-x="688" 
d="M485 904l-108 -127h-80v9l89 127h99v-9zM344 67q176 0 176 190v449h104v-450q0 -268 -280 -268t-280 268v450h104v-449q0 -190 176 -190z" />
    <glyph glyph-name="Ucircumflex" unicode="&#xdb;" horiz-adv-x="688" 
d="M344 67q176 0 176 190v449h104v-450q0 -268 -280 -268t-280 268v450h104v-449q0 -190 176 -190zM193 786l105 118h93l104 -117v-10h-78l-73 76l-72 -76h-79v9z" />
    <glyph glyph-name="Udieresis" unicode="&#xdc;" horiz-adv-x="688" 
d="M344 67q176 0 176 190v449h104v-450q0 -268 -280 -268t-280 268v450h104v-449q0 -190 176 -190zM205 834q0 23 15 37.5t37 14.5q21 0 36 -14.5t15 -37.5t-14.5 -37t-36.5 -14t-37 14t-15 37zM381 834q0 23 15 37.5t37 14.5q21 0 36 -14.5t15 -37.5t-14.5 -37t-36.5 -14
t-37 14t-15 37z" />
    <glyph glyph-name="Yacute" unicode="&#xdd;" horiz-adv-x="608" 
d="M248 281l-239 415v10h108l188 -341h8l184 341h91v-10l-236 -414v-282h-104v281zM444 904l-108 -127h-80v9l89 127h99v-9z" />
    <glyph glyph-name="Thorn" unicode="&#xde;" horiz-adv-x="565" 
d="M68 706h104v-139h108q121 0 187 -52.5t66 -156.5q0 -214 -267 -214h-94v-144h-104v706zM274 491h-102v-272h88q86 0 127.5 31.5t41.5 105.5q0 135 -155 135z" />
    <glyph glyph-name="germandbls" unicode="&#xdf;" horiz-adv-x="597" 
d="M222 40l26 61h11q49 -46 125 -46q84 0 84 66q0 36 -21 59t-84 60q-46 27 -66.5 56t-20.5 75q0 57 70 123q53 50 53 98q0 91 -104 91q-70 0 -103 -39.5t-33 -107.5v-536h-99v537q0 100 64.5 158.5t177.5 58.5q96 0 146.5 -42t50.5 -111q0 -46 -20.5 -77t-58.5 -64
q-54 -46 -54 -81q0 -7 2 -14t4.5 -12t9 -11.5l10 -10t13 -10t13.5 -9.5t15 -10t15 -9q65 -40 91.5 -75.5t26.5 -91.5q0 -67 -43.5 -102t-122.5 -35q-120 0 -178 51z" />
    <glyph glyph-name="agrave" unicode="&#xe0;" horiz-adv-x="517" 
d="M79 428l-25 61q90 46 194 46q95 0 140 -37.5t45 -114.5v-286q0 -44 35 -44q13 0 28 6h6l13 -51q-29 -19 -75 -19q-86 0 -96 76h-7q-18 -33 -58 -54.5t-91 -21.5q-68 0 -108 34.5t-40 101.5q0 59 33.5 92.5t105.5 55.5l155 48v43q0 54 -22 77t-82 23q-64 0 -140 -36h-11z
M334 109v151l-118 -37q-43 -14 -61.5 -35t-18.5 -56q0 -77 76 -77q32 0 66.5 15t55.5 39zM117 735v9h94l94 -140v-9h-78z" />
    <glyph glyph-name="aacute" unicode="&#xe1;" horiz-adv-x="517" 
d="M79 428l-25 61q90 46 194 46q95 0 140 -37.5t45 -114.5v-286q0 -44 35 -44q13 0 28 6h6l13 -51q-29 -19 -75 -19q-86 0 -96 76h-7q-18 -33 -58 -54.5t-91 -21.5q-68 0 -108 34.5t-40 101.5q0 59 33.5 92.5t105.5 55.5l155 48v43q0 54 -22 77t-82 23q-64 0 -140 -36h-11z
M334 109v151l-118 -37q-43 -14 -61.5 -35t-18.5 -56q0 -77 76 -77q32 0 66.5 15t55.5 39zM388 735l-110 -140h-77v9l94 140h93v-9z" />
    <glyph glyph-name="acircumflex" unicode="&#xe2;" horiz-adv-x="517" 
d="M79 428l-25 61q90 46 194 46q95 0 140 -37.5t45 -114.5v-286q0 -44 35 -44q13 0 28 6h6l13 -51q-29 -19 -75 -19q-86 0 -96 76h-7q-18 -33 -58 -54.5t-91 -21.5q-68 0 -108 34.5t-40 101.5q0 59 33.5 92.5t105.5 55.5l155 48v43q0 54 -22 77t-82 23q-64 0 -140 -36h-11z
M334 109v151l-118 -37q-43 -14 -61.5 -35t-18.5 -56q0 -77 76 -77q32 0 66.5 15t55.5 39zM390 607v-8h-75l-66 79l-65 -79h-75v8l100 127h80z" />
    <glyph glyph-name="atilde" unicode="&#xe3;" horiz-adv-x="517" 
d="M79 428l-25 61q90 46 194 46q95 0 140 -37.5t45 -114.5v-286q0 -44 35 -44q13 0 28 6h6l13 -51q-29 -19 -75 -19q-86 0 -96 76h-7q-18 -33 -58 -54.5t-91 -21.5q-68 0 -108 34.5t-40 101.5q0 59 33.5 92.5t105.5 55.5l155 48v43q0 54 -22 77t-82 23q-64 0 -140 -36h-11z
M334 109v151l-118 -37q-43 -14 -61.5 -35t-18.5 -56q0 -77 76 -77q32 0 66.5 15t55.5 39zM191 665q-35 0 -39 -54h-53v11q0 52 24.5 78.5t63.5 26.5q35 0 72 -28.5t54 -28.5q36 0 37 53h53v-12q0 -105 -81 -105q-36 0 -76 29.5t-55 29.5z" />
    <glyph glyph-name="adieresis" unicode="&#xe4;" horiz-adv-x="517" 
d="M79 428l-25 61q90 46 194 46q95 0 140 -37.5t45 -114.5v-286q0 -44 35 -44q13 0 28 6h6l13 -51q-29 -19 -75 -19q-86 0 -96 76h-7q-18 -33 -58 -54.5t-91 -21.5q-68 0 -108 34.5t-40 101.5q0 59 33.5 92.5t105.5 55.5l155 48v43q0 54 -22 77t-82 23q-64 0 -140 -36h-11z
M334 109v151l-118 -37q-43 -14 -61.5 -35t-18.5 -56q0 -77 76 -77q32 0 66.5 15t55.5 39zM338 713q20 0 34 -14t14 -35q0 -22 -14 -35.5t-34 -13.5q-21 0 -35 13.5t-14 35.5q0 21 14 35t35 14zM164 713q20 0 34 -14t14 -35q0 -22 -14 -35.5t-34 -13.5q-21 0 -35 13.5
t-14 35.5q0 21 14 35t35 14z" />
    <glyph glyph-name="aring" unicode="&#xe5;" horiz-adv-x="517" 
d="M79 428l-25 61q90 46 194 46q95 0 140 -37.5t45 -114.5v-286q0 -44 35 -44q13 0 28 6h6l13 -51q-29 -19 -75 -19q-86 0 -96 76h-7q-18 -33 -58 -54.5t-91 -21.5q-68 0 -108 34.5t-40 101.5q0 59 33.5 92.5t105.5 55.5l155 48v43q0 54 -22 77t-82 23q-64 0 -140 -36h-11z
M334 109v151l-118 -37q-43 -14 -61.5 -35t-18.5 -56q0 -77 76 -77q32 0 66.5 15t55.5 39zM147 680q0 42 30 70t74 28t74 -28t30 -70t-29.5 -69t-74.5 -27t-74.5 27t-29.5 69zM303 680q0 25 -14.5 40.5t-37.5 15.5q-25 0 -39.5 -15.5t-14.5 -40.5t14.5 -39.5t39.5 -14.5
q23 0 37.5 15t14.5 39z" />
    <glyph glyph-name="ae" unicode="&#xe6;" horiz-adv-x="819" 
d="M774 56q-74 -67 -197 -67q-130 0 -194 90h-7q-24 -36 -72.5 -63t-107.5 -27q-69 0 -113 37t-44 104q0 59 34 92t105 54q73 22 158 27v60q0 54 -23 77.5t-84 23.5q-66 0 -140 -37h-11l-24 62q89 46 190 46q127 0 159 -80q58 80 159 80q112 0 161 -70.5t49 -219.5h-340
q4 -88 40.5 -136.5t120.5 -48.5t140 50h10zM564 470q-122 0 -132 -169l247 4q-2 84 -27.5 124.5t-87.5 40.5zM218 55q37 0 74.5 19t65.5 51q-21 51 -24 119q-81 -4 -126 -21q-40 -14 -56 -34t-16 -52q0 -43 23 -62.5t59 -19.5z" />
    <glyph glyph-name="ccedilla" unicode="&#xe7;" horiz-adv-x="499" 
d="M157 -213l20 40h10q25 -16 53 -16q57 0 57 43q0 22 -14.5 32.5t-48.5 10.5q-9 0 -23 -2l-6 5l40 93q-100 13 -153 85.5t-53 186.5q0 128 74.5 199t181.5 71q108 0 166 -49l-32 -65h-13q-45 41 -116 41q-68 0 -114.5 -49.5t-46.5 -145.5q0 -203 167 -203q75 0 126 51h13
l31 -59q-68 -64 -176 -67l-22 -48q45 -3 70 -27.5t25 -60.5q0 -42 -31.5 -67t-83.5 -25q-64 0 -101 26z" />
    <glyph glyph-name="egrave" unicode="&#xe8;" horiz-adv-x="535" 
d="M490 245h-351q8 -185 171 -185q82 0 138 50h11l31 -54q-72 -67 -197 -67q-120 0 -187 74t-67 203q0 124 66.5 196.5t166.5 72.5q113 0 165.5 -71.5t52.5 -218.5zM274 470q-123 0 -134 -169l255 4q-2 82 -30 123.5t-91 41.5zM146 735v9h94l94 -140v-9h-78z" />
    <glyph glyph-name="eacute" unicode="&#xe9;" horiz-adv-x="535" 
d="M490 245h-351q8 -185 171 -185q82 0 138 50h11l31 -54q-72 -67 -197 -67q-120 0 -187 74t-67 203q0 124 66.5 196.5t166.5 72.5q113 0 165.5 -71.5t52.5 -218.5zM274 470q-123 0 -134 -169l255 4q-2 82 -30 123.5t-91 41.5zM417 735l-110 -140h-77v9l94 140h93v-9z" />
    <glyph glyph-name="ecircumflex" unicode="&#xea;" horiz-adv-x="535" 
d="M490 245h-351q8 -185 171 -185q82 0 138 50h11l31 -54q-72 -67 -197 -67q-120 0 -187 74t-67 203q0 124 66.5 196.5t166.5 72.5q113 0 165.5 -71.5t52.5 -218.5zM274 470q-123 0 -134 -169l255 4q-2 82 -30 123.5t-91 41.5zM419 607v-8h-75l-66 79l-65 -79h-75v8l100 127
h80z" />
    <glyph glyph-name="edieresis" unicode="&#xeb;" horiz-adv-x="535" 
d="M490 245h-351q8 -185 171 -185q82 0 138 50h11l31 -54q-72 -67 -197 -67q-120 0 -187 74t-67 203q0 124 66.5 196.5t166.5 72.5q113 0 165.5 -71.5t52.5 -218.5zM274 470q-123 0 -134 -169l255 4q-2 82 -30 123.5t-91 41.5zM193 713q20 0 34 -14t14 -35q0 -22 -14 -35.5
t-34 -13.5q-21 0 -35 13.5t-14 35.5q0 21 14 35t35 14zM367 713q20 0 34 -14t14 -35q0 -22 -14 -35.5t-34 -13.5q-21 0 -35 13.5t-14 35.5q0 21 14 35t35 14z" />
    <glyph glyph-name="igrave" unicode="&#xec;" horiz-adv-x="237" 
d="M70 520l84 9h15v-529h-99v520zM-12 735v9h94l94 -140v-9h-78z" />
    <glyph glyph-name="iacute" unicode="&#xed;" horiz-adv-x="237" 
d="M259 735l-110 -140h-77v9l94 140h93v-9zM70 520l84 9h15v-529h-99v520z" />
    <glyph glyph-name="icircumflex" unicode="&#xee;" horiz-adv-x="237" 
d="M70 520l84 9h15v-529h-99v520zM261 607v-8h-75l-66 79l-65 -79h-75v8l100 127h80z" />
    <glyph glyph-name="idieresis" unicode="&#xef;" horiz-adv-x="237" 
d="M209 713q20 0 34 -14t14 -35q0 -22 -14 -35.5t-34 -13.5q-21 0 -35 13.5t-14 35.5q0 21 14 35t35 14zM35 713q20 0 34 -14t14 -35q0 -22 -14 -35.5t-34 -13.5q-21 0 -35 13.5t-14 35.5q0 21 14 35t35 14zM70 520l84 9h15v-529h-99v520z" />
    <glyph glyph-name="eth" unicode="&#xf0;" horiz-adv-x="563" 
d="M125 605l138 49q-48 47 -107 81v9l74 10h13q50 -30 96 -73l97 34h10l16 -48l-81 -29q141 -159 141 -364q0 -138 -62.5 -211.5t-175.5 -73.5q-114 0 -179.5 72.5t-65.5 194.5q0 118 61 190.5t159 72.5q67 0 117 -43h7q-29 70 -81 134l-152 -53h-9zM423 270q0 64 -14 123
q-48 62 -122 62q-70 0 -109.5 -53t-39.5 -145q0 -96 38 -147.5t107 -51.5q140 0 140 212z" />
    <glyph glyph-name="ntilde" unicode="&#xf1;" horiz-adv-x="565" 
d="M65 520l72 9h16l4 -80h7q29 35 80.5 60.5t106.5 25.5q152 0 152 -153v-382h-100v357q0 53 -21 76t-72 23q-77 0 -146 -65v-391h-100zM224 665q-35 0 -39 -54h-53v11q0 52 24.5 78.5t63.5 26.5q35 0 72 -28.5t54 -28.5q36 0 37 53h53v-12q0 -105 -81 -105q-36 0 -76 29.5
t-55 29.5z" />
    <glyph glyph-name="ograve" unicode="&#xf2;" horiz-adv-x="568" 
d="M39 262q0 129 67.5 201t177.5 72t177.5 -71t67.5 -202q0 -129 -67.5 -201t-177.5 -72t-177.5 71t-67.5 202zM429 263q0 203 -145 203q-144 0 -144 -205q0 -203 144 -203q145 0 145 205zM152 735v9h94l94 -140v-9h-78z" />
    <glyph glyph-name="oacute" unicode="&#xf3;" horiz-adv-x="568" 
d="M422 735l-110 -140h-77v9l94 140h93v-9zM39 262q0 129 67.5 201t177.5 72t177.5 -71t67.5 -202q0 -129 -67.5 -201t-177.5 -72t-177.5 71t-67.5 202zM429 263q0 203 -145 203q-144 0 -144 -205q0 -203 144 -203q145 0 145 205z" />
    <glyph glyph-name="ocircumflex" unicode="&#xf4;" horiz-adv-x="568" 
d="M39 262q0 129 67.5 201t177.5 72t177.5 -71t67.5 -202q0 -129 -67.5 -201t-177.5 -72t-177.5 71t-67.5 202zM429 263q0 203 -145 203q-144 0 -144 -205q0 -203 144 -203q145 0 145 205zM425 607v-8h-75l-66 79l-65 -79h-75v8l100 127h80z" />
    <glyph glyph-name="otilde" unicode="&#xf5;" horiz-adv-x="568" 
d="M39 262q0 129 67.5 201t177.5 72t177.5 -71t67.5 -202q0 -129 -67.5 -201t-177.5 -72t-177.5 71t-67.5 202zM429 263q0 203 -145 203q-144 0 -144 -205q0 -203 144 -203q145 0 145 205zM226 665q-35 0 -39 -54h-53v11q0 52 24.5 78.5t63.5 26.5q35 0 72 -28.5t54 -28.5
q36 0 37 53h53v-12q0 -105 -81 -105q-36 0 -76 29.5t-55 29.5z" />
    <glyph glyph-name="odieresis" unicode="&#xf6;" horiz-adv-x="568" 
d="M373 713q20 0 34 -14t14 -35q0 -22 -14 -35.5t-34 -13.5q-21 0 -35 13.5t-14 35.5q0 21 14 35t35 14zM199 713q20 0 34 -14t14 -35q0 -22 -14 -35.5t-34 -13.5q-21 0 -35 13.5t-14 35.5q0 21 14 35t35 14zM39 262q0 129 67.5 201t177.5 72t177.5 -71t67.5 -202
q0 -129 -67.5 -201t-177.5 -72t-177.5 71t-67.5 202zM429 263q0 203 -145 203q-144 0 -144 -205q0 -203 144 -203q145 0 145 205z" />
    <glyph glyph-name="divide" unicode="&#xf7;" horiz-adv-x="578" 
d="M231 74q0 25 16.5 41.5t41.5 16.5q24 0 41 -16.5t17 -41.5t-17 -42t-41 -17q-25 0 -41.5 17t-16.5 42zM231 482q0 25 16.5 42t41.5 17q24 0 41 -17t17 -42t-17 -41.5t-41 -16.5q-25 0 -41.5 16.5t-16.5 41.5zM50 317h478v-78h-478v78z" />
    <glyph glyph-name="oslash" unicode="&#xf8;" horiz-adv-x="561" 
d="M41 260q0 129 65 202t175 73q96 0 158 -56l40 45h59v-7l-66 -75q49 -70 49 -179q0 -130 -65.5 -202t-174.5 -72q-97 0 -158 54l-39 -43h-59v7l64 74q-48 68 -48 179zM136 260q0 -68 15 -112l236 273q-37 51 -106 51q-67 0 -106 -53.5t-39 -158.5zM425 263q0 61 -15 111
l-236 -272q37 -51 107 -51q67 0 105.5 53t38.5 159z" />
    <glyph glyph-name="ugrave" unicode="&#xf9;" horiz-adv-x="565" 
d="M500 529v-529h-83l-6 68h-8q-61 -79 -165 -79q-175 0 -175 169v361l83 10h16v-357q0 -59 24.5 -84.5t78.5 -25.5q81 0 136 60v397l82 10h17zM151 735v9h94l94 -140v-9h-78z" />
    <glyph glyph-name="uacute" unicode="&#xfa;" horiz-adv-x="565" 
d="M422 735l-110 -140h-77v9l94 140h93v-9zM500 529v-529h-83l-6 68h-8q-61 -79 -165 -79q-175 0 -175 169v361l83 10h16v-357q0 -59 24.5 -84.5t78.5 -25.5q81 0 136 60v397l82 10h17z" />
    <glyph glyph-name="ucircumflex" unicode="&#xfb;" horiz-adv-x="565" 
d="M500 529v-529h-83l-6 68h-8q-61 -79 -165 -79q-175 0 -175 169v361l83 10h16v-357q0 -59 24.5 -84.5t78.5 -25.5q81 0 136 60v397l82 10h17zM424 607v-8h-75l-66 79l-65 -79h-75v8l100 127h80z" />
    <glyph glyph-name="udieresis" unicode="&#xfc;" horiz-adv-x="565" 
d="M372 713q20 0 34 -14t14 -35q0 -22 -14 -35.5t-34 -13.5q-21 0 -35 13.5t-14 35.5q0 21 14 35t35 14zM198 713q20 0 34 -14t14 -35q0 -22 -14 -35.5t-34 -13.5q-21 0 -35 13.5t-14 35.5q0 21 14 35t35 14zM500 529v-529h-83l-6 68h-8q-61 -79 -165 -79q-175 0 -175 169
v361l83 10h16v-357q0 -59 24.5 -84.5t78.5 -25.5q81 0 136 60v397l82 10h17z" />
    <glyph glyph-name="yacute" unicode="&#xfd;" horiz-adv-x="501" 
d="M102 -156q31 0 48 18t36 72l22 60l-191 519v11h102l116 -346l21 -71h7l23 72l117 345h83v-11l-214 -589q-31 -85 -64.5 -117.5t-96.5 -32.5q-47 0 -82 14l15 68h9q21 -12 49 -12zM393 735l-110 -140h-77v9l94 140h93v-9z" />
    <glyph glyph-name="thorn" unicode="&#xfe;" horiz-adv-x="569" 
d="M64 744l88 11h11v-282h3q67 62 157 62q97 0 152 -67t55 -199q0 -144 -65 -212t-176 -68q-79 0 -126 32v-241h-99v964zM164 406v-314q39 -36 109 -36q75 0 115.5 48t40.5 161q0 195 -139 195q-69 0 -126 -54z" />
    <glyph glyph-name="ydieresis" unicode="&#xff;" horiz-adv-x="501" 
d="M102 -156q31 0 48 18t36 72l22 60l-191 519v11h102l116 -346l21 -71h7l23 72l117 345h83v-11l-214 -589q-31 -85 -64.5 -117.5t-96.5 -32.5q-47 0 -82 14l15 68h9q21 -12 49 -12zM169 713q20 0 34 -14t14 -35q0 -22 -14 -35.5t-34 -13.5q-21 0 -35 13.5t-14 35.5
q0 21 14 35t35 14zM343 713q20 0 34 -14t14 -35q0 -22 -14 -35.5t-34 -13.5q-21 0 -35 13.5t-14 35.5q0 21 14 35t35 14z" />
    <glyph glyph-name="Amacron" unicode="&#x100;" horiz-adv-x="657" 
d="M530 0l-65 191h-285l-64 -191h-98v9l253 697h115l253 -697v-9h-109zM320 592l-112 -323h231l-111 323h-8zM191 864h270v-69h-270v69z" />
    <glyph glyph-name="amacron" unicode="&#x101;" horiz-adv-x="517" 
d="M79 428l-25 61q90 46 194 46q95 0 140 -37.5t45 -114.5v-286q0 -44 35 -44q13 0 28 6h6l13 -51q-29 -19 -75 -19q-86 0 -96 76h-7q-18 -33 -58 -54.5t-91 -21.5q-68 0 -108 34.5t-40 101.5q0 59 33.5 92.5t105.5 55.5l155 48v43q0 54 -22 77t-82 23q-64 0 -140 -36h-11z
M334 109v151l-118 -37q-43 -14 -61.5 -35t-18.5 -56q0 -77 76 -77q32 0 66.5 15t55.5 39zM120 700h261v-69h-261v69z" />
    <glyph glyph-name="Abreve" unicode="&#x102;" horiz-adv-x="657" 
d="M530 0l-65 191h-285l-64 -191h-98v9l253 697h115l253 -697v-9h-109zM320 592l-112 -323h231l-111 323h-8zM186 897h70q4 -63 71 -63q68 0 71 63h70q0 -62 -38 -94t-103 -32t-103 32t-38 94z" />
    <glyph glyph-name="abreve" unicode="&#x103;" horiz-adv-x="517" 
d="M79 428l-25 61q90 46 194 46q95 0 140 -37.5t45 -114.5v-286q0 -44 35 -44q13 0 28 6h6l13 -51q-29 -19 -75 -19q-86 0 -96 76h-7q-18 -33 -58 -54.5t-91 -21.5q-68 0 -108 34.5t-40 101.5q0 59 33.5 92.5t105.5 55.5l155 48v43q0 54 -22 77t-82 23q-64 0 -140 -36h-11z
M334 109v151l-118 -37q-43 -14 -61.5 -35t-18.5 -56q0 -77 76 -77q32 0 66.5 15t55.5 39zM112 733h65q2 -37 22 -56.5t51 -19.5q30 0 50.5 19.5t21.5 56.5h66q0 -64 -36.5 -101.5t-101.5 -37.5q-66 0 -102 37t-36 102z" />
    <glyph glyph-name="Aogonek" unicode="&#x104;" horiz-adv-x="657" 
d="M530 0l-65 191h-285l-64 -191h-98v9l253 697h115l253 -697v-9h-1q-59 -29 -80 -53t-21 -56q0 -25 15 -39.5t41 -14.5q24 0 42 9h9l12 -45q-28 -20 -84 -20q-51 0 -80.5 26.5t-29.5 68.5q0 80 94 120v4h-26zM320 592l-112 -323h231l-111 323h-8z" />
    <glyph glyph-name="aogonek" unicode="&#x105;" horiz-adv-x="517" 
d="M324 -123q0 74 83 110v5q-56 12 -62 73h-8q-18 -33 -57.5 -54.5t-90.5 -21.5q-69 0 -109 34t-40 102q0 59 33.5 92.5t105.5 55.5l155 48v43q0 54 -22 77t-82 23q-64 0 -140 -36h-12l-24 61q92 46 194 46q95 0 140 -37.5t45 -114.5v-286q0 -44 36 -44q12 0 27 6h6l14 -52
l-2 -1q-67 -29 -91 -55t-24 -60q0 -53 55 -53q26 0 43 8h9l11 -44q-25 -20 -82 -20q-51 0 -81 26t-30 69zM334 109v151l-118 -37q-43 -14 -61.5 -35t-18.5 -56q0 -43 20.5 -60t56.5 -17q31 0 65.5 15t55.5 39z" />
    <glyph glyph-name="Cacute" unicode="&#x106;" horiz-adv-x="631" 
d="M561 132l40 -65q-85 -79 -224 -79q-155 0 -244.5 102t-89.5 264q0 163 92.5 263.5t247.5 100.5q125 0 212 -70l-39 -71h-11q-63 58 -155 58q-111 0 -175 -74.5t-64 -202.5q0 -132 64 -209t176 -77q91 0 156 60h14zM500 904l-108 -127h-80v9l89 127h99v-9z" />
    <glyph glyph-name="cacute" unicode="&#x107;" horiz-adv-x="499" 
d="M422 735l-110 -140h-77v9l94 140h93v-9zM445 115l31 -59q-71 -67 -185 -67q-122 0 -187 74.5t-65 201.5q0 128 74.5 199t181.5 71q108 0 166 -49l-32 -65h-13q-45 41 -116 41q-68 0 -114.5 -49.5t-46.5 -145.5q0 -203 167 -203q75 0 126 51h13z" />
    <glyph glyph-name="Ccircumflex" unicode="&#x108;" horiz-adv-x="631" 
d="M561 132l40 -65q-85 -79 -224 -79q-155 0 -244.5 102t-89.5 264q0 163 92.5 263.5t247.5 100.5q125 0 212 -70l-39 -71h-11q-63 58 -155 58q-111 0 -175 -74.5t-64 -202.5q0 -132 64 -209t176 -77q91 0 156 60h14zM209 786l105 118h93l104 -117v-10h-78l-73 76l-72 -76
h-79v9z" />
    <glyph glyph-name="ccircumflex" unicode="&#x109;" horiz-adv-x="499" 
d="M445 115l31 -59q-71 -67 -185 -67q-122 0 -187 74.5t-65 201.5q0 128 74.5 199t181.5 71q108 0 166 -49l-32 -65h-13q-45 41 -116 41q-68 0 -114.5 -49.5t-46.5 -145.5q0 -203 167 -203q75 0 126 51h13zM425 607v-8h-75l-66 79l-65 -79h-75v8l100 127h80z" />
    <glyph glyph-name="Cdotaccent" unicode="&#x10a;" horiz-adv-x="631" 
d="M561 132l40 -65q-85 -79 -224 -79q-155 0 -244.5 102t-89.5 264q0 163 92.5 263.5t247.5 100.5q125 0 212 -70l-39 -71h-11q-63 58 -155 58q-111 0 -175 -74.5t-64 -202.5q0 -132 64 -209t176 -77q91 0 156 60h14zM303 835q0 24 16 39.5t41 15.5q24 0 40.5 -15.5
t16.5 -39.5q0 -25 -16.5 -40t-40.5 -15q-25 0 -41 15t-16 40z" />
    <glyph glyph-name="cdotaccent" unicode="&#x10b;" horiz-adv-x="499" 
d="M445 115l31 -59q-71 -67 -185 -67q-122 0 -187 74.5t-65 201.5q0 128 74.5 199t181.5 71q108 0 166 -49l-32 -65h-13q-45 41 -116 41q-68 0 -114.5 -49.5t-46.5 -145.5q0 -203 167 -203q75 0 126 51h13zM229 669q0 24 16 39.5t40 15.5t40.5 -15.5t16.5 -39.5
q0 -25 -16 -40t-41 -15q-24 0 -40 15t-16 40z" />
    <glyph glyph-name="Ccaron" unicode="&#x10c;" horiz-adv-x="631" 
d="M561 132l40 -65q-85 -79 -224 -79q-155 0 -244.5 102t-89.5 264q0 163 92.5 263.5t247.5 100.5q125 0 212 -70l-39 -71h-11q-63 58 -155 58q-111 0 -175 -74.5t-64 -202.5q0 -132 64 -209t176 -77q91 0 156 60h14zM209 895v9h79l72 -77l73 77h78v-10l-104 -117h-93z" />
    <glyph glyph-name="ccaron" unicode="&#x10d;" horiz-adv-x="499" 
d="M445 115l31 -59q-71 -67 -185 -67q-122 0 -187 74.5t-65 201.5q0 128 74.5 199t181.5 71q108 0 166 -49l-32 -65h-13q-45 41 -116 41q-68 0 -114.5 -49.5t-46.5 -145.5q0 -203 167 -203q75 0 126 51h13zM425 726l-101 -127h-80l-101 127v8h75l66 -80l66 80h75v-8z" />
    <glyph glyph-name="Dcaron" unicode="&#x10e;" horiz-adv-x="680" 
d="M72 0v706h212q352 0 352 -352q0 -174 -85.5 -264t-255.5 -90h-223zM288 77q126 0 183 65.5t57 212.5q0 140 -57.5 207t-183.5 67h-111v-552h112zM158 895v9h79l72 -77l73 77h78v-10l-104 -117h-93z" />
    <glyph glyph-name="dcaron" unicode="&#x10f;" horiz-adv-x="563" 
d="M580 744l77 9h15l-39 -169h-71zM400 744l82 10h16v-754h-80l-9 61h-7q-44 -72 -145 -72q-102 0 -160 69.5t-58 205.5q0 133 69 202t173 69q65 0 119 -26v235zM399 116v326q-44 28 -105 28q-68 0 -111.5 -51.5t-43.5 -154.5q0 -105 38 -157t104 -52q72 0 118 61z" />
    <glyph glyph-name="Dcroat" unicode="&#x110;" horiz-adv-x="699" 
d="M92 0v319h-85v72h85v315h212q353 0 353 -352q0 -174 -86 -264t-255 -90h-224zM308 77q126 0 183.5 65.5t57.5 212.5q0 140 -58 207t-183 67h-112v-238h190v-72h-190v-242h112z" />
    <glyph glyph-name="dcroat" unicode="&#x111;" horiz-adv-x="564" 
d="M400 744l82 10h16v-95h66v-53h-66v-606h-80l-9 61h-7q-44 -72 -145 -72q-102 0 -160 69.5t-58 205.5q0 133 69 202t173 69q65 0 119 -26v97h-151v53h151v85zM399 116v326q-44 28 -105 28q-68 0 -111.5 -51.5t-43.5 -154.5q0 -105 38 -157t104 -52q72 0 118 61z" />
    <glyph glyph-name="Emacron" unicode="&#x112;" horiz-adv-x="536" 
d="M424 404l-3 -78h-250v-246h336l-4 -80h-436v706h436l-5 -80h-327v-222h253zM153 864h270v-69h-270v69z" />
    <glyph glyph-name="emacron" unicode="&#x113;" horiz-adv-x="535" 
d="M490 245h-351q8 -185 171 -185q82 0 138 50h11l31 -54q-72 -67 -197 -67q-120 0 -187 74t-67 203q0 124 66.5 196.5t166.5 72.5q113 0 165.5 -71.5t52.5 -218.5zM274 470q-123 0 -134 -169l255 4q-2 82 -30 123.5t-91 41.5zM149 700h261v-69h-261v69z" />
    <glyph glyph-name="Ebreve" unicode="&#x114;" horiz-adv-x="536" 
d="M424 404l-3 -78h-250v-246h336l-4 -80h-436v706h436l-5 -80h-327v-222h253zM148 897h70q4 -63 71 -63q68 0 71 63h70q0 -62 -38 -94t-103 -32t-103 32t-38 94z" />
    <glyph glyph-name="ebreve" unicode="&#x115;" horiz-adv-x="535" 
d="M490 245h-351q8 -185 171 -185q82 0 138 50h11l31 -54q-72 -67 -197 -67q-120 0 -187 74t-67 203q0 124 66.5 196.5t166.5 72.5q113 0 165.5 -71.5t52.5 -218.5zM274 470q-123 0 -134 -169l255 4q-2 82 -30 123.5t-91 41.5zM141 733h65q2 -37 22 -56.5t51 -19.5
q30 0 50.5 19.5t21.5 56.5h66q0 -64 -36.5 -101.5t-101.5 -37.5q-66 0 -102 37t-36 102z" />
    <glyph glyph-name="Edotaccent" unicode="&#x116;" horiz-adv-x="536" 
d="M232 835q0 24 16 39.5t41 15.5q24 0 40.5 -15.5t16.5 -39.5q0 -25 -16.5 -40t-40.5 -15q-25 0 -41 15t-16 40zM424 404l-3 -78h-250v-246h336l-4 -80h-436v706h436l-5 -80h-327v-222h253z" />
    <glyph glyph-name="edotaccent" unicode="&#x117;" horiz-adv-x="535" 
d="M490 245h-351q8 -185 171 -185q82 0 138 50h11l31 -54q-72 -67 -197 -67q-120 0 -187 74t-67 203q0 124 66.5 196.5t166.5 72.5q113 0 165.5 -71.5t52.5 -218.5zM274 470q-123 0 -134 -169l255 4q-2 82 -30 123.5t-91 41.5zM223 669q0 24 16 39.5t40 15.5t40.5 -15.5
t16.5 -39.5q0 -25 -16 -40t-41 -15q-24 0 -40 15t-16 40z" />
    <glyph glyph-name="Eogonek" unicode="&#x118;" horiz-adv-x="536" 
d="M424 404l-3 -78h-250v-246h336l-4 -80h-55q-59 -29 -80 -53t-21 -56q0 -25 15 -39.5t41 -14.5q23 0 42 9h9l11 -45q-28 -20 -83 -20q-51 0 -81 26.5t-30 68.5q0 80 94 120v4h-298v706h436l-5 -80h-327v-222h253z" />
    <glyph glyph-name="eogonek" unicode="&#x119;" horiz-adv-x="535" 
d="M237 -123q0 70 81 107v6q-8 -1 -25 -1q-120 0 -187 74t-67 203q0 124 66.5 196.5t166.5 72.5q113 0 165 -71t52 -219h-349q8 -185 170 -185q82 0 138 50h12l32 -56q-104 -59 -142 -95t-38 -68q0 -53 55 -53q26 0 43 8h9l11 -44q-25 -20 -83 -20q-50 0 -80 26.5t-30 68.5z
M274 470q-122 0 -133 -169l254 4q-2 82 -30 123.5t-91 41.5z" />
    <glyph glyph-name="Ecaron" unicode="&#x11a;" horiz-adv-x="536" 
d="M424 404l-3 -78h-250v-246h336l-4 -80h-436v706h436l-5 -80h-327v-222h253zM139 895v9h79l72 -77l73 77h78v-10l-104 -117h-93z" />
    <glyph glyph-name="ecaron" unicode="&#x11b;" horiz-adv-x="535" 
d="M490 245h-351q8 -185 171 -185q82 0 138 50h11l31 -54q-72 -67 -197 -67q-120 0 -187 74t-67 203q0 124 66.5 196.5t166.5 72.5q113 0 165.5 -71.5t52.5 -218.5zM274 470q-123 0 -134 -169l255 4q-2 82 -30 123.5t-91 41.5zM419 726l-101 -127h-80l-101 127v8h75l66 -80
l66 80h75v-8z" />
    <glyph glyph-name="Gcircumflex" unicode="&#x11c;" horiz-adv-x="682" 
d="M390 635q-114 0 -176.5 -76t-62.5 -207q0 -132 64.5 -207.5t175.5 -75.5q80 0 142 31v177h-188v79h280v-307q-38 -24 -101.5 -42.5t-139.5 -18.5q-156 0 -248.5 102t-92.5 263q0 164 94.5 264.5t248.5 100.5q134 0 223 -67l-35 -74h-12q-65 58 -172 58zM217 786l105 118
h93l104 -117v-10h-78l-73 76l-72 -76h-79v9z" />
    <glyph glyph-name="gcircumflex" unicode="&#x11d;" horiz-adv-x="528" 
d="M454 351q0 -80 -53.5 -131.5t-146.5 -51.5q-42 0 -78 11q-21 -17 -21 -45q0 -51 66 -51h143q159 0 159 -132q0 -79 -71.5 -128.5t-193.5 -49.5q-119 0 -183.5 35.5t-64.5 104.5q0 40 30 70t80 39v5q-48 29 -48 83q0 28 17 50.5t43 32.5v6q-81 49 -81 152q0 81 53.5 132.5
t149.5 51.5q80 0 133 -40h9q15 28 51 50.5t68 24.5l-3 -76q-55 -2 -90 -37q32 -46 32 -106zM351 6h-172q-37 -5 -61.5 -27t-24.5 -57q0 -46 41.5 -66t123.5 -20q85 0 132.5 26.5t47.5 74.5q0 39 -20.5 54t-66.5 15zM365 350q0 61 -28.5 93t-82.5 32q-53 0 -82 -32t-29 -93
q0 -60 29 -91.5t82 -31.5q54 0 82.5 31.5t28.5 91.5zM404 607v-8h-75l-66 79l-65 -79h-75v8l100 127h80z" />
    <glyph glyph-name="Gbreve" unicode="&#x11e;" horiz-adv-x="682" 
d="M390 635q-114 0 -176.5 -76t-62.5 -207q0 -132 64.5 -207.5t175.5 -75.5q80 0 142 31v177h-188v79h280v-307q-38 -24 -101.5 -42.5t-139.5 -18.5q-156 0 -248.5 102t-92.5 263q0 164 94.5 264.5t248.5 100.5q134 0 223 -67l-35 -74h-12q-65 58 -172 58zM227 897h70
q4 -63 71 -63q68 0 71 63h70q0 -62 -38 -94t-103 -32t-103 32t-38 94z" />
    <glyph glyph-name="gbreve" unicode="&#x11f;" horiz-adv-x="528" 
d="M454 351q0 -80 -53.5 -131.5t-146.5 -51.5q-42 0 -78 11q-21 -17 -21 -45q0 -51 66 -51h143q159 0 159 -132q0 -79 -71.5 -128.5t-193.5 -49.5q-119 0 -183.5 35.5t-64.5 104.5q0 40 30 70t80 39v5q-48 29 -48 83q0 28 17 50.5t43 32.5v6q-81 49 -81 152q0 81 53.5 132.5
t149.5 51.5q80 0 133 -40h9q15 28 51 50.5t68 24.5l-3 -76q-55 -2 -90 -37q32 -46 32 -106zM351 6h-172q-37 -5 -61.5 -27t-24.5 -57q0 -46 41.5 -66t123.5 -20q85 0 132.5 26.5t47.5 74.5q0 39 -20.5 54t-66.5 15zM365 350q0 61 -28.5 93t-82.5 32q-53 0 -82 -32t-29 -93
q0 -60 29 -91.5t82 -31.5q54 0 82.5 31.5t28.5 91.5zM127 733h65q2 -37 22 -56.5t51 -19.5q30 0 50.5 19.5t21.5 56.5h66q0 -64 -36.5 -101.5t-101.5 -37.5q-66 0 -102 37t-36 102z" />
    <glyph glyph-name="Gdotaccent" unicode="&#x120;" horiz-adv-x="682" 
d="M390 635q-114 0 -176.5 -76t-62.5 -207q0 -132 64.5 -207.5t175.5 -75.5q80 0 142 31v177h-188v79h280v-307q-38 -24 -101.5 -42.5t-139.5 -18.5q-156 0 -248.5 102t-92.5 263q0 164 94.5 264.5t248.5 100.5q134 0 223 -67l-35 -74h-12q-65 58 -172 58zM311 835
q0 24 16 39.5t41 15.5q24 0 40.5 -15.5t16.5 -39.5q0 -25 -16.5 -40t-40.5 -15q-25 0 -41 15t-16 40z" />
    <glyph glyph-name="gdotaccent" unicode="&#x121;" horiz-adv-x="528" 
d="M454 351q0 -80 -53.5 -131.5t-146.5 -51.5q-42 0 -78 11q-21 -17 -21 -45q0 -51 66 -51h143q159 0 159 -132q0 -79 -71.5 -128.5t-193.5 -49.5q-119 0 -183.5 35.5t-64.5 104.5q0 40 30 70t80 39v5q-48 29 -48 83q0 28 17 50.5t43 32.5v6q-81 49 -81 152q0 81 53.5 132.5
t149.5 51.5q80 0 133 -40h9q15 28 51 50.5t68 24.5l-3 -76q-55 -2 -90 -37q32 -46 32 -106zM351 6h-172q-37 -5 -61.5 -27t-24.5 -57q0 -46 41.5 -66t123.5 -20q85 0 132.5 26.5t47.5 74.5q0 39 -20.5 54t-66.5 15zM365 350q0 61 -28.5 93t-82.5 32q-53 0 -82 -32t-29 -93
q0 -60 29 -91.5t82 -31.5q54 0 82.5 31.5t28.5 91.5zM208 669q0 24 16 39.5t40 15.5t40.5 -15.5t16.5 -39.5q0 -25 -16 -40t-41 -15q-24 0 -40 15t-16 40z" />
    <glyph glyph-name="Gcommaaccent" unicode="&#x122;" horiz-adv-x="682" 
d="M390 635q-114 0 -176.5 -76t-62.5 -207q0 -132 64.5 -207.5t175.5 -75.5q80 0 142 31v177h-188v79h280v-307q-38 -24 -101.5 -42.5t-139.5 -18.5q-156 0 -248.5 102t-92.5 263q0 164 94.5 264.5t248.5 100.5q134 0 223 -67l-35 -74h-12q-65 58 -172 58zM336 -60h97
l-42 -157h-79z" />
    <glyph glyph-name="gcommaaccent" unicode="&#x123;" horiz-adv-x="528" 
d="M454 351q0 -80 -53.5 -131.5t-146.5 -51.5q-42 0 -78 11q-21 -17 -21 -45q0 -51 66 -51h143q159 0 159 -132q0 -79 -71.5 -128.5t-193.5 -49.5q-119 0 -183.5 35.5t-64.5 104.5q0 40 30 70t80 39v5q-48 29 -48 83q0 28 17 50.5t43 32.5v6q-81 49 -81 152q0 81 53.5 132.5
t149.5 51.5q80 0 133 -40h9q15 28 51 50.5t68 24.5l-3 -76q-55 -2 -90 -37q32 -46 32 -106zM351 6h-172q-37 -5 -61.5 -27t-24.5 -57q0 -46 41.5 -66t123.5 -20q85 0 132.5 26.5t47.5 74.5q0 39 -20.5 54t-66.5 15zM365 350q0 61 -28.5 93t-82.5 32q-53 0 -82 -32t-29 -93
q0 -60 29 -91.5t82 -31.5q54 0 82.5 31.5t28.5 91.5zM248 760h76l-26 -161h-92z" />
    <glyph glyph-name="Hcircumflex" unicode="&#x124;" horiz-adv-x="683" 
d="M171 0h-104v706h104v-295h341v295h104v-706h-104v328h-341v-328zM191 786l105 118h93l104 -117v-10h-78l-73 76l-72 -76h-79v9z" />
    <glyph glyph-name="hcircumflex" unicode="&#x125;" horiz-adv-x="563" 
d="M65 743l80 11h16v-305h6q79 86 184 86q151 0 151 -153l-1 -382h-99v357q0 54 -20 76.5t-71 22.5q-76 0 -147 -65l-1 -391h-98v743zM419 821v-8h-75l-66 79l-65 -79h-75v8l100 127h80z" />
    <glyph glyph-name="Hbar" unicode="&#x126;" horiz-adv-x="721" 
d="M2 591h84v115h103v-115h342v115h104v-115h84v-61h-84v-530h-104v328h-342v-328h-103v530h-84v61zM189 409h342v121h-342v-121z" />
    <glyph glyph-name="hbar" unicode="&#x127;" horiz-adv-x="566" 
d="M-1 658h66v85l81 11h16l-1 -96h153v-53h-153v-156h7q79 86 184 86q77 0 113.5 -38t36.5 -115v-382h-99v357q0 54 -20.5 76.5t-71.5 22.5q-75 0 -147 -65v-391h-99v605h-66v53z" />
    <glyph glyph-name="Itilde" unicode="&#x128;" horiz-adv-x="238" 
d="M171 0h-104v706h104v-706zM59 832q-18 0 -26.5 -11.5t-10.5 -38.5h-55v11q0 52 24 79.5t64 27.5q35 0 72.5 -27.5t54.5 -27.5q18 0 26 10.5t9 38.5h56v-11q0 -52 -22 -80t-60 -28q-36 0 -76 28.5t-56 28.5z" />
    <glyph glyph-name="itilde" unicode="&#x129;" horiz-adv-x="236" 
d="M70 520l84 9h15v-529h-99v520zM63 665q-32 0 -35 -54h-52v11q0 52 22 79.5t59 27.5q34 0 70.5 -30t51.5 -30q29 0 32 54h51l1 -12q0 -106 -75 -106q-35 0 -73.5 30t-51.5 30z" />
    <glyph glyph-name="Imacron" unicode="&#x12a;" horiz-adv-x="238" 
d="M226 795h-214v67h214v-67zM171 0h-104v706h104v-706z" />
    <glyph glyph-name="imacron" unicode="&#x12b;" horiz-adv-x="236" 
d="M17 702h206v-73h-206v73zM70 520l84 9h15v-529h-99v520z" />
    <glyph glyph-name="Ibreve" unicode="&#x12c;" horiz-adv-x="238" 
d="M171 0h-104v706h104v-706zM-22 897h70q4 -63 71 -63q68 0 71 63h70q0 -62 -38 -94t-103 -32t-103 32t-38 94z" />
    <glyph glyph-name="ibreve" unicode="&#x12d;" horiz-adv-x="237" 
d="M-9 733h64q6 -76 65 -76q28 0 45.5 19t18.5 57h64q0 -65 -34 -102t-94 -37q-61 0 -95 37t-34 102zM70 520l84 9h15v-529h-99v520z" />
    <glyph glyph-name="Iogonek" unicode="&#x12e;" horiz-adv-x="238" 
d="M171 0q-50 -29 -68 -53.5t-18 -55.5q0 -25 13.5 -39.5t35.5 -14.5q18 0 33 9h8l11 -45q-25 -20 -71 -20q-48 0 -76.5 26.5t-28.5 69.5q0 81 88 119v4h-31v706h104v-706z" />
    <glyph glyph-name="iogonek" unicode="&#x12f;" horiz-adv-x="236" 
d="M70 520l84 9h15v-529q-51 -28 -69 -52.5t-18 -56.5q0 -25 13.5 -39t36.5 -14q17 0 33 8h7l12 -44q-23 -20 -73 -20q-48 0 -76 26.5t-28 68.5q0 79 87 118v5h-24v520zM63 679q0 24 16 39.5t40 15.5q25 0 41 -15t16 -40q0 -24 -16 -39t-41 -15q-24 0 -40 15t-16 39z" />
    <glyph glyph-name="Idotaccent" unicode="&#x130;" horiz-adv-x="238" 
d="M171 0h-104v706h104v-706zM62 835q0 24 16 39.5t41 15.5q24 0 40.5 -15.5t16.5 -39.5q0 -25 -16.5 -40t-40.5 -15q-25 0 -41 15t-16 40z" />
    <glyph glyph-name="dotlessi" unicode="&#x131;" horiz-adv-x="237" 
d="M70 520l84 9h15v-529h-99v520z" />
    <glyph glyph-name="IJ" unicode="&#x132;" horiz-adv-x="601" 
d="M171 0h-104v706h104v-706zM432 157v549h105v-556q0 -80 -44.5 -121t-121.5 -41q-74 0 -119 29l26 70h10q28 -18 62 -18q44 0 63 20t19 68z" />
    <glyph glyph-name="ij" unicode="&#x133;" horiz-adv-x="476" 
d="M70 520l84 9h15v-529h-99v520zM63 679q0 24 16 39.5t40 15.5q25 0 41 -15t16 -40q0 -24 -16 -39t-41 -15q-24 0 -40 15t-16 39zM302 679q0 24 16 39.5t40 15.5t40.5 -15t16.5 -40q0 -24 -16 -39t-41 -15q-24 0 -40 15t-16 39zM409 529v-594q0 -80 -43.5 -121t-125.5 -41
q-59 0 -104 19l20 70h12q35 -13 63 -13q44 0 61.5 22.5t17.5 70.5v578l84 9h15z" />
    <glyph glyph-name="Jcircumflex" unicode="&#x134;" horiz-adv-x="362" 
d="M194 157v549h105v-556q0 -80 -44.5 -121t-121.5 -41q-74 0 -119 29l26 70h10q28 -18 62 -18q44 0 63 20t19 68zM96 786l105 118h93l104 -117v-10h-78l-73 76l-72 -76h-79v9z" />
    <glyph glyph-name="jcircumflex" unicode="&#x135;" horiz-adv-x="240" 
d="M157 529h15v-594q0 -79 -44 -120.5t-125 -41.5q-60 0 -105 19l21 70h12q35 -13 63 -13q44 0 61.5 22.5t17.5 70.5v578zM263 607v-8h-75l-66 79l-65 -79h-75v8l100 127h80z" />
    <glyph glyph-name="Kcommaaccent" unicode="&#x136;" horiz-adv-x="584" 
d="M67 706h104v-325h8l273 325h103v-8l-252 -293l274 -395v-10h-112l-231 333l-63 -74v-259h-104v706zM262 -60h97l-42 -157h-79z" />
    <glyph glyph-name="kcommaaccent" unicode="&#x137;" horiz-adv-x="491" 
d="M65 743l81 11h17v-474h5l217 244h95v-10l-188 -208l192 -297l1 -9h-106l-155 243l-61 -68v-175h-98v743zM219 -55h92l-42 -162h-77z" />
    <glyph glyph-name="Lacute" unicode="&#x139;" horiz-adv-x="533" 
d="M264 904l-108 -127h-80v9l89 127h99v-9zM176 706v-623h323l-5 -83h-422v706h104z" />
    <glyph glyph-name="lacute" unicode="&#x13a;" horiz-adv-x="228" 
d="M252 955l-110 -140h-77v9l94 140h93v-9zM164 754v-754h-99v743l82 11h17z" />
    <glyph glyph-name="Lcommaaccent" unicode="&#x13b;" horiz-adv-x="533" 
d="M176 706v-623h323l-5 -83h-422v706h104zM241 -60h97l-42 -157h-79z" />
    <glyph glyph-name="lcommaaccent" unicode="&#x13c;" horiz-adv-x="228" 
d="M76 -55h92l-42 -162h-77zM164 754v-754h-99v743l82 11h17z" />
    <glyph glyph-name="Lcaron" unicode="&#x13d;" horiz-adv-x="533" 
d="M326 706h86l-39 -197h-70zM176 706v-623h323l-5 -83h-422v706h104z" />
    <glyph glyph-name="lcaron" unicode="&#x13e;" horiz-adv-x="228" 
d="M247 744l77 9h15l-39 -169h-71zM164 754v-754h-99v743l82 11h17z" />
    <glyph glyph-name="Ldot" unicode="&#x13f;" horiz-adv-x="533" 
d="M336 350q0 24 15 39.5t39 15.5q23 0 38.5 -15t15.5 -40q0 -24 -15.5 -39t-38.5 -15q-24 0 -39 15t-15 39zM176 706v-623h323l-5 -83h-422v706h104z" />
    <glyph glyph-name="ldot" unicode="&#x140;" horiz-adv-x="316" 
d="M218 359q0 24 15.5 39.5t38.5 15.5q24 0 39.5 -15.5t15.5 -39.5q0 -25 -15.5 -40t-39.5 -15t-39 15t-15 40zM164 754v-754h-99v743l82 11h17z" />
    <glyph glyph-name="Lslash" unicode="&#x141;" horiz-adv-x="555" 
d="M8 298l87 37v371h103v-326l203 87h9v-76l-212 -91v-217h323l-5 -83h-421v255l-78 -33h-9v76z" />
    <glyph glyph-name="lslash" unicode="&#x142;" horiz-adv-x="263" 
d="M82 743l80 11h18v-284l64 38h8v-69l-72 -42v-397h-98v340l-63 -37h-8v69l71 41v330z" />
    <glyph glyph-name="Nacute" unicode="&#x143;" horiz-adv-x="669" 
d="M474 904l-108 -127h-80v9l89 127h99v-9zM602 0h-97l-342 575h-7q0 -561 1 -575h-90v706h109l330 -543h8q0 5 -0.5 271t-0.5 272h89v-706z" />
    <glyph glyph-name="nacute" unicode="&#x144;" horiz-adv-x="565" 
d="M421 735l-110 -140h-77v9l94 140h93v-9zM65 520l72 9h16l4 -80h7q29 35 80.5 60.5t106.5 25.5q152 0 152 -153v-382h-100v357q0 53 -21 76t-72 23q-77 0 -146 -65v-391h-100z" />
    <glyph glyph-name="Ncommaaccent" unicode="&#x145;" horiz-adv-x="669" 
d="M290 -60h97l-42 -157h-79zM602 0h-97l-342 575h-7q0 -561 1 -575h-90v706h109l330 -543h8q0 5 -0.5 271t-0.5 272h89v-706z" />
    <glyph glyph-name="ncommaaccent" unicode="&#x146;" horiz-adv-x="565" 
d="M246 -55h92l-42 -162h-77zM65 520l72 9h16l4 -80h7q29 35 80.5 60.5t106.5 25.5q152 0 152 -153v-382h-100v357q0 53 -21 76t-72 23q-77 0 -146 -65v-391h-100z" />
    <glyph glyph-name="Ncaron" unicode="&#x147;" horiz-adv-x="669" 
d="M602 0h-97l-342 575h-7q0 -561 1 -575h-90v706h109l330 -543h8q0 5 -0.5 271t-0.5 272h89v-706zM183 895v9h79l72 -77l73 77h78v-10l-104 -117h-93z" />
    <glyph glyph-name="ncaron" unicode="&#x148;" horiz-adv-x="565" 
d="M65 520l72 9h16l4 -80h7q29 35 80.5 60.5t106.5 25.5q152 0 152 -153v-382h-100v357q0 53 -21 76t-72 23q-77 0 -146 -65v-391h-100zM423 726l-101 -127h-80l-101 127v8h75l66 -80l66 80h75v-8z" />
    <glyph glyph-name="napostrophe" unicode="&#x149;" horiz-adv-x="581" 
d="M-48 516l29 220h95l-49 -220h-75zM81 520l72 9h16l4 -80h7q29 35 80.5 60.5t106.5 25.5q152 0 152 -153v-382h-100v357q0 53 -21 76t-72 23q-77 0 -146 -65v-391h-100z" />
    <glyph glyph-name="Eng" unicode="&#x14a;" horiz-adv-x="668" 
d="M454 -182q-64 0 -98 21l18 68h11q30 -15 56 -15q41 0 57.5 22t16.5 68v20l-352 573h-7l1 -575h-89v706h108l330 -528h9l-2 528h90v-730q0 -158 -149 -158z" />
    <glyph glyph-name="eng" unicode="&#x14b;" horiz-adv-x="563" 
d="M228 -208l20 70h12q35 -13 63 -13q45 0 62.5 22.5t17.5 69.5v416q0 53 -21 76t-72 23q-77 0 -146 -65v-391h-100v520l72 9h17l4 -80h7q29 35 80.5 60.5t106.5 25.5q152 0 152 -153v-447q0 -79 -44.5 -120.5t-126.5 -41.5q-59 0 -104 19z" />
    <glyph glyph-name="Omacron" unicode="&#x14c;" horiz-adv-x="741" 
d="M232 864h270v-69h-270v69zM371 67q106 0 162.5 76t56.5 210t-57 210t-163 76t-162.5 -76t-56.5 -210t57 -210t163 -76zM370 718q151 0 239.5 -102.5t88.5 -260.5q0 -161 -87.5 -264t-239.5 -103q-151 0 -239.5 102.5t-88.5 260.5q0 161 87.5 264t239.5 103z" />
    <glyph glyph-name="omacron" unicode="&#x14d;" horiz-adv-x="568" 
d="M155 700h261v-69h-261v69zM39 262q0 129 67.5 201t177.5 72t177.5 -71t67.5 -202q0 -129 -67.5 -201t-177.5 -72t-177.5 71t-67.5 202zM429 263q0 203 -145 203q-144 0 -144 -205q0 -203 144 -203q145 0 145 205z" />
    <glyph glyph-name="Obreve" unicode="&#x14e;" horiz-adv-x="741" 
d="M227 897h70q4 -63 71 -63q68 0 71 63h70q0 -62 -38 -94t-103 -32t-103 32t-38 94zM371 67q106 0 162.5 76t56.5 210t-57 210t-163 76t-162.5 -76t-56.5 -210t57 -210t163 -76zM370 718q151 0 239.5 -102.5t88.5 -260.5q0 -161 -87.5 -264t-239.5 -103
q-151 0 -239.5 102.5t-88.5 260.5q0 161 87.5 264t239.5 103z" />
    <glyph glyph-name="obreve" unicode="&#x14f;" horiz-adv-x="568" 
d="M39 262q0 129 67.5 201t177.5 72t177.5 -71t67.5 -202q0 -129 -67.5 -201t-177.5 -72t-177.5 71t-67.5 202zM429 263q0 203 -145 203q-144 0 -144 -205q0 -203 144 -203q145 0 145 205zM147 733h65q2 -37 22 -56.5t51 -19.5q30 0 50.5 19.5t21.5 56.5h66
q0 -64 -36.5 -101.5t-101.5 -37.5q-66 0 -102 37t-36 102z" />
    <glyph glyph-name="Ohungarumlaut" unicode="&#x150;" horiz-adv-x="741" 
d="M408 777v12l40 129h84v-10l-51 -131h-73zM248 789l37 129h85v-10l-49 -131h-73v12zM371 67q106 0 162.5 76t56.5 210t-57 210t-163 76t-162.5 -76t-56.5 -210t57 -210t163 -76zM370 718q151 0 239.5 -102.5t88.5 -260.5q0 -161 -87.5 -264t-239.5 -103
q-151 0 -239.5 102.5t-88.5 260.5q0 161 87.5 264t239.5 103z" />
    <glyph glyph-name="ohungarumlaut" unicode="&#x151;" horiz-adv-x="568" 
d="M170 609l40 144h78v-10l-52 -146h-67zM319 609l48 144h80v-10l-61 -146h-67v12zM39 262q0 129 67.5 201t177.5 72t177.5 -71t67.5 -202q0 -129 -67.5 -201t-177.5 -72t-177.5 71t-67.5 202zM429 263q0 203 -145 203q-144 0 -144 -205q0 -203 144 -203q145 0 145 205z" />
    <glyph glyph-name="OE" unicode="&#x152;" horiz-adv-x="931" 
d="M472 706h426l-5 -78h-319v-225h245l-2 -76h-243v-249h328l-4 -78h-516q-159 0 -249 97t-90 248q0 162 90 260.5t255 99.5h84v1zM151 348q0 -126 61.5 -199t173.5 -72h86v551h-81q-117 0 -178.5 -74t-61.5 -206z" />
    <glyph glyph-name="oe" unicode="&#x153;" horiz-adv-x="905" 
d="M860 56q-72 -67 -192 -67q-136 0 -197 104q-60 -104 -191 -104q-109 0 -175 71t-66 202q0 129 66 201t175 72q128 0 191 -103q60 103 175 103q112 0 162.5 -71t50.5 -219h-344q9 -185 168 -185q81 0 137 50h10zM423 263q0 202 -142 202t-142 -204q0 -203 142 -203
t142 205zM647 470q-123 0 -131 -169l249 4q-2 83 -28.5 124t-89.5 41z" />
    <glyph glyph-name="Racute" unicode="&#x154;" horiz-adv-x="606" 
d="M421 904l-108 -127h-80v9l89 127h99v-9zM546 500q0 -83 -43 -132t-115 -66l174 -292v-10h-113l-162 286h-116v-286h-104v706h234q116 0 180.5 -51t64.5 -155zM285 630h-114v-270h113q80 0 118 32t38 106q0 132 -155 132z" />
    <glyph glyph-name="racute" unicode="&#x155;" horiz-adv-x="347" 
d="M337 735l-110 -140h-77v9l94 140h93v-9zM157 448h7q17 37 53.5 62t76.5 25q33 0 51 -9l-16 -91h-11q-20 9 -45 9q-69 0 -109 -62v-382h-99v519l72 10h16z" />
    <glyph glyph-name="Rcommaaccent" unicode="&#x156;" horiz-adv-x="606" 
d="M546 500q0 -83 -43 -132t-115 -66l174 -292v-10h-113l-162 286h-116v-286h-104v706h234q116 0 180.5 -51t64.5 -155zM285 630h-114v-270h113q80 0 118 32t38 106q0 132 -155 132zM255 -60h97l-42 -157h-79z" />
    <glyph glyph-name="rcommaaccent" unicode="&#x157;" horiz-adv-x="347" 
d="M77 -55h92l-42 -162h-77zM157 448h7q17 37 53.5 62t76.5 25q33 0 51 -9l-16 -91h-11q-20 9 -45 9q-69 0 -109 -62v-382h-99v519l72 10h16z" />
    <glyph glyph-name="Rcaron" unicode="&#x158;" horiz-adv-x="606" 
d="M546 500q0 -83 -43 -132t-115 -66l174 -292v-10h-113l-162 286h-116v-286h-104v706h234q116 0 180.5 -51t64.5 -155zM285 630h-114v-270h113q80 0 118 32t38 106q0 132 -155 132zM130 895v9h79l72 -77l73 77h78v-10l-104 -117h-93z" />
    <glyph glyph-name="rcaron" unicode="&#x159;" horiz-adv-x="347" 
d="M157 448h7q17 37 53.5 62t76.5 25q33 0 51 -9l-16 -91h-11q-20 9 -45 9q-69 0 -109 -62v-382h-99v519l72 10h16zM339 726l-101 -127h-80l-101 127v8h75l66 -80l66 80h75v-8z" />
    <glyph glyph-name="Sacute" unicode="&#x15a;" horiz-adv-x="534" 
d="M21 74l41 68h12q84 -76 185 -76q72 0 105 26t33 80q0 51 -34 82.5t-125 66.5q-102 39 -144 86.5t-42 124.5q0 86 65 136t165 50q117 0 194 -69l-41 -68h-12q-60 58 -137 58q-62 0 -98 -26t-36 -74q0 -45 29.5 -71t112.5 -60q111 -45 157 -92t46 -134q0 -93 -61.5 -143.5
t-173.5 -50.5q-146 0 -241 86zM406 904l-108 -127h-80v9l89 127h99v-9z" />
    <glyph glyph-name="sacute" unicode="&#x15b;" horiz-adv-x="454" 
d="M371 735l-110 -140h-77v9l94 140h93v-9zM398 484l-35 -61h-13q-45 43 -117 43q-90 0 -90 -67q0 -34 24.5 -53.5t85.5 -38.5q88 -28 126.5 -61t38.5 -98q0 -77 -48.5 -118t-144.5 -41q-112 0 -189 62l32 61h12q63 -57 148 -57q100 0 100 75q0 39 -25.5 57t-106.5 43
q-72 23 -107.5 60.5t-35.5 96.5q0 69 51.5 108.5t129.5 39.5q103 0 164 -51z" />
    <glyph glyph-name="Scircumflex" unicode="&#x15c;" horiz-adv-x="534" 
d="M21 74l41 68h12q84 -76 185 -76q72 0 105 26t33 80q0 51 -34 82.5t-125 66.5q-102 39 -144 86.5t-42 124.5q0 86 65 136t165 50q117 0 194 -69l-41 -68h-12q-60 58 -137 58q-62 0 -98 -26t-36 -74q0 -45 29.5 -71t112.5 -60q111 -45 157 -92t46 -134q0 -93 -61.5 -143.5
t-173.5 -50.5q-146 0 -241 86zM114 786l105 118h93l104 -117v-10h-78l-73 76l-72 -76h-79v9z" />
    <glyph glyph-name="scircumflex" unicode="&#x15d;" horiz-adv-x="454" 
d="M398 484l-35 -61h-13q-45 43 -117 43q-90 0 -90 -67q0 -34 24.5 -53.5t85.5 -38.5q88 -28 126.5 -61t38.5 -98q0 -77 -48.5 -118t-144.5 -41q-112 0 -189 62l32 61h12q63 -57 148 -57q100 0 100 75q0 39 -25.5 57t-106.5 43q-72 23 -107.5 60.5t-35.5 96.5
q0 69 51.5 108.5t129.5 39.5q103 0 164 -51zM373 607v-8h-75l-66 79l-65 -79h-75v8l100 127h80z" />
    <glyph glyph-name="Scedilla" unicode="&#x15e;" horiz-adv-x="534" 
d="M137 -213l20 40h10q26 -17 54 -17q57 0 57 43q0 23 -14.5 33.5t-48.5 10.5q-9 0 -23 -2l-6 5l39 90q-125 12 -204 84l41 68h12q84 -76 185 -76q72 0 105 26t33 80q0 51 -34 82.5t-125 66.5q-102 39 -144 86.5t-42 124.5q0 86 65 136t165 50q117 0 194 -69l-41 -68h-12
q-60 58 -137 58q-62 0 -98 -26t-36 -74q0 -45 29.5 -71t112.5 -60q111 -45 157 -92t46 -134q0 -89 -57 -139t-160 -54l-21 -48q45 -3 70 -27.5t25 -60.5q0 -43 -31.5 -68t-84.5 -25q-64 0 -101 27z" />
    <glyph glyph-name="scedilla" unicode="&#x15f;" horiz-adv-x="454" 
d="M113 -213l20 40h10q25 -16 53 -16q57 0 57 43q0 22 -14.5 32.5t-48.5 10.5q-9 0 -23 -2l-6 5l39 90q-100 7 -164 61l32 61h12q63 -57 148 -57q100 0 100 75q0 39 -25.5 57t-106.5 43q-72 23 -107.5 60.5t-35.5 96.5q0 69 51.5 108.5t129.5 39.5q103 0 164 -51l-35 -61
h-13q-45 43 -117 43q-90 0 -90 -67q0 -34 24.5 -53.5t85.5 -38.5q88 -28 126.5 -61t38.5 -98q0 -144 -162 -158l-22 -49q45 -3 70 -27.5t25 -60.5q0 -42 -31.5 -67t-83.5 -25q-64 0 -101 26z" />
    <glyph glyph-name="Scaron" unicode="&#x160;" horiz-adv-x="534" 
d="M21 74l41 68h12q84 -76 185 -76q72 0 105 26t33 80q0 51 -34 82.5t-125 66.5q-102 39 -144 86.5t-42 124.5q0 86 65 136t165 50q117 0 194 -69l-41 -68h-12q-60 58 -137 58q-62 0 -98 -26t-36 -74q0 -45 29.5 -71t112.5 -60q111 -45 157 -92t46 -134q0 -93 -61.5 -143.5
t-173.5 -50.5q-146 0 -241 86zM114 895v9h79l72 -77l73 77h78v-10l-104 -117h-93z" />
    <glyph glyph-name="scaron" unicode="&#x161;" horiz-adv-x="454" 
d="M398 484l-35 -61h-13q-45 43 -117 43q-90 0 -90 -67q0 -34 24.5 -53.5t85.5 -38.5q88 -28 126.5 -61t38.5 -98q0 -77 -48.5 -118t-144.5 -41q-112 0 -189 62l32 61h12q63 -57 148 -57q100 0 100 75q0 39 -25.5 57t-106.5 43q-72 23 -107.5 60.5t-35.5 96.5
q0 69 51.5 108.5t129.5 39.5q103 0 164 -51zM373 726l-101 -127h-80l-101 127v8h75l66 -80l66 80h75v-8z" />
    <glyph glyph-name="Tcommaaccent" unicode="&#x162;" horiz-adv-x="579" 
d="M236 623h-220l3 83h542l2 -83h-222v-623h-105v623zM246 -65h97l-42 -157h-79z" />
    <glyph glyph-name="tcommaaccent" unicode="&#x163;" horiz-adv-x="359" 
d="M162 -55h92l-42 -162h-77zM104 659l75 12h15v-147h126v-68h-126v-327q0 -68 59 -68q31 0 61 16h10l18 -60q-49 -28 -120 -28q-126 0 -126 127v340h-73v58l73 10z" />
    <glyph glyph-name="Tcaron" unicode="&#x164;" horiz-adv-x="579" 
d="M236 623h-220l3 83h542l2 -83h-222v-623h-105v623zM137 895v9h79l72 -77l73 77h78v-10l-104 -117h-93z" />
    <glyph glyph-name="tcaron" unicode="&#x165;" horiz-adv-x="359" 
d="M276 744l77 9h15l-39 -169h-71zM104 659l75 12h15v-147h126v-68h-126v-327q0 -68 59 -68q31 0 61 16h10l18 -60q-49 -28 -120 -28q-126 0 -126 127v340h-73v58l73 10z" />
    <glyph glyph-name="Tbar" unicode="&#x166;" horiz-adv-x="580" 
d="M561 706l2 -83h-223v-192h144v-69h-144v-362h-104v362h-143v69h143v192h-220l3 83h542z" />
    <glyph glyph-name="tbar" unicode="&#x167;" horiz-adv-x="388" 
d="M38 339h74v118h-74v57l74 10l8 135l74 12h15v-147h127v-67h-127v-118h127v-54h-127v-156q0 -68 59 -68q33 0 61 16h10l19 -60q-50 -28 -120 -28q-126 0 -126 127v169h-74v54z" />
    <glyph glyph-name="Utilde" unicode="&#x168;" horiz-adv-x="688" 
d="M344 67q176 0 176 190v449h104v-450q0 -268 -280 -268t-280 268v450h104v-449q0 -190 176 -190zM284 832q-18 0 -26.5 -11.5t-10.5 -38.5h-55v11q0 52 24 79.5t64 27.5q35 0 72.5 -27.5t54.5 -27.5q18 0 26 10.5t9 38.5h56v-11q0 -52 -22 -80t-60 -28q-36 0 -76 28.5
t-56 28.5z" />
    <glyph glyph-name="utilde" unicode="&#x169;" horiz-adv-x="565" 
d="M500 529v-529h-83l-6 68h-8q-61 -79 -165 -79q-175 0 -175 169v361l83 10h16v-357q0 -59 24.5 -84.5t78.5 -25.5q81 0 136 60v397l82 10h17zM225 665q-35 0 -39 -54h-53v11q0 52 24.5 78.5t63.5 26.5q35 0 72 -28.5t54 -28.5q36 0 37 53h53v-12q0 -105 -81 -105
q-36 0 -76 29.5t-55 29.5z" />
    <glyph glyph-name="Umacron" unicode="&#x16a;" horiz-adv-x="688" 
d="M344 67q176 0 176 190v449h104v-450q0 -268 -280 -268t-280 268v450h104v-449q0 -190 176 -190zM208 864h270v-69h-270v69z" />
    <glyph glyph-name="umacron" unicode="&#x16b;" horiz-adv-x="565" 
d="M500 529v-529h-83l-6 68h-8q-61 -79 -165 -79q-175 0 -175 169v361l83 10h16v-357q0 -59 24.5 -84.5t78.5 -25.5q81 0 136 60v397l82 10h17zM154 700h261v-69h-261v69z" />
    <glyph glyph-name="Ubreve" unicode="&#x16c;" horiz-adv-x="688" 
d="M344 67q176 0 176 190v449h104v-450q0 -268 -280 -268t-280 268v450h104v-449q0 -190 176 -190zM203 897h70q4 -63 71 -63q68 0 71 63h70q0 -62 -38 -94t-103 -32t-103 32t-38 94z" />
    <glyph glyph-name="ubreve" unicode="&#x16d;" horiz-adv-x="565" 
d="M500 529v-529h-83l-6 68h-8q-61 -79 -165 -79q-175 0 -175 169v361l83 10h16v-357q0 -59 24.5 -84.5t78.5 -25.5q81 0 136 60v397l82 10h17zM146 733h65q2 -37 22 -56.5t51 -19.5q30 0 50.5 19.5t21.5 56.5h66q0 -64 -36.5 -101.5t-101.5 -37.5q-66 0 -102 37t-36 102z
" />
    <glyph glyph-name="Uring" unicode="&#x16e;" horiz-adv-x="688" 
d="M344 67q176 0 176 190v449h104v-450q0 -268 -280 -268t-280 268v450h104v-449q0 -190 176 -190zM241 857q0 39 28 64.5t75 25.5q48 0 76 -25.5t28 -64.5t-28 -64t-76 -25q-47 0 -75 25.5t-28 63.5zM395 857q0 21 -13.5 33.5t-37.5 12.5q-23 0 -36.5 -12.5t-13.5 -33.5
q0 -20 13.5 -33t36.5 -13t37 13t14 33z" />
    <glyph glyph-name="uring" unicode="&#x16f;" horiz-adv-x="565" 
d="M180 680q0 42 30 70t74 28t74 -28t30 -70t-29.5 -69t-74.5 -27t-74.5 27t-29.5 69zM336 680q0 25 -14.5 40.5t-37.5 15.5q-25 0 -39.5 -15.5t-14.5 -40.5t14.5 -39.5t39.5 -14.5q23 0 37.5 15t14.5 39zM500 529v-529h-83l-6 68h-8q-61 -79 -165 -79q-175 0 -175 169v361
l83 10h16v-357q0 -59 24.5 -84.5t78.5 -25.5q81 0 136 60v397l82 10h17z" />
    <glyph glyph-name="Uhungarumlaut" unicode="&#x170;" horiz-adv-x="688" 
d="M384 777v12l40 129h84v-10l-51 -131h-73zM224 789l37 129h85v-10l-49 -131h-73v12zM344 67q176 0 176 190v449h104v-450q0 -268 -280 -268t-280 268v450h104v-449q0 -190 176 -190z" />
    <glyph glyph-name="uhungarumlaut" unicode="&#x171;" horiz-adv-x="565" 
d="M500 529v-529h-83l-6 68h-8q-61 -79 -165 -79q-175 0 -175 169v361l83 10h16v-357q0 -59 24.5 -84.5t78.5 -25.5q81 0 136 60v397l82 10h17zM169 609l40 144h78v-10l-52 -146h-67zM318 609l48 144h80v-10l-61 -146h-67v12z" />
    <glyph glyph-name="Uogonek" unicode="&#x172;" horiz-adv-x="689" 
d="M262 -123q0 69 79 107v4q-277 2 -277 267v451h104v-449q0 -190 177 -190q176 0 176 190v449h104v-451q0 -61 -14 -107t-40.5 -74.5t-55 -45.5t-67.5 -30q-63 -21 -87 -47.5t-24 -59.5q0 -54 56 -54q23 0 41 9h10l11 -45q-28 -20 -82 -20q-52 0 -81.5 26.5t-29.5 69.5z
" />
    <glyph glyph-name="uogonek" unicode="&#x173;" horiz-adv-x="566" 
d="M500 529v-529q-56 -31 -78.5 -55.5t-22.5 -54.5q0 -25 15 -38.5t41 -13.5t42 8h9l11 -44q-25 -20 -78 -20t-83.5 26t-30.5 69q0 77 99 119v4h-11l-6 65h-6q-61 -76 -163 -76q-174 0 -174 169v361l82 10h17v-357q0 -59 24 -84.5t78 -25.5q81 0 136 60v397l82 10h17z" />
    <glyph glyph-name="Wcircumflex" unicode="&#x174;" horiz-adv-x="937" 
d="M514 706l151 -580h7l145 580h94v-9l-183 -697h-109l-148 547h-5l-147 -547h-109l-184 697v9h98l145 -580h8l151 580h86zM320 786l105 118h93l104 -117v-10h-78l-73 76l-72 -76h-79v9z" />
    <glyph glyph-name="wcircumflex" unicode="&#x175;" horiz-adv-x="767" 
d="M543 118h8l107 406h91v-11l-146 -513h-99l-116 399h-7l-117 -399h-100l-146 513v11h94l108 -406h7l115 406h87zM526 607v-8h-75l-66 79l-65 -79h-75v8l100 127h80z" />
    <glyph glyph-name="Ycircumflex" unicode="&#x176;" horiz-adv-x="608" 
d="M248 281l-239 415v10h108l188 -341h8l184 341h91v-10l-236 -414v-282h-104v281zM153 786l105 118h93l104 -117v-10h-78l-73 76l-72 -76h-79v9z" />
    <glyph glyph-name="ycircumflex" unicode="&#x177;" horiz-adv-x="501" 
d="M102 -156q31 0 48 18t36 72l22 60l-191 519v11h102l116 -346l21 -71h7l23 72l117 345h83v-11l-214 -589q-31 -85 -64.5 -117.5t-96.5 -32.5q-47 0 -82 14l15 68h9q21 -12 49 -12zM395 607v-8h-75l-66 79l-65 -79h-75v8l100 127h80z" />
    <glyph glyph-name="Ydieresis" unicode="&#x178;" horiz-adv-x="608" 
d="M248 281l-239 415v10h108l188 -341h8l184 341h91v-10l-236 -414v-282h-104v281zM164 834q0 23 15 37.5t37 14.5q21 0 36 -14.5t15 -37.5t-14.5 -37t-36.5 -14t-37 14t-15 37zM340 834q0 23 15 37.5t37 14.5q21 0 36 -14.5t15 -37.5t-14.5 -37t-36.5 -14t-37 14t-15 37z
" />
    <glyph glyph-name="Zacute" unicode="&#x179;" horiz-adv-x="585" 
d="M440 904l-108 -127h-80v9l89 127h99v-9zM546 625l-384 -535v-8h390l-2 -40q-3 -41 -3 -42h-506l-6 80l386 537v7h-368l6 82h483z" />
    <glyph glyph-name="zacute" unicode="&#x17a;" horiz-adv-x="482" 
d="M382 735l-110 -140h-77v9l94 140h93v-9zM56 524h381l5 -65l-283 -384v-7h286l-3 -68h-403l-3 60l286 389v6h-271q4 69 5 69z" />
    <glyph glyph-name="Zdotaccent" unicode="&#x17b;" horiz-adv-x="585" 
d="M546 625l-384 -535v-8h390l-2 -40q-3 -41 -3 -42h-506l-6 80l386 537v7h-368l6 82h483zM242 835q0 24 16 39.5t41 15.5q24 0 40.5 -15.5t16.5 -39.5q0 -25 -16.5 -40t-40.5 -15q-25 0 -41 15t-16 40z" />
    <glyph glyph-name="zdotaccent" unicode="&#x17c;" horiz-adv-x="482" 
d="M56 524h381l5 -65l-283 -384v-7h286l-3 -68h-403l-3 60l286 389v6h-271q4 69 5 69zM188 669q0 24 16 39.5t40 15.5t40.5 -15.5t16.5 -39.5q0 -25 -16 -40t-41 -15q-24 0 -40 15t-16 40z" />
    <glyph glyph-name="Zcaron" unicode="&#x17d;" horiz-adv-x="585" 
d="M546 625l-384 -535v-8h390l-2 -40q-3 -41 -3 -42h-506l-6 80l386 537v7h-368l6 82h483zM149 895v9h79l72 -77l73 77h78v-10l-104 -117h-93z" />
    <glyph glyph-name="zcaron" unicode="&#x17e;" horiz-adv-x="482" 
d="M56 524h381l5 -65l-283 -384v-7h286l-3 -68h-403l-3 60l286 389v6h-271q4 69 5 69zM385 726l-101 -127h-80l-101 127v8h75l66 -80l66 80h75v-8z" />
    <glyph glyph-name="florin" unicode="&#x192;" horiz-adv-x="455" 
d="M37 409h132l26 161q12 76 59.5 112t114.5 36q55 0 91 -21l-18 -63h-8q-19 13 -54 13q-73 0 -87 -87l-24 -151h139v-71h-150l-60 -379q-24 -143 -174 -143q-57 0 -93 21l22 63h8q21 -14 54 -14q38 0 58 19.5t27 66.5l58 366h-121v71z" />
    <glyph glyph-name="Aringacute" unicode="&#x1fa;" horiz-adv-x="657" 
d="M530 0l-65 191h-285l-64 -191h-98v9l253 697h115l253 -697v-9h-109zM320 592l-112 -323h231l-111 323h-8zM329 768q-48 0 -76 25t-28 64q0 38 28 63t76 25t76 -25t28 -63q0 -39 -28 -64t-76 -25zM465 1102l-104 -114h-81v8l86 114h99v-8zM329 809q24 0 38 13t14 35
q0 21 -14 34t-38 13t-38.5 -13t-14.5 -34q0 -22 14 -35t39 -13z" />
    <glyph glyph-name="aringacute" unicode="&#x1fb;" horiz-adv-x="517" 
d="M134 675q0 40 29.5 66.5t74.5 26.5t74 -26t29 -67q0 -40 -29 -65.5t-74 -25.5t-74.5 25.5t-29.5 65.5zM292 675q0 24 -15 38.5t-39 14.5q-25 0 -40.5 -14.5t-15.5 -38.5t15 -38t41 -14q24 0 39 14t15 38zM193 817l93 133h93v-9l-110 -132h-76v8zM79 428l-25 61
q90 46 194 46q95 0 140 -37.5t45 -114.5v-286q0 -44 35 -44q13 0 28 6h6l13 -51q-29 -19 -75 -19q-86 0 -96 76h-7q-18 -33 -58 -54.5t-91 -21.5q-68 0 -108 34.5t-40 101.5q0 59 33.5 92.5t105.5 55.5l155 48v43q0 54 -22 77t-82 23q-64 0 -140 -36h-11zM334 109v151
l-118 -37q-43 -14 -61.5 -35t-18.5 -56q0 -77 76 -77q32 0 66.5 15t55.5 39z" />
    <glyph glyph-name="AEacute" unicode="&#x1fc;" horiz-adv-x="897" 
d="M2 9l369 697h493l-6 -80h-317v-222h244l-3 -78h-241v-246h327l-4 -80h-426v207h-230l-110 -207h-96v9zM430 626l-180 -340h188v340h-8zM630 904l-108 -127h-80v9l89 127h99v-9z" />
    <glyph glyph-name="aeacute" unicode="&#x1fd;" horiz-adv-x="819" 
d="M774 56q-74 -67 -197 -67q-130 0 -194 90h-7q-24 -36 -72.5 -63t-107.5 -27q-69 0 -113 37t-44 104q0 59 34 92t105 54q73 22 158 27v60q0 54 -23 77.5t-84 23.5q-66 0 -140 -37h-11l-24 62q89 46 190 46q127 0 159 -80q58 80 159 80q112 0 161 -70.5t49 -219.5h-340
q4 -88 40.5 -136.5t120.5 -48.5t140 50h10zM564 470q-122 0 -132 -169l247 4q-2 84 -27.5 124.5t-87.5 40.5zM218 55q37 0 74.5 19t65.5 51q-21 51 -24 119q-81 -4 -126 -21q-40 -14 -56 -34t-16 -52q0 -43 23 -62.5t59 -19.5zM546 735l-110 -140h-77v9l94 140h93v-9z" />
    <glyph glyph-name="Oslashacute" unicode="&#x1fe;" horiz-adv-x="735" 
d="M36 12l81 98q-74 99 -74 242q0 160 87.5 263t239.5 103q115 0 197 -66l45 54h82v-12l-76 -93q79 -99 79 -247q0 -160 -87.5 -263t-239.5 -103q-120 0 -204 70l-48 -58h-82v12zM591 353q0 105 -35 175l-335 -404q55 -58 149 -58q107 0 164 76t57 211zM150 354
q0 -100 30 -168l333 402q-55 52 -143 52q-107 0 -163.5 -76t-56.5 -210zM507 904l-108 -127h-80v9l89 127h99v-9z" />
    <glyph glyph-name="oslashacute" unicode="&#x1ff;" horiz-adv-x="561" 
d="M41 260q0 129 65 202t175 73q96 0 158 -56l40 45h59v-7l-66 -75q49 -70 49 -179q0 -130 -65.5 -202t-174.5 -72q-97 0 -158 54l-39 -43h-59v7l64 74q-48 68 -48 179zM136 260q0 -68 15 -112l236 273q-37 51 -106 51q-67 0 -106 -53.5t-39 -158.5zM425 263q0 61 -15 111
l-236 -272q37 -51 107 -51q67 0 105.5 53t38.5 159zM418 735l-110 -140h-77v9l94 140h93v-9z" />
    <glyph glyph-name="Scommaaccent" unicode="&#x218;" horiz-adv-x="534" 
d="M21 74l41 68h12q84 -76 185 -76q72 0 105 26t33 80q0 51 -34 82.5t-125 66.5q-102 39 -144 86.5t-42 124.5q0 86 65 136t165 50q117 0 194 -69l-41 -68h-12q-60 58 -137 58q-62 0 -98 -26t-36 -74q0 -45 29.5 -71t112.5 -60q111 -45 157 -92t46 -134q0 -93 -61.5 -143.5
t-173.5 -50.5q-146 0 -241 86zM216 -60h97l-42 -157h-79z" />
    <glyph glyph-name="scommaaccent" unicode="&#x219;" horiz-adv-x="454" 
d="M194 -55h92l-42 -162h-77zM398 484l-35 -61h-13q-45 43 -117 43q-90 0 -90 -67q0 -34 24.5 -53.5t85.5 -38.5q88 -28 126.5 -61t38.5 -98q0 -77 -48.5 -118t-144.5 -41q-112 0 -189 62l32 61h12q63 -57 148 -57q100 0 100 75q0 39 -25.5 57t-106.5 43q-72 23 -107.5 60.5
t-35.5 96.5q0 69 51.5 108.5t129.5 39.5q103 0 164 -51z" />
    <glyph glyph-name="uni021A" unicode="&#x21a;" horiz-adv-x="579" 
d="M236 623h-220l3 83h542l2 -83h-222v-623h-105v623zM246 -65h97l-42 -157h-79z" />
    <glyph glyph-name="uni021B" unicode="&#x21b;" horiz-adv-x="359" 
d="M162 -55h92l-42 -162h-77zM104 659l75 12h15v-147h126v-68h-126v-327q0 -68 59 -68q31 0 61 16h10l18 -60q-49 -28 -120 -28q-126 0 -126 127v340h-73v58l73 10z" />
    <glyph glyph-name="uni0237" unicode="&#x237;" horiz-adv-x="240" 
d="M157 529h15v-594q0 -79 -44 -120.5t-125 -41.5q-60 0 -105 19l21 70h12q35 -13 63 -13q44 0 61.5 22.5t17.5 70.5v578z" />
    <glyph glyph-name="circumflex" unicode="&#x2c6;" horiz-adv-x="331" 
d="M306 607v-8h-75l-66 79l-65 -79h-75v8l100 127h80z" />
    <glyph glyph-name="caron" unicode="&#x2c7;" horiz-adv-x="331" 
d="M306 726l-101 -127h-80l-101 127v8h75l66 -80l66 80h75v-8z" />
    <glyph glyph-name="breve" unicode="&#x2d8;" horiz-adv-x="348" 
d="M36 733h65q2 -37 22 -56.5t51 -19.5q30 0 50.5 19.5t21.5 56.5h66q0 -64 -36.5 -101.5t-101.5 -37.5q-66 0 -102 37t-36 102z" />
    <glyph glyph-name="dotaccent" unicode="&#x2d9;" horiz-adv-x="219" 
d="M53 669q0 24 16 39.5t40 15.5t40.5 -15.5t16.5 -39.5q0 -25 -16 -40t-41 -15q-24 0 -40 15t-16 40z" />
    <glyph glyph-name="ring" unicode="&#x2da;" horiz-adv-x="261" 
d="M27 680q0 42 30 70t74 28t74 -28t30 -70t-29.5 -69t-74.5 -27t-74.5 27t-29.5 69zM183 680q0 25 -14.5 40.5t-37.5 15.5q-25 0 -39.5 -15.5t-14.5 -40.5t14.5 -39.5t39.5 -14.5q23 0 37.5 15t14.5 39z" />
    <glyph glyph-name="ogonek" unicode="&#x2db;" horiz-adv-x="294" 
d="M51 -123q0 95 151 147l24 -24q-58 -28 -79 -53t-21 -56q0 -53 55 -53q26 0 42 8h9l12 -44q-26 -20 -83 -20q-51 0 -80.5 26t-29.5 69z" />
    <glyph glyph-name="tilde" unicode="&#x2dc;" horiz-adv-x="399" 
d="M139 665q-35 0 -39 -54h-53v11q0 52 24.5 78.5t63.5 26.5q35 0 72 -28.5t54 -28.5q36 0 37 53h53v-12q0 -105 -81 -105q-36 0 -76 29.5t-55 29.5z" />
    <glyph glyph-name="hungarumlaut" unicode="&#x2dd;" horiz-adv-x="352" 
d="M47 609l40 144h78v-10l-52 -146h-67zM196 609l48 144h80v-10l-61 -146h-67v12z" />
    <glyph glyph-name="Wgrave" unicode="&#x1e80;" horiz-adv-x="937" 
d="M336 904v9h99l89 -127v-9h-80zM514 706l151 -580h7l145 580h94v-9l-183 -697h-109l-148 547h-5l-147 -547h-109l-184 697v9h98l145 -580h8l151 580h86z" />
    <glyph glyph-name="wgrave" unicode="&#x1e81;" horiz-adv-x="767" 
d="M543 118h8l107 406h91v-11l-146 -513h-99l-116 399h-7l-117 -399h-100l-146 513v11h94l108 -406h7l115 406h87zM253 735v9h94l94 -140v-9h-78z" />
    <glyph glyph-name="Wacute" unicode="&#x1e82;" horiz-adv-x="937" 
d="M611 904l-108 -127h-80v9l89 127h99v-9zM514 706l151 -580h7l145 580h94v-9l-183 -697h-109l-148 547h-5l-147 -547h-109l-184 697v9h98l145 -580h8l151 580h86z" />
    <glyph glyph-name="wacute" unicode="&#x1e83;" horiz-adv-x="767" 
d="M524 735l-110 -140h-77v9l94 140h93v-9zM543 118h8l107 406h91v-11l-146 -513h-99l-116 399h-7l-117 -399h-100l-146 513v11h94l108 -406h7l115 406h87z" />
    <glyph glyph-name="Wdieresis" unicode="&#x1e84;" horiz-adv-x="937" 
d="M331 834q0 23 15 37.5t37 14.5q21 0 36 -14.5t15 -37.5t-14.5 -37t-36.5 -14t-37 14t-15 37zM507 834q0 23 15 37.5t37 14.5q21 0 36 -14.5t15 -37.5t-14.5 -37t-36.5 -14t-37 14t-15 37zM514 706l151 -580h7l145 580h94v-9l-183 -697h-109l-148 547h-5l-147 -547h-109
l-184 697v9h98l145 -580h8l151 580h86z" />
    <glyph glyph-name="wdieresis" unicode="&#x1e85;" horiz-adv-x="767" 
d="M474 713q20 0 34 -14t14 -35q0 -22 -14 -35.5t-34 -13.5q-21 0 -35 13.5t-14 35.5q0 21 14 35t35 14zM300 713q20 0 34 -14t14 -35q0 -22 -14 -35.5t-34 -13.5q-21 0 -35 13.5t-14 35.5q0 21 14 35t35 14zM543 118h8l107 406h91v-11l-146 -513h-99l-116 399h-7l-117 -399
h-100l-146 513v11h94l108 -406h7l115 406h87z" />
    <glyph glyph-name="Ygrave" unicode="&#x1ef2;" horiz-adv-x="608" 
d="M248 281l-239 415v10h108l188 -341h8l184 341h91v-10l-236 -414v-282h-104v281zM169 904v9h99l89 -127v-9h-80z" />
    <glyph glyph-name="ygrave" unicode="&#x1ef3;" horiz-adv-x="501" 
d="M102 -156q31 0 48 18t36 72l22 60l-191 519v11h102l116 -346l21 -71h7l23 72l117 345h83v-11l-214 -589q-31 -85 -64.5 -117.5t-96.5 -32.5q-47 0 -82 14l15 68h9q21 -12 49 -12zM122 735v9h94l94 -140v-9h-78z" />
    <glyph glyph-name="endash" unicode="&#x2013;" horiz-adv-x="570" 
d="M56 243v73h458v-73h-458z" />
    <glyph glyph-name="emdash" unicode="&#x2014;" horiz-adv-x="797" 
d="M56 243v73h686v-73h-686z" />
    <glyph glyph-name="quoteleft" unicode="&#x2018;" horiz-adv-x="203" 
d="M86 736h75l-28 -220h-96z" />
    <glyph glyph-name="quoteright" unicode="&#x2019;" horiz-adv-x="203" 
d="M42 516l29 220h95l-49 -220h-75z" />
    <glyph glyph-name="quotesinglbase" unicode="&#x201a;" horiz-adv-x="203" 
d="M41 -124l29 220h95l-49 -220h-75z" />
    <glyph glyph-name="quotedblleft" unicode="&#x201c;" horiz-adv-x="358" 
d="M86 736h75l-28 -220h-96zM241 736h75l-28 -220h-96z" />
    <glyph glyph-name="quotedblright" unicode="&#x201d;" horiz-adv-x="358" 
d="M42 516l29 220h95l-49 -220h-75zM197 516l29 220h95l-49 -220h-75z" />
    <glyph glyph-name="quotedblbase" unicode="&#x201e;" horiz-adv-x="358" 
d="M196 -124l29 220h95l-49 -220h-75zM41 -124l29 220h95l-49 -220h-75z" />
    <glyph glyph-name="dagger" unicode="&#x2020;" horiz-adv-x="544" 
d="M96 409h-63v74h63l136 -6l-7 177v52h95v-52l-8 -177l138 7h61v-75h-61l-138 6l6 -116v-73l-7 -325h-77l-8 325v73l6 116z" />
    <glyph glyph-name="daggerdbl" unicode="&#x2021;" horiz-adv-x="556" 
d="M96 416h-58v75h58l141 -7l-7 170v52h96v-52l-8 -169l140 6h60v-75h-60l-140 7l5 -86v-51l-5 -87l140 6h60v-75h-60l-140 7l3 -71v-42l-5 -123h-76l-5 123v42l3 72l-142 -8h-58v75h58l141 -6l-5 87v51l5 86z" />
    <glyph glyph-name="bullet" unicode="&#x2022;" horiz-adv-x="306" 
d="M154 187q-48 0 -77.5 30.5t-29.5 74.5t29.5 75.5t77.5 31.5q47 -1 76 -32t29 -75t-29 -74.5t-76 -30.5z" />
    <glyph glyph-name="ellipsis" unicode="&#x2026;" horiz-adv-x="773" 
d="M324 51q0 27 18 44.5t45 17.5q26 0 44 -17.5t18 -44.5t-18 -45t-44 -18q-27 0 -45 18t-18 45zM63 51q0 27 18 44.5t45 17.5q26 0 44 -17.5t18 -44.5t-18 -45t-44 -18q-27 0 -45 18t-18 45zM585 51q0 27 18 44.5t44 17.5q27 0 45 -17.5t18 -44.5t-18 -45t-45 -18
q-26 0 -44 18t-18 45z" />
    <glyph glyph-name="perthousand" unicode="&#x2030;" horiz-adv-x="1170" 
d="M982 48q42 0 64 36.5t22 94.5t-22 94.5t-64 36.5q-41 0 -62.5 -36.5t-21.5 -94.5t21.5 -94.5t62.5 -36.5zM1143 179q0 -81 -43.5 -136t-117.5 -55q-72 0 -116 55t-44 136q0 80 44 135.5t116 55.5q74 0 117.5 -55t43.5 -136zM276 527q0 58 -22 94.5t-64 36.5
q-41 0 -62.5 -36.5t-21.5 -94.5t21.5 -94.5t62.5 -36.5q42 0 64 36t22 95zM605 48q42 0 63.5 36.5t21.5 94.5t-21.5 94.5t-63.5 36.5q-41 0 -63 -36.5t-22 -94.5t22 -94.5t63 -36.5zM125 9l474 697h72v-9l-474 -697h-72v9zM766 179q0 -81 -44 -136t-117 -55t-116.5 55
t-43.5 136q0 80 43.5 135.5t116.5 55.5t117 -55.5t44 -135.5zM30 527q0 80 44.5 135.5t115.5 55.5q73 0 117 -55.5t44 -135.5q0 -81 -43.5 -136t-117.5 -55q-73 0 -116.5 55t-43.5 136z" />
    <glyph glyph-name="uni2032" unicode="&#x2032;" horiz-adv-x="202" 
d="M71 706h88l-33 -189h-79z" />
    <glyph glyph-name="uni2033" unicode="&#x2033;" horiz-adv-x="347" 
d="M217 706h85l-34 -189h-75zM158 706l-34 -189h-76l24 189h86z" />
    <glyph glyph-name="guilsinglleft" unicode="&#x2039;" horiz-adv-x="299" 
d="M47 252v20l129 176h77v-11l-114 -175l114 -180v-10h-76z" />
    <glyph glyph-name="guilsinglright" unicode="&#x203a;" horiz-adv-x="299" 
d="M252 252l-130 -180h-76v10l114 180l-114 175v11h77l129 -176v-20z" />
    <glyph glyph-name="fraction" unicode="&#x2044;" horiz-adv-x="231" 
d="M-157 8l475 698h71v-8l-474 -698h-72v8z" />
    <glyph glyph-name="Euro" unicode="&#x20ac;" horiz-adv-x="607" 
d="M376 241h-164q33 -177 182 -177q88 0 147 61h11l33 -57q-71 -79 -204 -79q-107 0 -177 66t-93 186h-84l4 66h72q-2 30 -2 47q0 29 1 44h-75l4 65h80q22 117 93.5 186t182.5 69q113 0 182 -61l-37 -62h-9q-48 49 -128 49q-147 0 -183 -181h212l-6 -65h-214q-1 -14 -1 -44
q0 -32 1 -47h176z" />
    <glyph glyph-name="trademark" unicode="&#x2122;" horiz-adv-x="787" 
d="M357 706h95l89 -235h5l89 235h93v-336h-63l1 259h-6l-96 -259h-54l-95 259h-5v-259h-53v336zM135 652h-108v54h284v-54h-108v-282h-68v282z" />
    <glyph glyph-name="onethird" unicode="&#x2153;" horiz-adv-x="791" 
d="M454 32l25 51h8q39 -30 95 -30q41 0 63 18t22 51q0 67 -97 67h-28v53h25q40 0 65 17t25 46q0 62 -76 62q-50 0 -80 -27h-7l-23 47q54 40 134 40q64 0 100 -28t36 -79q0 -39 -25.5 -63.5t-68.5 -33.5v-6q48 -6 76.5 -32.5t28.5 -73.5q0 -55 -40.5 -87t-116.5 -32
q-90 0 -141 40zM102 631l-64 -21h-7l-12 55l125 44l37 -5v-417h-79v344zM71 8l475 698h71v-8l-474 -698h-72v8z" />
    <glyph glyph-name="twothirds" unicode="&#x2154;" horiz-adv-x="906" 
d="M567 32l25 51h8q39 -30 95 -30q41 0 63 18t22 51q0 67 -97 67h-28v53h25q40 0 65 17t25 46q0 62 -76 62q-50 0 -80 -27h-7l-23 47q54 40 134 40q64 0 100 -28t36 -79q0 -39 -25.5 -63.5t-68.5 -33.5v-6q48 -6 76.5 -32.5t28.5 -73.5q0 -55 -40.5 -87t-116.5 -32
q-90 0 -141 40zM35 344q118 95 157.5 143t39.5 88q0 76 -82 76q-55 0 -86 -31h-8l-25 48q57 46 137 46q69 0 107.5 -32t38.5 -93q0 -54 -34 -101t-150 -135v-5h199l-4 -61h-288zM192 8l475 698h71v-8l-474 -698h-72v8z" />
    <glyph glyph-name="oneeighth" unicode="&#x215b;" horiz-adv-x="818" 
d="M456 100q0 39 26 65t69 37v4q-81 39 -81 111q-1 51 40 80.5t110 29.5q68 0 107 -24.5t39 -73.5q0 -34 -21.5 -59.5t-58.5 -37.5v-6q95 -43 95 -115q0 -57 -43 -87.5t-125 -30.5q-73 0 -115 27.5t-42 79.5zM72 8l475 698h71v-8l-474 -698h-72v8zM102 631l-64 -21h-7
l-12 55l125 44l37 -5v-417h-79v344zM707 101q0 29 -24 47t-80 38q-32 -11 -54 -33t-22 -50q0 -29 23.5 -44t63.5 -15q93 0 93 57zM541 324q0 -27 22 -44.5t65 -32.5q30 9 49.5 29t19.5 45q0 57 -79 57q-35 0 -56 -14t-21 -40z" />
    <glyph glyph-name="threeeighths" unicode="&#x215c;" horiz-adv-x="921" 
d="M560 100q0 39 26 65t69 37v4q-81 39 -81 111q-1 51 40 80.5t110 29.5q68 0 107 -24.5t39 -73.5q0 -34 -21.5 -59.5t-58.5 -37.5v-6q95 -43 95 -115q0 -57 -43 -87.5t-125 -30.5q-73 0 -115 27.5t-42 79.5zM22 319l25 51h8q39 -30 95 -30q41 0 63 18t22 51q0 67 -97 67
h-28v53h25q40 0 65 17t25 46q0 62 -76 62q-50 0 -80 -27h-7l-23 47q54 40 134 40q64 0 100 -28t36 -79q0 -39 -25.5 -63.5t-68.5 -33.5v-6q48 -6 76.5 -32.5t28.5 -73.5q0 -55 -40.5 -87t-116.5 -32q-90 0 -141 40zM175 8l475 698h71v-8l-474 -698h-72v8zM811 101
q0 29 -24 47t-80 38q-32 -11 -54 -33t-22 -50q0 -29 23.5 -44t63.5 -15q93 0 93 57zM645 324q0 -27 22 -44.5t65 -32.5q30 9 49.5 29t19.5 45q0 57 -79 57q-35 0 -56 -14t-21 -40z" />
    <glyph glyph-name="fiveeighths" unicode="&#x215d;" horiz-adv-x="918" 
d="M557 100q0 39 26 65t69 37v4q-81 39 -81 111q-1 51 40 80.5t110 29.5q68 0 107 -24.5t39 -73.5q0 -34 -21.5 -59.5t-58.5 -37.5v-6q95 -43 95 -115q0 -57 -43 -87.5t-125 -30.5q-73 0 -115 27.5t-42 79.5zM24 319l25 49h8q41 -31 92 -31q92 0 92 81q0 82 -96 82
q-44 0 -81 -16l-10 9l13 213h235l-2 -57h-172l-8 -109q26 8 62 8q141 0 141 -130q0 -62 -40 -100t-122 -38q-84 0 -137 39zM173 8l475 698h71v-8l-474 -698h-72v8zM808 101q0 29 -24 47t-80 38q-32 -11 -54 -33t-22 -50q0 -29 23.5 -44t63.5 -15q93 0 93 57zM642 324
q0 -27 22 -44.5t65 -32.5q30 9 49.5 29t19.5 45q0 57 -79 57q-35 0 -56 -14t-21 -40z" />
    <glyph glyph-name="seveneighths" unicode="&#x215e;" horiz-adv-x="816" 
d="M455 100q0 39 26 65t69 37v4q-81 39 -81 111q-1 51 40 80.5t110 29.5q68 0 107 -24.5t39 -73.5q0 -34 -21.5 -59.5t-58.5 -37.5v-6q95 -43 95 -115q0 -57 -43 -87.5t-125 -30.5q-73 0 -115 27.5t-42 79.5zM71 8l475 698h71v-8l-474 -698h-72v8zM56 295l187 351h-214l2 60
h292l3 -59l-185 -360h-85v8zM706 101q0 29 -24 47t-80 38q-32 -11 -54 -33t-22 -50q0 -29 23.5 -44t63.5 -15q93 0 93 57zM540 324q0 -27 22 -44.5t65 -32.5q30 9 49.5 29t19.5 45q0 57 -79 57q-35 0 -56 -14t-21 -40z" />
    <glyph glyph-name="minus" unicode="&#x2212;" horiz-adv-x="578" 
d="M50 311h478v-79h-478v79z" />
    <glyph glyph-name="approxequal" unicode="&#x2248;" horiz-adv-x="627" 
d="M199 140q-59 0 -106 -60h-10l-34 56q24 38 64 60.5t86 22.5q52 0 124 -32t110 -32q59 0 106 63h10l34 -60q-50 -83 -144 -83q-46 0 -125.5 32.5t-114.5 32.5zM195 383q-32 0 -55.5 -14t-50.5 -46h-10l-34 55q24 37 64 59.5t86 22.5q52 0 124 -31.5t110 -31.5q60 0 106 63
h10l35 -60q-52 -83 -145 -83q-46 0 -125.5 33t-114.5 33z" />
    <glyph glyph-name="notequal" unicode="&#x2260;" horiz-adv-x="603" 
d="M125 5l59 111h-121v77h162l80 151h-242v77h283l65 123h65v-12l-59 -111h123v-77h-164l-80 -151h244v-77h-284l-65 -123h-66v12z" />
    <glyph glyph-name="lessequal" unicode="&#x2264;" horiz-adv-x="538" 
d="M63 336v70l394 200h13v-81l-306 -154l306 -154v-82h-13zM63 92h407v-77h-407v77z" />
    <glyph glyph-name="greaterequal" unicode="&#x2265;" horiz-adv-x="538" 
d="M475 406v-70l-394 -201h-13v82l305 154l-305 154v81h13zM68 92h407v-77h-407v77z" />
    <glyph glyph-name="uni2460" unicode="&#x2460;" horiz-adv-x="1000" 
d="M120 353q0 155 109.5 260t270.5 105t270.5 -105t109.5 -260t-109.5 -260t-270.5 -105t-270.5 105t-109.5 260zM847 353q0 143 -100 240t-247 97t-247 -97t-100 -240t100 -240t247 -97t247 97t100 240zM467 479l-62 -27h-4l-9 49l31.5 13l49.5 21t28 13l30 -4v-351h70v-50
h-204v50h70v286z" />
    <glyph glyph-name="uni2461" unicode="&#x2461;" horiz-adv-x="1000" 
d="M476 498q-33 0 -61 -28h-5l-22 42q45 40 100 40q112 0 112 -119q0 -70 -51 -142q-16 -22 -78 -88v-5h139l-2 -55h-212l-2 52q17 22 49 57.5t45 52.5q46 63 46 119q0 74 -58 74zM120 353q0 155 109.5 260t270.5 105t270.5 -105t109.5 -260t-109.5 -260t-270.5 -105
t-270.5 105t-109.5 260zM847 353q0 143 -100 240t-247 97t-247 -97t-100 -240t100 -240t247 -97t247 97t100 240z" />
    <glyph glyph-name="uni2462" unicode="&#x2462;" horiz-adv-x="1000" 
d="M543 255q0 37 -14.5 54t-49.5 17h-25l-2 48h24q27 0 43 17.5t16 47.5q0 61 -47 61q-35 0 -62 -27h-4l-21 40q41 39 101 39q101 0 101 -100q0 -37 -19 -62t-50 -33v-4q78 -16 78 -103q0 -52 -31 -83t-84 -31q-65 0 -106 38l22 45h5q28 -31 66 -31q59 0 59 67zM120 353
q0 155 109.5 260t270.5 105t270.5 -105t109.5 -260t-109.5 -260t-270.5 -105t-270.5 105t-109.5 260zM847 353q0 143 -100 240t-247 97t-247 -97t-100 -240t100 -240t247 -97t247 97t100 240z" />
    <glyph glyph-name="uni2463" unicode="&#x2463;" horiz-adv-x="1000" 
d="M506 238h-132l-4 44l127 263h73v-261h48l-3 -46h-44v-95h-65v95zM506 284v188h-2l-83 -188h85zM120 353q0 155 109.5 260t270.5 105t270.5 -105t109.5 -260t-109.5 -260t-270.5 -105t-270.5 105t-109.5 260zM847 353q0 143 -100 240t-247 97t-247 -97t-100 -240t100 -240
t247 -97t247 97t100 240z" />
    <glyph glyph-name="uni2464" unicode="&#x2464;" horiz-adv-x="1000" 
d="M393 172l20 45h5q28 -30 68 -30q64 0 64 79q0 82 -66 82q-32 0 -56 -17l-13 11l11 203h175l-2 -51h-122l-5 -108q16 6 41 6q104 0 104 -125q0 -58 -31.5 -94.5t-92.5 -36.5q-59 0 -100 36zM120 353q0 155 109.5 260t270.5 105t270.5 -105t109.5 -260t-109.5 -260
t-270.5 -105t-270.5 105t-109.5 260zM847 353q0 143 -100 240t-247 97t-247 -97t-100 -240t100 -240t247 -97t247 97t100 240z" />
    <glyph glyph-name="uni2465" unicode="&#x2465;" horiz-adv-x="1000" 
d="M120 353q0 155 109.5 260t270.5 105t270.5 -105t109.5 -260t-109.5 -260t-270.5 -105t-270.5 105t-109.5 260zM847 353q0 143 -100 240t-247 97t-247 -97t-100 -240t100 -240t247 -97t247 97t100 240zM380 315q0 112 37 174.5t107 62.5q51 0 77 -24l-20 -42h-5
q-23 17 -47 17q-69 0 -80 -134h3q26 29 66 29q92 0 92 -128q0 -61 -28.5 -97.5t-81.5 -36.5q-57 0 -88.5 48t-31.5 131zM497 352q-30 0 -50 -25v-25q0 -118 53 -118q47 0 47 86q0 82 -50 82z" />
    <glyph glyph-name="uni2466" unicode="&#x2466;" horiz-adv-x="1000" 
d="M491 143h-68v6l135 341h-155l2 55h216l3 -53zM120 353q0 155 109.5 260t270.5 105t270.5 -105t109.5 -260t-109.5 -260t-270.5 -105t-270.5 105t-109.5 260zM847 353q0 143 -100 240t-247 97t-247 -97t-100 -240t100 -240t247 -97t247 97t100 240z" />
    <glyph glyph-name="uni2467" unicode="&#x2467;" horiz-adv-x="1000" 
d="M120 353q0 155 109.5 260t270.5 105t270.5 -105t109.5 -260t-109.5 -260t-270.5 -105t-270.5 105t-109.5 260zM847 353q0 143 -100 240t-247 97t-247 -97t-100 -240t100 -240t247 -97t247 97t100 240zM384 242q0 33 17.5 59t48.5 37v4q-56 35 -57 104q0 49 29.5 77.5
t79.5 28.5t76.5 -25t26.5 -71q0 -33 -15 -59t-41 -36v-5q67 -38 67 -109q0 -52 -29 -81.5t-87 -29.5q-55 0 -85.5 28t-30.5 78zM555 241q0 28 -16 45.5t-54 36.5q-44 -23 -44 -77q0 -63 58 -63q56 0 56 58zM452 451q0 -27 15 -44t45 -33q38 23 38 74q0 58 -50 58
q-23 0 -35.5 -15t-12.5 -40z" />
    <glyph glyph-name="uni2468" unicode="&#x2468;" horiz-adv-x="1000" 
d="M120 353q0 155 109.5 260t270.5 105t270.5 -105t109.5 -260t-109.5 -260t-270.5 -105t-270.5 105t-109.5 260zM847 353q0 143 -100 240t-247 97t-247 -97t-100 -240t100 -240t247 -97t247 97t100 240zM398 163l19 44h5q24 -20 54 -20q37 0 54 33t22 98h-4
q-23 -29 -61 -29q-47 0 -72 33.5t-25 89.5q0 61 29.5 100.5t82.5 39.5q57 0 88 -49.5t31 -137.5q0 -107 -34 -168t-101 -61q-57 0 -88 27zM506 334q25 0 48 26v22q0 123 -52 123q-24 0 -36.5 -24.5t-12.5 -63.5q0 -83 53 -83z" />
    <glyph glyph-name="uni24C5" unicode="&#x24c5;" horiz-adv-x="814" 
d="M42 354q0 155 102.5 259.5t262.5 104.5t262.5 -104t102.5 -260t-102.5 -261t-262.5 -105t-262.5 105t-102.5 261zM716 354q0 136 -86 226.5t-223 90.5q-136 0 -223 -90.5t-87 -226.5t87 -227t223 -91q137 0 223 91t86 227zM282 556h134q78 0 121 -33.5t43 -102.5
q0 -72 -44.5 -104t-131.5 -32h-49v-135h-73v407zM406 340q52 0 76.5 18.5t24.5 63.5q0 76 -92 76h-60v-158h51z" />
    <glyph glyph-name="uni24C7" unicode="&#x24c7;" horiz-adv-x="814" 
d="M42 354q0 155 102.5 259.5t262.5 104.5t262.5 -104t102.5 -260t-102.5 -261t-262.5 -105t-262.5 105t-102.5 261zM716 354q0 136 -86 226.5t-223 90.5q-136 0 -223 -90.5t-87 -226.5t87 -227t223 -91q137 0 223 91t86 227zM494 149l-86 146h-14h-61v-146h-71v407h130
q164 0 164 -133q0 -89 -80 -116l93 -150v-8h-75zM391 350q48 0 69.5 18t21.5 58q0 38 -22 56t-70 18h-57v-150h58z" />
    <glyph glyph-name="uni24EA" unicode="&#x24ea;" horiz-adv-x="1000" 
d="M553 343q0 159 -53 159q-51 0 -51 -156q0 -160 53 -160q51 0 51 157zM384 341q0 102 30.5 156.5t85.5 54.5q56 0 87 -54.5t31 -149.5q0 -102 -30.5 -157t-85.5 -55q-56 0 -87 55t-31 150zM120 353q0 155 109.5 260t270.5 105t270.5 -105t109.5 -260t-109.5 -260
t-270.5 -105t-270.5 105t-109.5 260zM847 353q0 143 -100 240t-247 97t-247 -97t-100 -240t100 -240t247 -97t247 97t100 240z" />
    <glyph glyph-name="uni24FF" unicode="&#x24ff;" horiz-adv-x="1000" 
d="M553 343q0 -157 -51 -157q-53 0 -53 160q0 156 51 156q53 0 53 -159zM384 341q0 -95 31 -150t87 -55q55 0 85.5 55t30.5 157q0 95 -31 149.5t-87 54.5q-55 0 -85.5 -54.5t-30.5 -156.5zM120 353q0 155 109.5 260t270.5 105t270.5 -105t109.5 -260t-109.5 -260
t-270.5 -105t-270.5 105t-109.5 260z" />
    <glyph glyph-name="uni25A0" unicode="&#x25a0;" horiz-adv-x="957" 
d="M131 706h695v-706h-695v706z" />
    <glyph glyph-name="uni25A1" unicode="&#x25a1;" horiz-adv-x="957" 
d="M131 706h695v-706h-695v706zM776 46v614h-595v-614h595z" />
    <glyph glyph-name="circle" unicode="&#x25cb;" horiz-adv-x="957" 
d="M786 353q0 133 -89 224.5t-218 91.5q-130 0 -218.5 -91t-88.5 -225t88.5 -225t218.5 -91q129 0 218 91.5t89 224.5zM838 353q0 -155 -103.5 -260t-255.5 -105t-256 105.5t-104 259.5t104 259.5t256 105.5t255.5 -105t103.5 -260z" />
    <glyph glyph-name="uni25CF" unicode="&#x25cf;" horiz-adv-x="957" 
d="M119 353q0 154 104 259.5t256 105.5t255.5 -105t103.5 -260t-103.5 -260t-255.5 -105t-256 105.5t-104 259.5z" />
    <glyph glyph-name="uni2605" unicode="&#x2605;" horiz-adv-x="957" 
d="M475 719h8l90 -266h284l3 -8l-228 -167l97 -285l-7 -5l-243 178l-243 -178l-7 5l96 285l-227 167l3 8h283z" />
    <glyph glyph-name="uni2606" unicode="&#x2606;" horiz-adv-x="957" 
d="M639 102l4 4l-61 186l161 117l-2 5h-198l-61 179h-6l-61 -179h-197l-2 -5l160 -117l-61 -186l4 -4l160 119zM722 -12l-243 178l-243 -178l-7 5l97 285l-228 167l3 8h284l90 266h8l90 -266h284l3 -8l-228 -167l97 -285z" />
    <glyph glyph-name="uni2776" unicode="&#x2776;" horiz-adv-x="1000" 
d="M120 353q0 155 109.5 260t270.5 105t270.5 -105t109.5 -260t-109.5 -260t-270.5 -105t-270.5 105t-109.5 260zM397 143h204v50h-70v351l-30 4q-5 -3 -28 -13l-49.5 -21l-31.5 -13l9 -49h4l62 27v-286h-70v-50z" />
    <glyph glyph-name="uni2777" unicode="&#x2777;" horiz-adv-x="1000" 
d="M394 195l2 -52h212l2 55h-139v5q62 66 78 88q51 72 51 142q0 119 -112 119q-55 0 -100 -40l22 -42h5q28 28 61 28q58 0 58 -74q0 -56 -46 -119q-13 -17 -45 -52.5t-49 -57.5zM120 353q0 155 109.5 260t270.5 105t270.5 -105t109.5 -260t-109.5 -260t-270.5 -105
t-270.5 105t-109.5 260z" />
    <glyph glyph-name="uni2778" unicode="&#x2778;" horiz-adv-x="1000" 
d="M543 255q0 -67 -59 -67q-38 0 -66 31h-5l-22 -45q41 -38 106 -38q53 0 84 31t31 83q0 87 -78 103v4q31 8 50 33t19 62q0 100 -101 100q-60 0 -101 -39l21 -40h4q27 27 62 27q47 0 47 -61q0 -30 -16 -47.5t-43 -17.5h-24l2 -48h25q35 0 49.5 -17t14.5 -54zM120 353
q0 155 109.5 260t270.5 105t270.5 -105t109.5 -260t-109.5 -260t-270.5 -105t-270.5 105t-109.5 260z" />
    <glyph glyph-name="uni2779" unicode="&#x2779;" horiz-adv-x="1000" 
d="M506 238v-95h65v95h44l3 46h-48v261h-73l-127 -263l4 -44h132zM506 284h-85l83 188h2v-188zM120 353q0 155 109.5 260t270.5 105t270.5 -105t109.5 -260t-109.5 -260t-270.5 -105t-270.5 105t-109.5 260z" />
    <glyph glyph-name="uni277A" unicode="&#x277a;" horiz-adv-x="1000" 
d="M393 172q41 -36 100 -36q61 0 92.5 36.5t31.5 94.5q0 125 -104 125q-25 0 -41 -6l5 108h122l2 51h-175l-11 -203l13 -11q24 17 56 17q66 0 66 -82q0 -79 -64 -79q-40 0 -68 30h-5zM120 353q0 155 109.5 260t270.5 105t270.5 -105t109.5 -260t-109.5 -260t-270.5 -105
t-270.5 105t-109.5 260z" />
    <glyph glyph-name="uni277B" unicode="&#x277b;" horiz-adv-x="1000" 
d="M120 353q0 155 109.5 260t270.5 105t270.5 -105t109.5 -260t-109.5 -260t-270.5 -105t-270.5 105t-109.5 260zM610 270q0 128 -92 128q-40 0 -66 -29h-3q11 134 80 134q24 0 47 -17h5l20 42q-26 24 -77 24q-70 0 -107 -62.5t-37 -174.5q0 -83 31.5 -131t88.5 -48
q53 0 81.5 36.5t28.5 97.5zM500 184q47 0 47 86q0 82 -50 82q-30 0 -50 -25v-25q0 -118 53 -118z" />
    <glyph glyph-name="uni277C" unicode="&#x277c;" horiz-adv-x="1000" 
d="M491 143l133 349l-3 53h-216l-2 -55h155l-135 -341v-6h68zM120 353q0 155 109.5 260t270.5 105t270.5 -105t109.5 -260t-109.5 -260t-270.5 -105t-270.5 105t-109.5 260z" />
    <glyph glyph-name="uni277D" unicode="&#x277d;" horiz-adv-x="1000" 
d="M120 353q0 155 109.5 260t270.5 105t270.5 -105t109.5 -260t-109.5 -260t-270.5 -105t-270.5 105t-109.5 260zM500 136q58 0 87 29.5t29 81.5q0 72 -67 109v5q26 10 41 36t15 59q0 46 -26.5 71t-76.5 25t-79.5 -28.5t-29.5 -77.5q1 -69 57 -104v-4q-31 -11 -48.5 -37
t-17.5 -59q0 -50 30.5 -78t85.5 -28zM452 451q0 25 12.5 40t35.5 15q50 0 50 -58q0 -52 -38 -73q-30 15 -45 32t-15 44zM499 183q-58 0 -58 63q0 54 45 77q37 -18 53 -36t16 -46q0 -58 -56 -58z" />
    <glyph glyph-name="uni277E" unicode="&#x277e;" horiz-adv-x="1000" 
d="M120 353q0 155 109.5 260t270.5 105t270.5 -105t109.5 -260t-109.5 -260t-270.5 -105t-270.5 105t-109.5 260zM486 136q67 0 101 61t34 168q0 88 -31 137.5t-88 49.5q-53 0 -82.5 -39.5t-29.5 -100.5q0 -56 25 -89.5t72 -33.5q38 0 61 29h4q-4 -65 -21.5 -98t-54.5 -33
q-30 0 -54 20h-5l-19 -44q31 -27 88 -27zM506 334q-53 0 -53 83q0 39 12.5 63.5t36.5 24.5q52 0 52 -123v-22q-22 -26 -48 -26z" />
    <glyph glyph-name="zero.tab" unicode="&#xe44f;" horiz-adv-x="600" 
d="M49 349q0 178 66 273.5t183 95.5q121 0 187 -96t66 -264q0 -179 -65.5 -274.5t-183.5 -95.5q-121 0 -187 96.5t-66 264.5zM448 352q0 292 -150 292q-147 0 -147 -289q0 -293 151 -293q146 0 146 290z" />
    <glyph glyph-name="one.tab" unicode="&#xe450;" horiz-adv-x="600" 
d="M93 75h165v533l-157 -51h-11l-13 73q7 3 65.5 22.5l106.5 36.5t58 22l49 -6v-630h163v-75h-426v75z" />
    <glyph glyph-name="two.tab" unicode="&#xe451;" horiz-adv-x="600" 
d="M251 639q-91 0 -156 -53h-10l-34 62q91 70 211 70q115 0 176.5 -51t61.5 -153q0 -68 -30 -129t-95 -128q-59 -60 -197 -166v-9h346l-4 -82h-460l-5 79q41 37 120.5 103.5t110.5 98.5q61 64 86.5 113t25.5 107q0 138 -147 138z" />
    <glyph glyph-name="three.tab" unicode="&#xe452;" horiz-adv-x="600" 
d="M420 192q0 71 -37.5 103.5t-128.5 32.5h-67l-5 73h64q70 0 108.5 33.5t38.5 89.5q0 57 -31.5 87t-92.5 30q-93 0 -152 -51h-9l-36 60q38 30 94.5 49t117.5 19q102 0 157.5 -45t55.5 -131q0 -65 -40 -109t-104 -59v-5q172 -26 172 -181q0 -91 -66 -145.5t-182 -54.5
q-137 0 -222 66l39 66h9q68 -57 158 -57q159 0 159 129z" />
    <glyph glyph-name="four.tab" unicode="&#xe453;" horiz-adv-x="600" 
d="M347 173h-317l-6 67l308 466h111v-465h123l-7 -68h-115v-173h-97v173zM347 241v358h-3l-239 -358h242z" />
    <glyph glyph-name="five.tab" unicode="&#xe454;" horiz-adv-x="600" 
d="M42 50l35 66h7q27 -23 74 -38.5t91 -15.5q84 0 126.5 41t42.5 110q0 155 -171 155q-68 0 -132 -30l-24 19l23 349h369l-3 -76h-285l-15 -208q42 14 109 14q105 0 167.5 -52t62.5 -169q0 -100 -67.5 -163.5t-195.5 -63.5q-125 0 -214 62z" />
    <glyph glyph-name="six.tab" unicode="&#xe455;" horiz-adv-x="600" 
d="M57 299q0 196 78 307.5t231 111.5q102 0 159 -40l-33 -63h-10q-58 31 -112 31q-95 0 -143.5 -65t-61.5 -189h6q60 55 162 55q107 0 161 -57.5t54 -166.5q0 -107 -62.5 -171t-170.5 -64q-123 0 -190.5 83.5t-67.5 227.5zM306 377q-84 0 -145 -52q-1 -14 -1 -43
q0 -105 39.5 -163.5t115.5 -58.5q64 0 99 43t35 118q0 76 -33 116t-110 40z" />
    <glyph glyph-name="seven.tab" unicode="&#xe456;" horiz-adv-x="600" 
d="M219 0h-106l1 11l330 612h-378l4 83h471l4 -80z" />
    <glyph glyph-name="eight.tab" unicode="&#xe457;" horiz-adv-x="601" 
d="M389 379v-6q79 -34 119.5 -79.5t40.5 -113.5q0 -90 -62 -141t-184 -51q-119 0 -183.5 49.5t-64.5 136.5q0 60 38.5 106.5t115.5 65.5v7q-131 64 -132 183q0 83 63 132.5t165 49.5q107 0 163 -43t56 -124q0 -62 -34.5 -108t-100.5 -64zM451 170q0 54 -40.5 88.5
t-132.5 67.5q-130 -40 -130 -146q0 -121 154 -121q149 0 149 111zM171 544q0 -52 37.5 -84.5t110.5 -60.5q52 18 84 55.5t32 84.5q0 108 -135 108q-60 0 -94.5 -28t-34.5 -75z" />
    <glyph glyph-name="nine.tab" unicode="&#xe458;" horiz-adv-x="601" 
d="M74 32l32 64h10q50 -34 125 -34q95 0 140.5 64t56.5 187h-8q-58 -56 -154 -56q-108 0 -165.5 59.5t-57.5 158.5q0 106 64.5 174.5t174.5 68.5q121 0 186.5 -87t65.5 -242q0 -187 -72.5 -294t-221.5 -107q-113 0 -176 44zM304 327q76 0 137 54q0 5 0.5 16t0.5 17
q0 112 -38 172t-112 60q-66 0 -103 -46t-37 -120q0 -153 152 -153z" />
    <glyph glyph-name="cent.tab" unicode="&#xe459;" horiz-adv-x="600" 
d="M506 121l33 -60q-79 -72 -206 -72h-4l-12 -113h-65l13 120q-94 19 -147.5 90.5t-53.5 178.5q0 123 78 194.5t183 75.5l13 113h67l-14 -117q81 -10 131 -51l-32 -65h-13q-37 33 -94 43l-44 -394h9q88 0 145 57h13zM165 267q0 -152 110 -191l43 384q-64 -8 -108.5 -57.5
t-44.5 -135.5z" />
    <glyph glyph-name="dollar.tab" unicode="&#xe45a;" horiz-adv-x="600" 
d="M533 187q0 -93 -63.5 -145.5t-183.5 -53.5l-12 -97h-67l13 102q-113 18 -174 70l37 62h11q51 -42 136 -57l35 261q-99 37 -147 81.5t-48 122.5q0 89 70 137t179 48l12 97h69l-13 -103q77 -14 133 -56l-34 -64h-11q-42 33 -98 46l-31 -242q101 -41 144 -83.5t43 -125.5z
M443 178q0 48 -28.5 75.5t-86.5 51.5l-32 -243q147 2 147 116zM160 547q0 -49 27 -73t97 -53l27 225q-67 -1 -109 -27t-42 -72z" />
    <glyph glyph-name="Euro.tab" unicode="&#xe45b;" horiz-adv-x="600" 
d="M110 354q0 30 1 45h-77l4 63h81q21 119 89.5 187.5t179.5 68.5q112 0 181 -61l-37 -62h-9q-46 49 -128 49q-145 0 -176 -182h211l-6 -63h-212q-1 -15 -1 -45q0 -33 1 -48h174l-4 -64h-164q30 -178 176 -178q88 0 147 61h11l33 -57q-69 -79 -199 -79q-107 0 -176 66
t-91 187h-85l4 64h73q-1 15 -1 48z" />
    <glyph glyph-name="at.sc" unicode="&#xf60b;" horiz-adv-x="1007" 
d="M274 214q0 135 81 216t216 82q70 0 137 -23l-62 -312q-9 -46 10.5 -64t62.5 -18q82 0 125 66t43 175q0 149 -95.5 236.5t-257.5 87.5q-181 0 -296 -111t-115 -288q0 -184 110.5 -287t296.5 -103q188 0 296 91h12l26 -46q-51 -49 -142 -76.5t-193 -27.5q-221 0 -348.5 119
t-127.5 331q0 201 138 328t344 127q191 0 306.5 -104.5t115.5 -275.5q0 -139 -67 -221t-187 -82q-113 0 -139 75h-10q-54 -72 -132 -72q-69 0 -108.5 48.5t-39.5 128.5zM448 101q32 0 61.5 20t44.5 46l58 276q-22 8 -53 8q-133 -2 -180 -136q-17 -48 -17 -101
q0 -52 22 -82.5t64 -30.5z" />
    <glyph glyph-name="braceleft.sc" unicode="&#xf60c;" horiz-adv-x="372" 
d="M150 17v136q0 47 -18.5 70t-61.5 23h-30v67h30q43 0 61.5 22.5t18.5 70.5v136q0 149 171 149h28v-63h-13q-55 0 -75 -23t-20 -69v-137q0 -52 -30 -82.5t-72 -33.5v-7q42 -3 72 -33.5t30 -82.5v-136q0 -46 20 -69t75 -23h13v-64h-28q-171 0 -171 149z" />
    <glyph glyph-name="braceright.sc" unicode="&#xf60d;" horiz-adv-x="372" 
d="M222 153v-136q0 -149 -171 -149h-28v64h13q55 0 75 23t20 69v136q0 52 30 82.5t72 33.5v7q-42 3 -72 33.5t-30 82.5v137q0 46 -20 69t-75 23h-13v63h28q171 0 171 -149v-136q0 -48 18.5 -70.5t61.5 -22.5h30v-67h-30q-43 0 -61.5 -23t-18.5 -70z" />
    <glyph glyph-name="bracketleft.sc" unicode="&#xf60e;" horiz-adv-x="328" 
d="M74 691h232v-66h-140v-692h140v-65h-232v823z" />
    <glyph glyph-name="bracketright.sc" unicode="&#xf60f;" horiz-adv-x="328" 
d="M23 691h232v-823h-232v65h140v692h-140v66z" />
    <glyph glyph-name="guilsinglleft.sc" unicode="&#xf610;" horiz-adv-x="299" 
d="M47 252v20l129 176h77v-11l-114 -175l114 -180v-10h-76z" />
    <glyph glyph-name="guillemotleft.sc" unicode="&#xf611;" horiz-adv-x="493" 
d="M370 72l-130 180v20l129 176h77v-11l-114 -175l114 -180v-10h-76zM47 252v20l129 176h77v-11l-114 -175l114 -180v-10h-76z" />
    <glyph glyph-name="guillemotright.sc" unicode="&#xf612;" horiz-adv-x="493" 
d="M122 72h-76v10l114 180l-114 175v11h77l129 -176v-20zM446 252l-130 -180h-76v10l114 180l-114 175v11h77l129 -176v-20z" />
    <glyph glyph-name="guilsinglright.sc" unicode="&#xf613;" horiz-adv-x="299" 
d="M252 252l-130 -180h-76v10l114 180l-114 175v11h77l129 -176v-20z" />
    <glyph glyph-name="hyphen.sc" unicode="&#xf614;" horiz-adv-x="420" 
d="M66 236v77h289v-77h-289z" />
    <glyph glyph-name="parenleft.sc" unicode="&#xf618;" horiz-adv-x="330" 
d="M74 282q0 233 152 409h73v-12q-124 -179 -124 -398q0 -226 124 -402v-11h-75q-150 169 -150 414z" />
    <glyph glyph-name="parenright.sc" unicode="&#xf619;" horiz-adv-x="330" 
d="M256 282q0 -245 -150 -414h-75v11q124 176 124 402q0 219 -124 398v12h73q152 -176 152 -409z" />
    <glyph glyph-name="AEacute.sc" unicode="&#xf624;" horiz-adv-x="788" 
d="M309 574h435l-4 -75h-265v-168h203l-2 -71h-201v-186h274l-4 -74h-371v154h-190l-80 -154h-95v8zM367 503l-147 -276h154v276h-7zM568 785l-110 -140h-77v9l94 140h93v-9z" />
    <glyph glyph-name="Oslashacute.sc" unicode="&#xf627;" horiz-adv-x="632" 
d="M40 285q0 132 74.5 215.5t201.5 83.5q101 0 175 -61l45 51h68v-7l-73 -86q62 -79 62 -192q0 -131 -75 -215t-202 -84q-97 0 -169 56l-41 -46h-67v8l67 78q-66 82 -66 199zM141 287q0 -81 24 -133l275 307q-44 52 -124 52q-83 0 -129 -60t-46 -166zM491 286q0 69 -21 124
l-272 -304q44 -45 119 -45q84 0 129 59t45 166zM454 784l-110 -140h-77v9l94 140h93v-9z" />
    <glyph glyph-name="Ccircumflex.sc" unicode="&#xf628;" horiz-adv-x="543" 
d="M40 288q0 135 77.5 215.5t212.5 80.5q110 0 178 -61l-37 -66h-10q-51 49 -131 49q-91 0 -138.5 -57.5t-47.5 -159.5t47.5 -161.5t135.5 -59.5q81 0 136 51h12l39 -59q-74 -70 -193 -70q-134 0 -207.5 82t-73.5 216zM449 657v-8h-75l-66 79l-65 -79h-75v8l100 127h80z" />
    <glyph glyph-name="Cdotaccent.sc" unicode="&#xf629;" horiz-adv-x="543" 
d="M40 288q0 135 77.5 215.5t212.5 80.5q110 0 178 -61l-37 -66h-10q-51 49 -131 49q-91 0 -138.5 -57.5t-47.5 -159.5t47.5 -161.5t135.5 -59.5q81 0 136 51h12l39 -59q-74 -70 -193 -70q-134 0 -207.5 82t-73.5 216zM253 719q0 24 16 39.5t40 15.5t40.5 -15.5t16.5 -39.5
q0 -25 -16 -40t-41 -15q-24 0 -40 15t-16 40z" />
    <glyph glyph-name="Ebreve.sc" unicode="&#xf62a;" horiz-adv-x="479" 
d="M371 331l-3 -71h-202v-186h275l-4 -74h-372v574h372l-5 -75h-266v-168h205zM116 783h65q2 -37 22 -56.5t51 -19.5q30 0 50.5 19.5t21.5 56.5h66q0 -64 -36.5 -101.5t-101.5 -37.5q-66 0 -102 37t-36 102z" />
    <glyph glyph-name="Eng.sc" unicode="&#xf62b;" horiz-adv-x="599" 
d="M400 -150q-52 0 -86 17l16 64h9q22 -12 47 -12q34 0 47.5 16t13.5 52v15l-291 444h-6l2 -446h-87v574h106l271 -407h6l-1 407h86v-589q0 -135 -133 -135z" />
    <glyph glyph-name="Gcircumflex.sc" unicode="&#xf62c;" horiz-adv-x="575" 
d="M335 507q-94 0 -143 -58.5t-49 -162.5q0 -106 49.5 -163.5t140.5 -57.5q63 0 110 25v132h-138v70h223v-249q-89 -53 -203 -53q-134 0 -209.5 82t-75.5 214q0 136 78.5 217t213.5 81q114 0 187 -56l-36 -67h-11q-55 46 -137 46zM457 657v-8h-75l-66 79l-65 -79h-75v8
l100 127h80z" />
    <glyph glyph-name="Gdotaccent.sc" unicode="&#xf62d;" horiz-adv-x="575" 
d="M335 507q-94 0 -143 -58.5t-49 -162.5q0 -106 49.5 -163.5t140.5 -57.5q63 0 110 25v132h-138v70h223v-249q-89 -53 -203 -53q-134 0 -209.5 82t-75.5 214q0 136 78.5 217t213.5 81q114 0 187 -56l-36 -67h-11q-55 46 -137 46zM261 719q0 24 16 39.5t40 15.5t40.5 -15.5
t16.5 -39.5q0 -25 -16 -40t-41 -15q-24 0 -40 15t-16 40z" />
    <glyph glyph-name="Hbar.sc" unicode="&#xf62e;" horiz-adv-x="625" 
d="M176 0h-99v426h-66v52h66v96h100v-96h271v96h100v-96h65v-52h-65v-426h-99v260h-273v-260zM177 339h271v87h-271v-87z" />
    <glyph glyph-name="Hcircumflex.sc" unicode="&#xf62f;" horiz-adv-x="602" 
d="M166 0h-101v574h101v-235h270v235h101v-574h-100v260h-271v-260zM443 657v-8h-75l-66 79l-65 -79h-75v8l100 127h80z" />
    <glyph glyph-name="Ibreve.sc" unicode="&#xf630;" horiz-adv-x="230" 
d="M166 0h-102v574h102v-574zM-21 783h65q2 -37 22 -56.5t51 -19.5q30 0 50.5 19.5t21.5 56.5h66q0 -64 -36.5 -101.5t-101.5 -37.5q-66 0 -102 37t-36 102z" />
    <glyph glyph-name="IJ.sc" unicode="&#xf631;" horiz-adv-x="564" 
d="M166 0h-102v574h102v-574zM403 136v438h101v-445q0 -68 -39.5 -103.5t-110.5 -35.5q-62 0 -110 29l27 69h10q25 -20 55 -20q37 0 52 15t15 53z" />
    <glyph glyph-name="Itilde.sc" unicode="&#xf632;" horiz-adv-x="230" 
d="M166 0h-102v574h102v-574zM58 715q-35 0 -39 -54h-53v11q0 52 24.5 78.5t63.5 26.5q35 0 72 -28.5t54 -28.5q36 0 37 53h53v-12q0 -105 -81 -105q-36 0 -76 29.5t-55 29.5z" />
    <glyph glyph-name="Jcircumflex.sc" unicode="&#xf633;" horiz-adv-x="331" 
d="M170 136v438h101v-445q0 -68 -39.5 -103.5t-110.5 -35.5q-62 0 -110 29l27 69h10q25 -20 55 -20q37 0 52 15t15 53zM362 657v-8h-75l-66 79l-65 -79h-75v8l100 127h80z" />
    <glyph glyph-name="Ldot.sc" unicode="&#xf634;" horiz-adv-x="463" 
d="M165 574v-495h272l-4 -79h-369v574h101zM294 290q0 24 15 39t37 15t37.5 -15t15.5 -39t-15.5 -38.5t-37.5 -14.5t-37 14.5t-15 38.5z" />
    <glyph glyph-name="Obreve.sc" unicode="&#xf635;" horiz-adv-x="631" 
d="M315 62q82 0 127 59.5t45 165.5t-45.5 165.5t-126.5 59.5t-126 -60t-45 -165q0 -106 45 -165.5t126 -59.5zM315 584q126 0 201 -84t75 -212q0 -130 -74.5 -213.5t-201.5 -84.5q-126 0 -200.5 83.5t-74.5 212.5q0 130 74.5 214t200.5 84zM179 783h65q2 -37 22 -56.5
t51 -19.5q30 0 50.5 19.5t21.5 56.5h66q0 -64 -36.5 -101.5t-101.5 -37.5q-66 0 -102 37t-36 102z" />
    <glyph glyph-name="Scircumflex.sc" unicode="&#xf636;" horiz-adv-x="469" 
d="M424 527l-37 -63h-12q-50 46 -126 46q-49 0 -75.5 -18.5t-26.5 -52.5q0 -40 22.5 -58.5t93.5 -44.5q97 -36 136 -73.5t39 -106.5q0 -80 -51 -123t-155 -43q-56 0 -111 20t-90 51l37 63h12q66 -63 149 -63q64 0 89 20t25 61q0 39 -27 61.5t-106 51.5q-87 31 -122 69
t-35 102q0 74 54 116t143 42q105 0 174 -57zM387 657v-8h-75l-66 79l-65 -79h-75v8l100 127h80z" />
    <glyph glyph-name="Tbar.sc" unicode="&#xf637;" horiz-adv-x="506" 
d="M489 574l3 -78h-189v-152h117v-64h-117v-280h-100v280h-117v64h117v152h-188l3 78h471z" />
    <glyph glyph-name="Ubreve.sc" unicode="&#xf638;" horiz-adv-x="595" 
d="M298 62q66 0 101.5 33t35.5 110v369h100v-364q0 -114 -64 -167t-173 -53q-110 0 -174 53t-64 167v364h102v-369q0 -77 34.5 -110t101.5 -33zM161 783h65q2 -37 22 -56.5t51 -19.5q30 0 50.5 19.5t21.5 56.5h66q0 -64 -36.5 -101.5t-101.5 -37.5q-66 0 -102 37t-36 102z
" />
    <glyph glyph-name="Utilde.sc" unicode="&#xf639;" horiz-adv-x="595" 
d="M298 62q66 0 101.5 33t35.5 110v369h100v-364q0 -114 -64 -167t-173 -53q-110 0 -174 53t-64 167v364h102v-369q0 -77 34.5 -110t101.5 -33zM240 715q-35 0 -39 -54h-53v11q0 52 24.5 78.5t63.5 26.5q35 0 72 -28.5t54 -28.5q36 0 37 53h53v-12q0 -105 -81 -105
q-36 0 -76 29.5t-55 29.5z" />
    <glyph glyph-name="Wacute.sc" unicode="&#xf63a;" horiz-adv-x="796" 
d="M441 574l119 -447h8l108 447h91v-9l-146 -565h-103l-119 422h-4l-116 -422h-103l-147 565v9h94l109 -447h7l120 447h82zM538 785l-110 -140h-77v9l94 140h93v-9z" />
    <glyph glyph-name="Wcircumflex.sc" unicode="&#xf63b;" horiz-adv-x="796" 
d="M441 574l119 -447h8l108 447h91v-9l-146 -565h-103l-119 422h-4l-116 -422h-103l-147 565v9h94l109 -447h7l120 447h82zM540 657v-8h-75l-66 79l-65 -79h-75v8l100 127h80z" />
    <glyph glyph-name="Wdieresis.sc" unicode="&#xf63c;" horiz-adv-x="796" 
d="M488 763q20 0 34 -14t14 -35q0 -22 -14 -35.5t-34 -13.5q-21 0 -35 13.5t-14 35.5q0 21 14 35t35 14zM314 763q20 0 34 -14t14 -35q0 -22 -14 -35.5t-34 -13.5q-21 0 -35 13.5t-14 35.5q0 21 14 35t35 14zM441 574l119 -447h8l108 447h91v-9l-146 -565h-103l-119 422h-4
l-116 -422h-103l-147 565v9h94l109 -447h7l120 447h82z" />
    <glyph glyph-name="Wgrave.sc" unicode="&#xf63d;" horiz-adv-x="796" 
d="M441 574l119 -447h8l108 447h91v-9l-146 -565h-103l-119 422h-4l-116 -422h-103l-147 565v9h94l109 -447h7l120 447h82zM268 785v9h94l94 -140v-9h-78z" />
    <glyph glyph-name="Ycircumflex.sc" unicode="&#xf63e;" horiz-adv-x="507" 
d="M204 231l-196 335v8h105l147 -262h7l144 262h88v-8l-193 -335v-231h-102v231zM398 657v-8h-75l-66 79l-65 -79h-75v8l100 127h80z" />
    <glyph glyph-name="Ygrave.sc" unicode="&#xf63f;" horiz-adv-x="507" 
d="M204 231l-196 335v8h105l147 -262h7l144 262h88v-8l-193 -335v-231h-102v231zM126 785v9h94l94 -140v-9h-78z" />
    <glyph glyph-name="Abreve.sc" unicode="&#xf640;" horiz-adv-x="579" 
d="M452 0l-52 150h-234l-52 -150h-94v8l212 566h114l212 -566v-8h-106zM281 466l-90 -241h186l-89 241h-7zM152 783h65q2 -37 22 -56.5t51 -19.5q30 0 50.5 19.5t21.5 56.5h66q0 -64 -36.5 -101.5t-101.5 -37.5q-66 0 -102 37t-36 102z" />
    <glyph glyph-name="Amacron.sc" unicode="&#xf641;" horiz-adv-x="579" 
d="M452 0l-52 150h-234l-52 -150h-94v8l212 566h114l212 -566v-8h-106zM281 466l-90 -241h186l-89 241h-7zM160 750h261v-69h-261v69z" />
    <glyph glyph-name="Aogonek.sc" unicode="&#xf642;" horiz-adv-x="579" 
d="M452 0l-52 150h-234l-52 -150h-94v8l212 566h114l212 -566v-7l4 -1q-59 -28 -80 -53t-21 -56q0 -25 15 -39t41 -14q25 0 42 8h9l11 -44q-25 -20 -79 -20q-53 0 -83.5 26t-30.5 69q0 77 93 118v5h-27zM281 466l-90 -241h186l-89 241h-7z" />
    <glyph glyph-name="Cacute.sc" unicode="&#xf643;" horiz-adv-x="543" 
d="M447 785l-110 -140h-77v9l94 140h93v-9zM40 288q0 135 77.5 215.5t212.5 80.5q110 0 178 -61l-37 -66h-10q-51 49 -131 49q-91 0 -138.5 -57.5t-47.5 -159.5t47.5 -161.5t135.5 -59.5q81 0 136 51h12l39 -59q-74 -70 -193 -70q-134 0 -207.5 82t-73.5 216z" />
    <glyph glyph-name="Ccaron.sc" unicode="&#xf644;" horiz-adv-x="543" 
d="M40 288q0 135 77.5 215.5t212.5 80.5q110 0 178 -61l-37 -66h-10q-51 49 -131 49q-91 0 -138.5 -57.5t-47.5 -159.5t47.5 -161.5t135.5 -59.5q81 0 136 51h12l39 -59q-74 -70 -193 -70q-134 0 -207.5 82t-73.5 216zM449 776l-101 -127h-80l-101 127v8h75l66 -80l66 80h75
v-8z" />
    <glyph glyph-name="Dcaron.sc" unicode="&#xf645;" horiz-adv-x="588" 
d="M64 0v574h178q306 0 306 -285q0 -142 -74.5 -215.5t-220.5 -73.5h-189zM247 73q104 0 150 50.5t46 166.5q0 109 -47 160t-150 51h-82v-428h83zM429 776l-101 -127h-80l-101 127v8h75l66 -80l66 80h75v-8z" />
    <glyph glyph-name="Dcroat.sc" unicode="&#xf646;" horiz-adv-x="615" 
d="M91 0v254h-65v66h65v254h177q307 0 307 -285q0 -142 -74.5 -215.5t-221.5 -73.5h-188zM274 73q104 0 150 50.5t46 166.5q0 109 -47 160t-151 51h-82v-181h127v-66h-127v-181h84z" />
    <glyph glyph-name="Ecaron.sc" unicode="&#xf647;" horiz-adv-x="479" 
d="M371 331l-3 -71h-202v-186h275l-4 -74h-372v574h372l-5 -75h-266v-168h205zM394 776l-101 -127h-80l-101 127v8h75l66 -80l66 80h75v-8z" />
    <glyph glyph-name="Edotaccent.sc" unicode="&#xf648;" horiz-adv-x="479" 
d="M198 719q0 24 16 39.5t40 15.5t40.5 -15.5t16.5 -39.5q0 -25 -16 -40t-41 -15q-24 0 -40 15t-16 40zM371 331l-3 -71h-202v-186h275l-4 -74h-372v574h372l-5 -75h-266v-168h205z" />
    <glyph glyph-name="Emacron.sc" unicode="&#xf649;" horiz-adv-x="479" 
d="M124 750h261v-69h-261v69zM371 331l-3 -71h-202v-186h275l-4 -74h-372v574h372l-5 -75h-266v-168h205z" />
    <glyph glyph-name="Eogonek.sc" unicode="&#xf64a;" horiz-adv-x="479" 
d="M370 331l-3 -71h-202v-186h275l-4 -74h-43q-59 -28 -80 -53t-21 -56q0 -25 15 -39t41 -14q25 0 42 8h9l11 -44q-25 -20 -79 -20q-53 0 -83.5 26t-30.5 69q0 77 93 118v5h-246v574h372l-5 -75h-266v-168h205z" />
    <glyph glyph-name="Gbreve.sc" unicode="&#xf64b;" horiz-adv-x="575" 
d="M335 507q-94 0 -143 -58.5t-49 -162.5q0 -106 49.5 -163.5t140.5 -57.5q63 0 110 25v132h-138v70h223v-249q-89 -53 -203 -53q-134 0 -209.5 82t-75.5 214q0 136 78.5 217t213.5 81q114 0 187 -56l-36 -67h-11q-55 46 -137 46zM179 783h65q2 -37 22 -56.5t51 -19.5
q30 0 50.5 19.5t21.5 56.5h66q0 -64 -36.5 -101.5t-101.5 -37.5q-66 0 -102 37t-36 102z" />
    <glyph glyph-name="Gcommaaccent.sc" unicode="&#xf64c;" horiz-adv-x="575" 
d="M335 507q-94 0 -143 -58.5t-49 -162.5q0 -106 49.5 -163.5t140.5 -57.5q63 0 110 25v132h-138v70h223v-249q-89 -53 -203 -53q-134 0 -209.5 82t-75.5 214q0 136 78.5 217t213.5 81q114 0 187 -56l-36 -67h-11q-55 46 -137 46zM269 -54h92l-42 -162h-77z" />
    <glyph glyph-name="Imacron.sc" unicode="&#xf64d;" horiz-adv-x="230" 
d="M17 748h196v-71h-196v71zM164 0h-102v574h102v-574z" />
    <glyph glyph-name="Iogonek.sc" unicode="&#xf64e;" horiz-adv-x="230" 
d="M3 -123q0 79 87 118v5h-28v574h102v-574h1q-51 -28 -69 -52.5t-18 -56.5q0 -53 49 -53q22 0 35 8h8l11 -44q-23 -20 -74 -20q-48 0 -76 26.5t-28 68.5z" />
    <glyph glyph-name="Kcommaaccent.sc" unicode="&#xf64f;" horiz-adv-x="529" 
d="M65 574h101v-260h8l225 260h102v-8l-213 -240l224 -317v-9h-107l-190 263l-50 -54v-209h-100v574zM229 -55h92l-42 -162h-77z" />
    <glyph glyph-name="Lacute.sc" unicode="&#xf650;" horiz-adv-x="463" 
d="M165 574v-495h272l-4 -79h-369v574h101zM256 785l-110 -140h-77v9l94 140h93v-9z" />
    <glyph glyph-name="Lcaron.sc" unicode="&#xf651;" horiz-adv-x="463" 
d="M165 574v-495h272l-4 -79h-369v574h101zM285 574h86l-39 -197h-70z" />
    <glyph glyph-name="Lcommaaccent.sc" unicode="&#xf652;" horiz-adv-x="463" 
d="M165 574v-495h272l-4 -79h-369v574h101zM212 -55h92l-42 -162h-77z" />
    <glyph glyph-name="Nacute.sc" unicode="&#xf653;" horiz-adv-x="597" 
d="M436 785l-110 -140h-77v9l94 140h93v-9zM532 0h-94l-283 446h-6q0 -6 1 -222.5t1 -223.5h-87v574h106l270 -417h7q0 391 -2 417h87v-574z" />
    <glyph glyph-name="Ncaron.sc" unicode="&#xf654;" horiz-adv-x="597" 
d="M532 0h-94l-283 446h-6q0 -6 1 -222.5t1 -223.5h-87v574h106l270 -417h7q0 391 -2 417h87v-574zM438 776l-101 -127h-80l-101 127v8h75l66 -80l66 80h75v-8z" />
    <glyph glyph-name="Ncommaaccent.sc" unicode="&#xf655;" horiz-adv-x="597" 
d="M261 -55h92l-42 -162h-77zM532 0h-94l-283 446h-6q0 -6 1 -222.5t1 -223.5h-87v574h106l270 -417h7q0 391 -2 417h87v-574z" />
    <glyph glyph-name="Ohungarumlaut.sc" unicode="&#xf656;" horiz-adv-x="631" 
d="M315 62q82 0 127 59.5t45 165.5t-45.5 165.5t-126.5 59.5t-126 -60t-45 -165q0 -106 45 -165.5t126 -59.5zM315 584q126 0 201 -84t75 -212q0 -130 -74.5 -213.5t-201.5 -84.5q-126 0 -200.5 83.5t-74.5 212.5q0 130 74.5 214t200.5 84zM202 659l40 144h78v-10l-52 -146
h-67zM351 659l48 144h80v-10l-61 -146h-67v12z" />
    <glyph glyph-name="Omacron.sc" unicode="&#xf657;" horiz-adv-x="631" 
d="M315 62q82 0 127 59.5t45 165.5t-45.5 165.5t-126.5 59.5t-126 -60t-45 -165q0 -106 45 -165.5t126 -59.5zM315 584q126 0 201 -84t75 -212q0 -130 -74.5 -213.5t-201.5 -84.5q-126 0 -200.5 83.5t-74.5 212.5q0 130 74.5 214t200.5 84zM187 750h261v-69h-261v69z" />
    <glyph glyph-name="Racute.sc" unicode="&#xf658;" horiz-adv-x="527" 
d="M397 785l-110 -140h-77v9l94 140h93v-9zM480 402q0 -65 -36 -105t-96 -54l145 -234v-9h-109l-133 225h-86v-225h-101v574h201q102 0 158.5 -43t56.5 -129zM250 504h-85v-210h82q66 0 98 24.5t32 81.5q0 104 -127 104z" />
    <glyph glyph-name="Rcaron.sc" unicode="&#xf659;" horiz-adv-x="527" 
d="M480 402q0 -65 -36 -105t-96 -54l145 -234v-9h-109l-133 225h-86v-225h-101v574h201q102 0 158.5 -43t56.5 -129zM250 504h-85v-210h82q66 0 98 24.5t32 81.5q0 104 -127 104zM399 776l-101 -127h-80l-101 127v8h75l66 -80l66 80h75v-8z" />
    <glyph glyph-name="Rcommaaccent.sc" unicode="&#xf65a;" horiz-adv-x="527" 
d="M227 -55h92l-42 -162h-77zM480 402q0 -65 -36 -105t-96 -54l145 -234v-9h-109l-133 225h-86v-225h-101v574h201q102 0 158.5 -43t56.5 -129zM250 504h-85v-210h82q66 0 98 24.5t32 81.5q0 104 -127 104z" />
    <glyph glyph-name="Sacute.sc" unicode="&#xf65b;" horiz-adv-x="469" 
d="M384 785l-110 -140h-77v9l94 140h93v-9zM424 527l-37 -63h-12q-50 46 -126 46q-49 0 -75.5 -18.5t-26.5 -52.5q0 -40 22.5 -58.5t93.5 -44.5q97 -36 136 -73.5t39 -106.5q0 -80 -51 -123t-155 -43q-56 0 -111 20t-90 51l37 63h12q66 -63 149 -63q64 0 89 20t25 61
q0 39 -27 61.5t-106 51.5q-87 31 -122 69t-35 102q0 74 54 116t143 42q105 0 174 -57z" />
    <glyph glyph-name="Scedilla.sc" unicode="&#xf65c;" horiz-adv-x="469" 
d="M119 -213l20 40h10q25 -16 53 -16q57 0 57 43q0 22 -14.5 32.5t-48.5 10.5q-9 0 -23 -2l-6 5l40 91q-51 4 -98.5 23.5t-77.5 46.5l37 63h12q66 -63 149 -63q64 0 89 20t25 61q0 39 -27 61.5t-106 51.5q-87 31 -122 69t-35 102q0 74 54 116t143 42q105 0 174 -57l-37 -63
h-12q-50 46 -126 46q-49 0 -75.5 -18.5t-26.5 -52.5q0 -40 22.5 -58.5t93.5 -44.5q97 -36 136 -73.5t39 -106.5q0 -152 -175 -165l-23 -50q45 -3 70 -27.5t25 -60.5q0 -42 -31.5 -67t-83.5 -25q-64 0 -101 26z" />
    <glyph glyph-name="Scommaaccent.sc" unicode="&#xf65d;" horiz-adv-x="469" 
d="M200 -55h92l-42 -162h-77zM424 527l-37 -63h-12q-50 46 -126 46q-49 0 -75.5 -18.5t-26.5 -52.5q0 -40 22.5 -58.5t93.5 -44.5q97 -36 136 -73.5t39 -106.5q0 -80 -51 -123t-155 -43q-56 0 -111 20t-90 51l37 63h12q66 -63 149 -63q64 0 89 20t25 61q0 39 -27 61.5
t-106 51.5q-87 31 -122 69t-35 102q0 74 54 116t143 42q105 0 174 -57z" />
    <glyph glyph-name="Tcaron.sc" unicode="&#xf65e;" horiz-adv-x="506" 
d="M489 574l3 -78h-188v-496h-102v496h-187l3 78h471zM394 776l-101 -127h-80l-101 127v8h75l66 -80l66 80h75v-8z" />
    <glyph glyph-name="Tcommaaccent.sc" unicode="&#xf65f;" horiz-adv-x="506" 
d="M489 574l3 -78h-188v-496h-102v496h-187l3 78h471zM216 -55h92l-42 -162h-77z" />
    <glyph glyph-name="Uhungarumlaut.sc" unicode="&#xf660;" horiz-adv-x="595" 
d="M184 659l40 144h78v-10l-52 -146h-67zM333 659l48 144h80v-10l-61 -146h-67v12zM298 62q66 0 101.5 33t35.5 110v369h100v-364q0 -114 -64 -167t-173 -53q-110 0 -174 53t-64 167v364h102v-369q0 -77 34.5 -110t101.5 -33z" />
    <glyph glyph-name="Umacron.sc" unicode="&#xf661;" horiz-adv-x="595" 
d="M169 750h261v-69h-261v69zM298 62q66 0 101.5 33t35.5 110v369h100v-364q0 -114 -64 -167t-173 -53q-110 0 -174 53t-64 167v364h102v-369q0 -77 34.5 -110t101.5 -33z" />
    <glyph glyph-name="Uogonek.sc" unicode="&#xf662;" horiz-adv-x="595" 
d="M219 -123q0 71 76 108v5q-109 1 -172 54t-63 166v364h102v-369q0 -77 34.5 -110t101.5 -33q66 0 101.5 33t35.5 110v369h100v-359q0 -88 -33 -136t-102 -78q-61 -26 -84 -52t-23 -58q0 -25 15 -39t41 -14t42 8h9l11 -44q-25 -20 -82 -20q-51 0 -80.5 26t-29.5 69z" />
    <glyph glyph-name="Uring.sc" unicode="&#xf663;" horiz-adv-x="595" 
d="M195 730q0 42 30 70t74 28t74 -28t30 -70t-29.5 -69t-74.5 -27t-74.5 27t-29.5 69zM351 730q0 25 -14.5 40.5t-37.5 15.5q-25 0 -39.5 -15.5t-14.5 -40.5t14.5 -39.5t39.5 -14.5q23 0 37.5 15t14.5 39zM298 62q66 0 101.5 33t35.5 110v369h100v-364q0 -114 -64 -167
t-173 -53q-110 0 -174 53t-64 167v364h102v-369q0 -77 34.5 -110t101.5 -33z" />
    <glyph glyph-name="Zacute.sc" unicode="&#xf664;" horiz-adv-x="523" 
d="M406 785l-110 -140h-77v9l94 140h93v-9zM482 499l-326 -415v-6h333l-3 -38q-2 -39 -2 -40h-441l-6 75l327 414v6h-311l6 79h420z" />
    <glyph glyph-name="Zdotaccent.sc" unicode="&#xf665;" horiz-adv-x="523" 
d="M482 499l-326 -415v-6h333l-3 -38q-2 -39 -2 -40h-441l-6 75l327 414v6h-311l6 79h420zM212 719q0 24 16 39.5t40 15.5t40.5 -15.5t16.5 -39.5q0 -25 -16 -40t-41 -15q-24 0 -40 15t-16 40z" />
    <glyph glyph-name="Idotaccent.sc" unicode="&#xf666;" horiz-adv-x="230" 
d="M166 0h-102v574h102v-574zM61 719q0 24 16 39.5t40 15.5t40.5 -15.5t16.5 -39.5q0 -25 -16 -40t-41 -15q-24 0 -40 15t-16 40z" />
    <glyph glyph-name="germandbls.sc" unicode="&#xf667;" horiz-adv-x="940" 
d="M424 527l-37 -63h-12q-50 46 -126 46q-49 0 -75.5 -18.5t-26.5 -52.5q0 -40 22.5 -58.5t93.5 -44.5q97 -36 136 -73.5t39 -106.5q0 -80 -51 -123t-155 -43q-56 0 -111 20t-90 51l37 63h12q66 -63 149 -63q64 0 89 20t25 61q0 39 -27 61.5t-106 51.5q-87 31 -122 69
t-35 102q0 74 54 116t143 42q105 0 174 -57zM896 527l-37 -63h-12q-50 46 -126 46q-49 0 -75.5 -18.5t-26.5 -52.5q0 -40 22.5 -58.5t93.5 -44.5q97 -36 136 -73.5t39 -106.5q0 -80 -51 -123t-155 -43q-56 0 -111 20t-90 51l37 63h12q66 -63 149 -63q64 0 89 20t25 61
q0 39 -27 61.5t-106 51.5q-87 31 -122 69t-35 102q0 74 54 116t143 42q105 0 174 -57z" />
    <glyph glyph-name="Lslash.sc" unicode="&#xf6f9;" horiz-adv-x="477" 
d="M179 574v-262l168 71h9v-70l-177 -76v-158h272l-4 -79h-368v195l-47 -20l-10 1v70l57 24v304h100z" />
    <glyph glyph-name="OE.sc" unicode="&#xf6fa;" horiz-adv-x="804" 
d="M40 281q0 132 77.5 212.5t218.5 80.5h426l-5 -73h-266v-170h205l-3 -70h-202v-188h275l-4 -73h-434q-135 0 -211.5 78.5t-76.5 202.5zM143 283q0 -98 50 -155.5t141 -57.5h58v434h-54q-95 0 -145 -58.5t-50 -162.5z" />
    <glyph glyph-name="Scaron.sc" unicode="&#xf6fd;" horiz-adv-x="469" 
d="M424 527l-37 -63h-12q-50 46 -126 46q-49 0 -75.5 -18.5t-26.5 -52.5q0 -40 22.5 -58.5t93.5 -44.5q97 -36 136 -73.5t39 -106.5q0 -80 -51 -123t-155 -43q-56 0 -111 20t-90 51l37 63h12q66 -63 149 -63q64 0 89 20t25 61q0 39 -27 61.5t-106 51.5q-87 31 -122 69
t-35 102q0 74 54 116t143 42q105 0 174 -57zM387 776l-101 -127h-80l-101 127v8h75l66 -80l66 80h75v-8z" />
    <glyph glyph-name="Zcaron.sc" unicode="&#xf6ff;" horiz-adv-x="523" 
d="M482 499l-326 -415v-6h333l-3 -38q-2 -39 -2 -40h-441l-6 75l327 414v6h-311l6 79h420zM408 776l-101 -127h-80l-101 127v8h75l66 -80l66 80h75v-8z" />
    <glyph glyph-name="exclam.sc" unicode="&#xf721;" horiz-adv-x="256" 
d="M68 46q0 25 17 41t43 16t43 -16t17 -41t-17 -41.5t-43 -16.5t-43 16.5t-17 41.5zM180 574l-11 -406h-82l-11 406h104z" />
    <glyph glyph-name="question.sc" unicode="&#xf73f;" horiz-adv-x="453" 
d="M101 46q0 25 17 41t43 16t43 -16t17 -41t-17 -41.5t-43 -16.5t-43 16.5t-17 41.5zM195 505q-64 0 -115 -35h-15l-32 60q72 54 173 54q99 0 151 -47t52 -129q0 -83 -58.5 -127.5t-140.5 -44.5h-8v-84h-80v143h36q146 0 146 109q0 101 -109 101z" />
    <glyph glyph-name="A.sc" unicode="&#xf761;" horiz-adv-x="579" 
d="M452 0l-52 150h-234l-52 -150h-94v8l212 566h114l212 -566v-8h-106zM281 466l-90 -241h186l-89 241h-7z" />
    <glyph glyph-name="B.sc" unicode="&#xf762;" horiz-adv-x="522" 
d="M65 574h208q193 0 193 -145q0 -52 -31 -83t-81 -41v-8q134 -23 134 -135q0 -76 -52.5 -119t-157.5 -43h-213v574zM263 66q122 0 122 102q0 97 -121 97h-100v-199h99zM259 328q107 0 107 91q0 48 -25.5 67.5t-85.5 19.5h-91v-178h95z" />
    <glyph glyph-name="C.sc" unicode="&#xf763;" horiz-adv-x="543" 
d="M40 288q0 135 77.5 215.5t212.5 80.5q110 0 178 -61l-37 -66h-10q-51 49 -131 49q-91 0 -138.5 -57.5t-47.5 -159.5t47.5 -161.5t135.5 -59.5q81 0 136 51h12l39 -59q-74 -70 -193 -70q-134 0 -207.5 82t-73.5 216z" />
    <glyph glyph-name="D.sc" unicode="&#xf764;" horiz-adv-x="588" 
d="M247 73q104 0 150 50.5t46 166.5q0 109 -47 160t-150 51h-82v-428h83zM64 0v574h178q306 0 306 -285q0 -142 -74.5 -215.5t-220.5 -73.5h-189z" />
    <glyph glyph-name="E.sc" unicode="&#xf765;" horiz-adv-x="479" 
d="M371 331l-3 -71h-202v-186h275l-4 -74h-372v574h372l-5 -75h-266v-168h205z" />
    <glyph glyph-name="F.sc" unicode="&#xf766;" horiz-adv-x="469" 
d="M64 574h374l-5 -75h-268v-172h206l-3 -71h-203v-256h-101v574z" />
    <glyph glyph-name="G.sc" unicode="&#xf767;" horiz-adv-x="575" 
d="M335 507q-94 0 -143 -58.5t-49 -162.5q0 -106 49.5 -163.5t140.5 -57.5q63 0 110 25v132h-138v70h223v-249q-89 -53 -203 -53q-134 0 -209.5 82t-75.5 214q0 136 78.5 217t213.5 81q114 0 187 -56l-36 -67h-11q-55 46 -137 46z" />
    <glyph glyph-name="H.sc" unicode="&#xf768;" horiz-adv-x="602" 
d="M166 0h-101v574h101v-235h270v235h101v-574h-100v260h-271v-260z" />
    <glyph glyph-name="I.sc" unicode="&#xf769;" horiz-adv-x="230" 
d="M166 0h-102v574h102v-574z" />
    <glyph glyph-name="J.sc" unicode="&#xf76a;" horiz-adv-x="331" 
d="M170 136v438h101v-445q0 -68 -39.5 -103.5t-110.5 -35.5q-62 0 -110 29l27 69h10q25 -20 55 -20q37 0 52 15t15 53z" />
    <glyph glyph-name="K.sc" unicode="&#xf76b;" horiz-adv-x="529" 
d="M65 574h101v-260h8l225 260h102v-8l-213 -240l224 -317v-9h-107l-190 263l-50 -54v-209h-100v574z" />
    <glyph glyph-name="L.sc" unicode="&#xf76c;" horiz-adv-x="463" 
d="M165 574v-495h272l-4 -79h-369v574h101z" />
    <glyph glyph-name="M.sc" unicode="&#xf76d;" horiz-adv-x="698" 
d="M64 574h131l152 -435h6l155 435h126v-574h-87l2 462h-5l-159 -462h-78l-157 462h-5l1 -462h-82v574z" />
    <glyph glyph-name="N.sc" unicode="&#xf76e;" horiz-adv-x="597" 
d="M532 0h-94l-283 446h-6q0 -6 1 -222.5t1 -223.5h-87v574h106l270 -417h7q0 391 -2 417h87v-574z" />
    <glyph glyph-name="O.sc" unicode="&#xf76f;" horiz-adv-x="631" 
d="M315 62q82 0 127 59.5t45 165.5t-45.5 165.5t-126.5 59.5t-126 -60t-45 -165q0 -106 45 -165.5t126 -59.5zM315 584q126 0 201 -84t75 -212q0 -130 -74.5 -213.5t-201.5 -84.5q-126 0 -200.5 83.5t-74.5 212.5q0 130 74.5 214t200.5 84z" />
    <glyph glyph-name="P.sc" unicode="&#xf770;" horiz-adv-x="499" 
d="M165 0h-101v574h187q108 0 165.5 -45t57.5 -133q0 -184 -234 -184h-75v-212zM165 280h73q69 0 102.5 26t33.5 88q0 111 -126 111h-83v-225z" />
    <glyph glyph-name="Q.sc" unicode="&#xf771;" horiz-adv-x="632" 
d="M315 62q81 0 126.5 60t45.5 165q0 106 -45.5 165.5t-126.5 59.5t-126 -59.5t-45 -165.5t45 -165.5t126 -59.5zM567 -99h-11q-214 46 -361 113q-74 34 -114.5 106t-40.5 166q0 130 74.5 214t200.5 84t201 -83t75 -211q0 -102 -49 -177t-135 -101v-7q26 -6 174 -24z" />
    <glyph glyph-name="R.sc" unicode="&#xf772;" horiz-adv-x="527" 
d="M480 402q0 -65 -36 -105t-96 -54l145 -234v-9h-109l-133 225h-86v-225h-101v574h201q102 0 158.5 -43t56.5 -129zM250 504h-85v-210h82q66 0 98 24.5t32 81.5q0 104 -127 104z" />
    <glyph glyph-name="S.sc" unicode="&#xf773;" horiz-adv-x="469" 
d="M424 527l-37 -63h-12q-50 46 -126 46q-49 0 -75.5 -18.5t-26.5 -52.5q0 -40 22.5 -58.5t93.5 -44.5q97 -36 136 -73.5t39 -106.5q0 -80 -51 -123t-155 -43q-56 0 -111 20t-90 51l37 63h12q66 -63 149 -63q64 0 89 20t25 61q0 39 -27 61.5t-106 51.5q-87 31 -122 69
t-35 102q0 74 54 116t143 42q105 0 174 -57z" />
    <glyph glyph-name="T.sc" unicode="&#xf774;" horiz-adv-x="506" 
d="M489 574l3 -78h-188v-496h-102v496h-187l3 78h471z" />
    <glyph glyph-name="U.sc" unicode="&#xf775;" horiz-adv-x="595" 
d="M298 62q66 0 101.5 33t35.5 110v369h100v-364q0 -114 -64 -167t-173 -53q-110 0 -174 53t-64 167v364h102v-369q0 -77 34.5 -110t101.5 -33z" />
    <glyph glyph-name="V.sc" unicode="&#xf776;" horiz-adv-x="557" 
d="M125 574l155 -459h7l158 459h93v-9l-203 -565h-112l-204 565v9h106z" />
    <glyph glyph-name="W.sc" unicode="&#xf777;" horiz-adv-x="796" 
d="M441 574l119 -447h8l108 447h91v-9l-146 -565h-103l-119 422h-4l-116 -422h-103l-147 565v9h94l109 -447h7l120 447h82z" />
    <glyph glyph-name="X.sc" unicode="&#xf778;" horiz-adv-x="534" 
d="M502 566l-178 -273l186 -285v-8h-109l-139 220h-5l-142 -220h-91v8l186 284l-179 274v8h109l132 -211h5l135 211h90v-8z" />
    <glyph glyph-name="Y.sc" unicode="&#xf779;" horiz-adv-x="507" 
d="M204 231l-196 335v8h105l147 -262h7l144 262h88v-8l-193 -335v-231h-102v231z" />
    <glyph glyph-name="Z.sc" unicode="&#xf77a;" horiz-adv-x="523" 
d="M482 499l-326 -415v-6h333l-3 -38q-2 -39 -2 -40h-441l-6 75l327 414v6h-311l6 79h420z" />
    <glyph glyph-name="exclamdown.sc" unicode="&#xf7a1;" horiz-adv-x="257" 
d="M68 528q0 25 17 41t43 16t43 -16t17 -41t-17 -41t-43 -16t-43 16t-17 41zM180 0h-103l10 406h82z" />
    <glyph glyph-name="questiondown.sc" unicode="&#xf7bf;" horiz-adv-x="452" 
d="M350 520q0 -25 -16.5 -41.5t-41.5 -16.5t-42 16.5t-17 41.5t17 41t42 16t41.5 -16t16.5 -41zM259 59q63 0 116 35h13l31 -61q-72 -51 -170 -51q-100 0 -152 46.5t-52 127.5q0 83 58.5 128t140.5 45h6v85h80v-145h-35q-147 0 -147 -109q0 -101 111 -101z" />
    <glyph glyph-name="Agrave.sc" unicode="&#xf7e0;" horiz-adv-x="579" 
d="M452 0l-52 150h-234l-52 -150h-94v8l212 566h114l212 -566v-8h-106zM281 466l-90 -241h186l-89 241h-7zM157 785v9h94l94 -140v-9h-78z" />
    <glyph glyph-name="Aacute.sc" unicode="&#xf7e1;" horiz-adv-x="579" 
d="M452 0l-52 150h-234l-52 -150h-94v8l212 566h114l212 -566v-8h-106zM281 466l-90 -241h186l-89 241h-7zM427 785l-110 -140h-77v9l94 140h93v-9z" />
    <glyph glyph-name="Acircumflex.sc" unicode="&#xf7e2;" horiz-adv-x="579" 
d="M452 0l-52 150h-234l-52 -150h-94v8l212 566h114l212 -566v-8h-106zM281 466l-90 -241h186l-89 241h-7zM430 657v-8h-75l-66 79l-65 -79h-75v8l100 127h80z" />
    <glyph glyph-name="Atilde.sc" unicode="&#xf7e3;" horiz-adv-x="579" 
d="M452 0l-52 150h-234l-52 -150h-94v8l212 566h114l212 -566v-8h-106zM281 466l-90 -241h186l-89 241h-7zM231 715q-35 0 -39 -54h-53v11q0 52 24.5 78.5t63.5 26.5q35 0 72 -28.5t54 -28.5q36 0 37 53h53v-12q0 -105 -81 -105q-36 0 -76 29.5t-55 29.5z" />
    <glyph glyph-name="Adieresis.sc" unicode="&#xf7e4;" horiz-adv-x="579" 
d="M452 0l-52 150h-234l-52 -150h-94v8l212 566h114l212 -566v-8h-106zM281 466l-90 -241h186l-89 241h-7zM204 763q20 0 34 -14t14 -35q0 -22 -14 -35.5t-34 -13.5q-21 0 -35 13.5t-14 35.5q0 21 14 35t35 14zM378 763q20 0 34 -14t14 -35q0 -22 -14 -35.5t-34 -13.5
q-21 0 -35 13.5t-14 35.5q0 21 14 35t35 14z" />
    <glyph glyph-name="Aring.sc" unicode="&#xf7e5;" horiz-adv-x="579" 
d="M452 0l-52 150h-234l-52 -150h-94v8l212 566h114l212 -566v-8h-106zM186 730q0 42 30 70t74 28t74 -28t30 -70t-29.5 -69t-74.5 -27t-74.5 27t-29.5 69zM281 466l-90 -241h186l-89 241h-7zM342 730q0 25 -14.5 40.5t-37.5 15.5q-25 0 -39.5 -15.5t-14.5 -40.5t14.5 -39.5
t39.5 -14.5q23 0 37.5 15t14.5 39z" />
    <glyph glyph-name="AE.sc" unicode="&#xf7e6;" horiz-adv-x="788" 
d="M309 574h435l-4 -75h-265v-168h203l-2 -71h-201v-186h274l-4 -74h-371v154h-190l-80 -154h-95v8zM367 503l-147 -276h154v276h-7z" />
    <glyph glyph-name="Ccedilla.sc" unicode="&#xf7e7;" horiz-adv-x="543" 
d="M185 -213l20 40h10q25 -16 53 -16q57 0 57 43q0 22 -14.5 32.5t-48.5 10.5q-9 0 -23 -2l-6 5l40 93q-112 15 -172.5 94t-60.5 201q0 135 77.5 215.5t212.5 80.5q110 0 178 -61l-37 -66h-10q-51 49 -131 49q-91 0 -138.5 -57.5t-47.5 -159.5t47.5 -161.5t135.5 -59.5
q81 0 136 51h12l39 -59q-71 -67 -186 -70l-22 -49q45 -3 70 -27.5t25 -60.5q0 -42 -31.5 -67t-83.5 -25q-64 0 -101 26z" />
    <glyph glyph-name="Egrave.sc" unicode="&#xf7e8;" horiz-adv-x="479" 
d="M121 785v9h94l94 -140v-9h-78zM371 331l-3 -71h-202v-186h275l-4 -74h-372v574h372l-5 -75h-266v-168h205z" />
    <glyph glyph-name="Eacute.sc" unicode="&#xf7e9;" horiz-adv-x="479" 
d="M392 785l-110 -140h-77v9l94 140h93v-9zM371 331l-3 -71h-202v-186h275l-4 -74h-372v574h372l-5 -75h-266v-168h205z" />
    <glyph glyph-name="Ecircumflex.sc" unicode="&#xf7ea;" horiz-adv-x="479" 
d="M371 331l-3 -71h-202v-186h275l-4 -74h-372v574h372l-5 -75h-266v-168h205zM394 657v-8h-75l-66 79l-65 -79h-75v8l100 127h80z" />
    <glyph glyph-name="Edieresis.sc" unicode="&#xf7eb;" horiz-adv-x="479" 
d="M342 763q20 0 34 -14t14 -35q0 -22 -14 -35.5t-34 -13.5q-21 0 -35 13.5t-14 35.5q0 21 14 35t35 14zM168 763q20 0 34 -14t14 -35q0 -22 -14 -35.5t-34 -13.5q-21 0 -35 13.5t-14 35.5q0 21 14 35t35 14zM371 331l-3 -71h-202v-186h275l-4 -74h-372v574h372l-5 -75h-266
v-168h205z" />
    <glyph glyph-name="Igrave.sc" unicode="&#xf7ec;" horiz-adv-x="230" 
d="M166 0h-102v574h102v-574zM-16 785v9h94l94 -140v-9h-78z" />
    <glyph glyph-name="Iacute.sc" unicode="&#xf7ed;" horiz-adv-x="230" 
d="M254 785l-110 -140h-77v9l94 140h93v-9zM166 0h-102v574h102v-574z" />
    <glyph glyph-name="Icircumflex.sc" unicode="&#xf7ee;" horiz-adv-x="230" 
d="M166 0h-102v574h102v-574zM257 657v-8h-75l-66 79l-65 -79h-75v8l100 127h80z" />
    <glyph glyph-name="Idieresis.sc" unicode="&#xf7ef;" horiz-adv-x="230" 
d="M205 763q20 0 34 -14t14 -35q0 -22 -14 -35.5t-34 -13.5q-21 0 -35 13.5t-14 35.5q0 21 14 35t35 14zM31 763q20 0 34 -14t14 -35q0 -22 -14 -35.5t-34 -13.5q-21 0 -35 13.5t-14 35.5q0 21 14 35t35 14zM166 0h-102v574h102v-574z" />
    <glyph glyph-name="Eth.sc" unicode="&#xf7f0;" horiz-adv-x="615" 
d="M91 0v254h-65v66h65v254h177q307 0 307 -285q0 -142 -74.5 -215.5t-221.5 -73.5h-188zM274 73q104 0 150 50.5t46 166.5q0 109 -47 160t-151 51h-82v-181h127v-66h-127v-181h84z" />
    <glyph glyph-name="Ntilde.sc" unicode="&#xf7f1;" horiz-adv-x="597" 
d="M532 0h-94l-283 446h-6q0 -6 1 -222.5t1 -223.5h-87v574h106l270 -417h7q0 391 -2 417h87v-574zM239 715q-35 0 -39 -54h-53v11q0 52 24.5 78.5t63.5 26.5q35 0 72 -28.5t54 -28.5q36 0 37 53h53v-12q0 -105 -81 -105q-36 0 -76 29.5t-55 29.5z" />
    <glyph glyph-name="Ograve.sc" unicode="&#xf7f2;" horiz-adv-x="631" 
d="M315 62q82 0 127 59.5t45 165.5t-45.5 165.5t-126.5 59.5t-126 -60t-45 -165q0 -106 45 -165.5t126 -59.5zM315 584q126 0 201 -84t75 -212q0 -130 -74.5 -213.5t-201.5 -84.5q-126 0 -200.5 83.5t-74.5 212.5q0 130 74.5 214t200.5 84zM184 785v9h94l94 -140v-9h-78z
" />
    <glyph glyph-name="Oacute.sc" unicode="&#xf7f3;" horiz-adv-x="631" 
d="M315 62q82 0 127 59.5t45 165.5t-45.5 165.5t-126.5 59.5t-126 -60t-45 -165q0 -106 45 -165.5t126 -59.5zM315 584q126 0 201 -84t75 -212q0 -130 -74.5 -213.5t-201.5 -84.5q-126 0 -200.5 83.5t-74.5 212.5q0 130 74.5 214t200.5 84zM455 785l-110 -140h-77v9l94 140
h93v-9z" />
    <glyph glyph-name="Ocircumflex.sc" unicode="&#xf7f4;" horiz-adv-x="631" 
d="M315 584q126 0 201 -84t75 -212q0 -130 -74.5 -213.5t-201.5 -84.5q-126 0 -200.5 83.5t-74.5 212.5q0 130 74.5 214t200.5 84zM315 62q82 0 127 59.5t45 165.5t-45.5 165.5t-126.5 59.5t-126 -60t-45 -165q0 -106 45 -165.5t126 -59.5zM457 657v-8h-75l-66 79l-65 -79
h-75v8l100 127h80z" />
    <glyph glyph-name="Otilde.sc" unicode="&#xf7f5;" horiz-adv-x="631" 
d="M315 584q126 0 201 -84t75 -212q0 -130 -74.5 -213.5t-201.5 -84.5q-126 0 -200.5 83.5t-74.5 212.5q0 130 74.5 214t200.5 84zM315 62q82 0 127 59.5t45 165.5t-45.5 165.5t-126.5 59.5t-126 -60t-45 -165q0 -106 45 -165.5t126 -59.5zM258 715q-35 0 -39 -54h-53v11
q0 52 24.5 78.5t63.5 26.5q35 0 72 -28.5t54 -28.5q36 0 37 53h53v-12q0 -105 -81 -105q-36 0 -76 29.5t-55 29.5z" />
    <glyph glyph-name="Odieresis.sc" unicode="&#xf7f6;" horiz-adv-x="631" 
d="M405 763q20 0 34 -14t14 -35q0 -22 -14 -35.5t-34 -13.5q-21 0 -35 13.5t-14 35.5q0 21 14 35t35 14zM231 763q20 0 34 -14t14 -35q0 -22 -14 -35.5t-34 -13.5q-21 0 -35 13.5t-14 35.5q0 21 14 35t35 14zM315 62q82 0 127 59.5t45 165.5t-45.5 165.5t-126.5 59.5
t-126 -60t-45 -165q0 -106 45 -165.5t126 -59.5zM315 584q126 0 201 -84t75 -212q0 -130 -74.5 -213.5t-201.5 -84.5q-126 0 -200.5 83.5t-74.5 212.5q0 130 74.5 214t200.5 84z" />
    <glyph glyph-name="Oslash.sc" unicode="&#xf7f8;" horiz-adv-x="632" 
d="M40 285q0 132 74.5 215.5t201.5 83.5q101 0 175 -61l45 51h68v-7l-73 -86q62 -79 62 -192q0 -131 -75 -215t-202 -84q-97 0 -169 56l-41 -46h-67v8l67 78q-66 82 -66 199zM141 287q0 -81 24 -133l275 307q-44 52 -124 52q-83 0 -129 -60t-46 -166zM491 286q0 69 -21 124
l-272 -304q44 -45 119 -45q84 0 129 59t45 166z" />
    <glyph glyph-name="Ugrave.sc" unicode="&#xf7f9;" horiz-adv-x="595" 
d="M166 785v9h94l94 -140v-9h-78zM298 62q66 0 101.5 33t35.5 110v369h100v-364q0 -114 -64 -167t-173 -53q-110 0 -174 53t-64 167v364h102v-369q0 -77 34.5 -110t101.5 -33z" />
    <glyph glyph-name="Uacute.sc" unicode="&#xf7fa;" horiz-adv-x="595" 
d="M437 785l-110 -140h-77v9l94 140h93v-9zM298 62q66 0 101.5 33t35.5 110v369h100v-364q0 -114 -64 -167t-173 -53q-110 0 -174 53t-64 167v364h102v-369q0 -77 34.5 -110t101.5 -33z" />
    <glyph glyph-name="Ucircumflex.sc" unicode="&#xf7fb;" horiz-adv-x="595" 
d="M298 62q66 0 101.5 33t35.5 110v369h100v-364q0 -114 -64 -167t-173 -53q-110 0 -174 53t-64 167v364h102v-369q0 -77 34.5 -110t101.5 -33zM439 657v-8h-75l-66 79l-65 -79h-75v8l100 127h80z" />
    <glyph glyph-name="Udieresis.sc" unicode="&#xf7fc;" horiz-adv-x="595" 
d="M387 763q20 0 34 -14t14 -35q0 -22 -14 -35.5t-34 -13.5q-21 0 -35 13.5t-14 35.5q0 21 14 35t35 14zM213 763q20 0 34 -14t14 -35q0 -22 -14 -35.5t-34 -13.5q-21 0 -35 13.5t-14 35.5q0 21 14 35t35 14zM298 62q66 0 101.5 33t35.5 110v369h100v-364q0 -114 -64 -167
t-173 -53q-110 0 -174 53t-64 167v364h102v-369q0 -77 34.5 -110t101.5 -33z" />
    <glyph glyph-name="Yacute.sc" unicode="&#xf7fd;" horiz-adv-x="507" 
d="M396 785l-110 -140h-77v9l94 140h93v-9zM204 231l-196 335v8h105l147 -262h7l144 262h88v-8l-193 -335v-231h-102v231z" />
    <glyph glyph-name="Thorn.sc" unicode="&#xf7fe;" horiz-adv-x="507" 
d="M65 574h101v-111h89q108 0 164 -44t56 -129q0 -90 -57 -133t-174 -43h-78v-114h-101v574zM250 393h-84v-211h73q68 0 101 25t33 81q0 105 -123 105z" />
    <glyph glyph-name="Ydieresis.sc" unicode="&#xf7ff;" horiz-adv-x="507" 
d="M346 763q20 0 34 -14t14 -35q0 -22 -14 -35.5t-34 -13.5q-21 0 -35 13.5t-14 35.5q0 21 14 35t35 14zM172 763q20 0 34 -14t14 -35q0 -22 -14 -35.5t-34 -13.5q-21 0 -35 13.5t-14 35.5q0 21 14 35t35 14zM204 231l-196 335v8h105l147 -262h7l144 262h88v-8l-193 -335
v-231h-102v231z" />
    <glyph glyph-name="Cacute.pl" horiz-adv-x="631" 
d="M561 132l40 -65q-85 -79 -224 -79q-155 0 -244.5 102t-89.5 264q0 163 92.5 263.5t247.5 100.5q125 0 212 -70l-39 -71h-11q-63 58 -155 58q-111 0 -175 -74.5t-64 -202.5q0 -132 64 -209t176 -77q91 0 156 60h14zM313 786l51 132h95v-9l-67 -132h-79v9z" />
    <glyph glyph-name="space_uni0326" horiz-adv-x="239" 
d="M87 -55h92l-42 -162h-77z" />
    <glyph glyph-name="Nacute.pl" horiz-adv-x="669" 
d="M287 786l51 132h95v-9l-67 -132h-79v9zM602 0h-97l-342 575h-7q0 -561 1 -575h-90v706h109l330 -543h8q0 5 -0.5 271t-0.5 272h89v-706z" />
    <glyph glyph-name="Oacute.pl" horiz-adv-x="741" 
d="M322 786l51 132h95v-9l-67 -132h-79v9zM371 67q106 0 162.5 76t56.5 210t-57 210t-163 76t-162.5 -76t-56.5 -210t57 -210t163 -76zM370 718q151 0 239.5 -102.5t88.5 -260.5q0 -161 -87.5 -264t-239.5 -103q-151 0 -239.5 102.5t-88.5 260.5q0 161 87.5 264t239.5 103z
" />
    <glyph glyph-name="Sacute.pl" horiz-adv-x="534" 
d="M21 74l41 68h12q84 -76 185 -76q72 0 105 26t33 80q0 51 -34 82.5t-125 66.5q-102 39 -144 86.5t-42 124.5q0 86 65 136t165 50q117 0 194 -69l-41 -68h-12q-60 58 -137 58q-62 0 -98 -26t-36 -74q0 -45 29.5 -71t112.5 -60q111 -45 157 -92t46 -134q0 -93 -61.5 -143.5
t-173.5 -50.5q-146 0 -241 86zM218 786l51 132h95v-9l-67 -132h-79v9z" />
    <glyph glyph-name="Zacute.pl" horiz-adv-x="585" 
d="M546 625l-384 -535v-8h390l-2 -40q-3 -41 -3 -42h-506l-6 80l386 537v7h-368l6 82h483zM253 786l51 132h95v-9l-67 -132h-79v9z" />
    <glyph glyph-name="cacute.pl" horiz-adv-x="499" 
d="M445 115l31 -59q-71 -67 -185 -67q-122 0 -187 74.5t-65 201.5q0 128 74.5 199t181.5 71q108 0 166 -49l-32 -65h-13q-45 41 -116 41q-68 0 -114.5 -49.5t-46.5 -145.5q0 -203 167 -203q75 0 126 51h13zM245 599l49 157h88v-9l-64 -157h-73v9z" />
    <glyph glyph-name="idotaccent" horiz-adv-x="237" 
d="M70 520l84 9h15v-529h-99v520zM65 669q0 24 16 39.5t40 15.5t40.5 -15.5t16.5 -39.5q0 -25 -16 -40t-41 -15q-24 0 -40 15t-16 40z" />
    <glyph glyph-name="nacute.pl" horiz-adv-x="565" 
d="M243 599l49 157h88v-9l-64 -157h-73v9zM65 520l72 9h16l4 -80h7q29 35 80.5 60.5t106.5 25.5q152 0 152 -153v-382h-100v357q0 53 -21 76t-72 23q-77 0 -146 -65v-391h-100z" />
    <glyph glyph-name="oacute.pl" horiz-adv-x="568" 
d="M39 262q0 129 67.5 201t177.5 72t177.5 -71t67.5 -202q0 -129 -67.5 -201t-177.5 -72t-177.5 71t-67.5 202zM429 263q0 203 -145 203q-144 0 -144 -205q0 -203 144 -203q145 0 145 205zM245 599l49 157h88v-9l-64 -157h-73v9z" />
    <glyph glyph-name="sacute.pl" horiz-adv-x="454" 
d="M398 484l-35 -61h-13q-45 43 -117 43q-90 0 -90 -67q0 -34 24.5 -53.5t85.5 -38.5q88 -28 126.5 -61t38.5 -98q0 -77 -48.5 -118t-144.5 -41q-112 0 -189 62l32 61h12q63 -57 148 -57q100 0 100 75q0 39 -25.5 57t-106.5 43q-72 23 -107.5 60.5t-35.5 96.5
q0 69 51.5 108.5t129.5 39.5q103 0 164 -51zM194 599l49 157h88v-9l-64 -157h-73v9z" />
    <glyph glyph-name="zacute.pl" horiz-adv-x="482" 
d="M56 524h381l5 -65l-283 -384v-7h286l-3 -68h-403l-3 60l286 389v6h-271q4 69 5 69zM205 599l49 157h88v-9l-64 -157h-73v9z" />
    <glyph glyph-name="uni01FA.sc" horiz-adv-x="579" 
d="M452 0l-52 150h-234l-52 -150h-94v8l212 566h114l212 -566v-8h-106zM189 714q0 40 29.5 66t74.5 26t74.5 -26t29.5 -66q0 -41 -29.5 -66.5t-74.5 -25.5t-74.5 25.5t-29.5 66.5zM281 466l-90 -241h186l-89 241h-7zM248 856l93 132h93v-8l-109 -133h-77v9zM347 714
q0 23 -15 38t-39 15q-25 0 -40 -14.5t-15 -38.5q0 -25 14.5 -38.5t40.5 -13.5q24 0 39 14t15 38z" />
    <glyph glyph-name="Cacute.scpl" horiz-adv-x="543" 
d="M40 288q0 135 77.5 215.5t212.5 80.5q110 0 178 -61l-37 -66h-10q-51 49 -131 49q-91 0 -138.5 -57.5t-47.5 -159.5t47.5 -161.5t135.5 -59.5q81 0 136 51h12l39 -59q-74 -70 -193 -70q-134 0 -207.5 82t-73.5 216zM269 649l49 157h88v-9l-64 -157h-73v9z" />
    <glyph glyph-name="Nacute.scpl" horiz-adv-x="597" 
d="M532 0h-94l-283 446h-6q0 -6 1 -222.5t1 -223.5h-87v574h106l270 -417h7q0 391 -2 417h87v-574zM259 649l49 157h88v-9l-64 -157h-73v9z" />
    <glyph glyph-name="Oacute.scpl" horiz-adv-x="631" 
d="M315 62q82 0 127 59.5t45 165.5t-45.5 165.5t-126.5 59.5t-126 -60t-45 -165q0 -106 45 -165.5t126 -59.5zM315 584q126 0 201 -84t75 -212q0 -130 -74.5 -213.5t-201.5 -84.5q-126 0 -200.5 83.5t-74.5 212.5q0 130 74.5 214t200.5 84zM277 649l49 157h88v-9l-64 -157
h-73v9z" />
    <glyph glyph-name="Sacute.scpl" horiz-adv-x="469" 
d="M424 527l-37 -63h-12q-50 46 -126 46q-49 0 -75.5 -18.5t-26.5 -52.5q0 -40 22.5 -58.5t93.5 -44.5q97 -36 136 -73.5t39 -106.5q0 -80 -51 -123t-155 -43q-56 0 -111 20t-90 51l37 63h12q66 -63 149 -63q64 0 89 20t25 61q0 39 -27 61.5t-106 51.5q-87 31 -122 69
t-35 102q0 74 54 116t143 42q105 0 174 -57zM207 649l49 157h88v-9l-64 -157h-73v9z" />
    <glyph glyph-name="uni021A.sc" horiz-adv-x="506" 
d="M489 574l3 -78h-188v-496h-102v496h-187l3 78h471zM216 -55h92l-42 -162h-77z" />
    <glyph glyph-name="Zacute.scpl" horiz-adv-x="523" 
d="M482 499l-326 -415v-6h333l-3 -38q-2 -39 -2 -40h-441l-6 75l327 414v6h-311l6 79h420zM228 649l49 157h88v-9l-64 -157h-73v9z" />
    <glyph glyph-name="uni0237.sc" horiz-adv-x="331" 
d="M170 136v438h101v-445q0 -68 -39.5 -103.5t-110.5 -35.5q-62 0 -110 29l27 69h10q25 -20 55 -20q37 0 52 15t15 53z" />
    <glyph glyph-name="napostrophe.sc" horiz-adv-x="618" 
d="M-57 589l29 220h95l-49 -220h-75zM553 0h-94l-283 446h-6q0 -6 1 -222.5t1 -223.5h-87v574h106l270 -417h7q0 391 -2 417h87v-574z" />
    <glyph glyph-name="f.short" horiz-adv-x="313" 
d="M90 456h-69v59l69 9v72q0 79 42 118.5t109 39.5q55 0 91 -23l-5 -64h-10q-24 16 -54 16q-75 0 -75 -92v-67h111v-68h-110v-456h-99v456z" />
    <glyph glyph-name="f_f.short" horiz-adv-x="595" 
d="M581 457h-111l1 -457h-98v457h-185v-457h-98v457h-69v58l69 7v60q0 81 45 121t118 40q66 0 105 -23l-20 -62h-10q-28 17 -62 17q-78 0 -78 -93v-60h185v74q0 79 41.5 118.5t108.5 39.5q55 0 91 -23l-5 -64h-10q-23 17 -54 17q-75 0 -75 -92v-70h111v-65z" />
    <glyph glyph-name="acute.pl" horiz-adv-x="222" 
d="M51 599l49 157h88v-9l-64 -157h-73v9z" />
    <glyph glyph-name="caron.alt" horiz-adv-x="234" 
d="M92 744l77 9h15l-39 -169h-71z" />
    <glyph glyph-name="space_uni0326.alt" horiz-adv-x="201" 
d="M83 760h76l-26 -161h-92z" />
    <glyph glyph-name="cedilla.uc" horiz-adv-x="282" 
d="M22 -213l20 40h10q26 -17 54 -17q57 0 57 43q0 23 -14.5 33.5t-48.5 10.5q-9 0 -23 -2l-6 5l53 121l50 -14l-30 -66q45 -3 70 -27.5t25 -60.5q0 -43 -31.5 -68t-84.5 -25q-64 0 -101 27z" />
    <glyph glyph-name="ogonek.uc" horiz-adv-x="291" 
d="M50 -123q0 97 151 147l26 -24q-59 -29 -80 -53t-21 -56q0 -25 14.5 -39.5t40.5 -14.5q23 0 43 9h9l11 -45q-28 -20 -83 -20q-51 0 -81 26.5t-30 69.5z" />
    <glyph glyph-name="grave.uc" horiz-adv-x="253" 
d="M27 904v9h99l89 -127v-9h-80z" />
    <glyph glyph-name="acute.uc" horiz-adv-x="253" 
d="M227 904l-108 -127h-80v9l89 127h99v-9z" />
    <glyph glyph-name="acute.ucpl" horiz-adv-x="243" 
d="M48 786l51 132h95v-9l-67 -132h-79v9z" />
    <glyph glyph-name="circumflex.uc" horiz-adv-x="339" 
d="M19 786l105 118h93l104 -117v-10h-78l-73 76l-72 -76h-79v9z" />
    <glyph glyph-name="caron.uc" horiz-adv-x="339" 
d="M19 895v9h79l72 -77l73 77h78v-10l-104 -117h-93z" />
    <glyph glyph-name="caron.ucalt" horiz-adv-x="230" 
d="M85 706h86l-39 -197h-70z" />
    <glyph glyph-name="tilde.uc" horiz-adv-x="394" 
d="M137 832q-18 0 -26.5 -11.5t-10.5 -38.5h-55v11q0 52 24 79.5t64 27.5q35 0 72.5 -27.5t54.5 -27.5q18 0 26 10.5t9 38.5h56v-11q0 -52 -22 -80t-60 -28q-36 0 -76 28.5t-56 28.5z" />
    <glyph glyph-name="dieresis.uc" horiz-adv-x="361" 
d="M41 834q0 23 15 37.5t37 14.5q21 0 36 -14.5t15 -37.5t-14.5 -37t-36.5 -14t-37 14t-15 37zM217 834q0 23 15 37.5t37 14.5q21 0 36 -14.5t15 -37.5t-14.5 -37t-36.5 -14t-37 14t-15 37z" />
    <glyph glyph-name="macron.uc" horiz-adv-x="361" 
d="M45 864h270v-69h-270v69z" />
    <glyph glyph-name="breve.uc" horiz-adv-x="342" 
d="M30 897h70q4 -63 71 -63q68 0 71 63h70q0 -62 -38 -94t-103 -32t-103 32t-38 94z" />
    <glyph glyph-name="ring.uc" horiz-adv-x="259" 
d="M26 857q0 39 28 64.5t75 25.5t75.5 -25.5t28.5 -64.5t-28 -64t-76 -25q-47 0 -75 25.5t-28 63.5zM180 857q0 21 -13.5 33.5t-37.5 12.5q-23 0 -36.5 -12.5t-13.5 -33.5q0 -20 13.5 -33t36.5 -13t37 13t14 33z" />
    <glyph glyph-name="hungarumlaut.uc" horiz-adv-x="360" 
d="M201 777v12l40 129h84v-10l-51 -131h-73zM41 789l37 129h85v-10l-49 -131h-73v12z" />
    <glyph glyph-name="dotaccent.uc" horiz-adv-x="216" 
d="M51 835q0 24 16 39.5t41 15.5q24 0 40.5 -15.5t16.5 -39.5q0 -25 -16.5 -40t-40.5 -15q-25 0 -41 15t-16 40z" />
    <glyph glyph-name="commaaccent.uc" horiz-adv-x="237" 
d="M84 -60h97l-42 -157h-79z" />
    <glyph glyph-name="exclamdown.uc" horiz-adv-x="267" 
d="M71 658q0 27 17.5 44t44.5 17q28 0 45.5 -17t17.5 -44t-17.5 -44.5t-45.5 -17.5q-26 0 -44 17.5t-18 44.5zM92 508h83l11 -508h-105z" />
    <glyph glyph-name="questiondown.uc" horiz-adv-x="499" 
d="M42 202q0 102 68.5 155.5t163.5 53.5h10v120h81v-182h-38q-179 0 -179 -144q0 -65 34.5 -101.5t99.5 -36.5q75 0 142 44h11l35 -62q-83 -61 -198 -61q-113 0 -171.5 57.5t-58.5 156.5zM263 658q0 27 18 44.5t45 17.5t45 -17.5t18 -44.5q0 -26 -18 -43.5t-45 -17.5
q-26 0 -44.5 17.5t-18.5 43.5z" />
    <glyph glyph-name="hyphen.uc" horiz-adv-x="409" 
d="M66 287v76h277v-76h-277z" />
    <glyph glyph-name="endash.uc" horiz-adv-x="553" 
d="M56 292v72h441v-72h-441z" />
    <glyph glyph-name="emdash.uc" horiz-adv-x="779" 
d="M56 292v72h667v-72h-667z" />
    <glyph glyph-name="parenleft.uc" horiz-adv-x="346" 
d="M73 342q0 133 44 248.5t120 199.5h78v-12q-140 -187 -140 -436q0 -250 140 -437v-12h-79q-76 84 -119.5 200t-43.5 249z" />
    <glyph glyph-name="parenright.uc" horiz-adv-x="346" 
d="M171 342q0 249 -140 436v12h78q76 -84 120 -199.5t44 -248.5t-44 -249t-120 -200h-78v12q140 187 140 437z" />
    <glyph glyph-name="bracketleft.uc" horiz-adv-x="322" 
d="M70 790h228v-67h-137v-764h138v-66h-229v897z" />
    <glyph glyph-name="bracketright.uc" horiz-adv-x="326" 
d="M252 790v-897h-229v66h138v764h-137v67h228z" />
    <glyph glyph-name="braceleft.uc" horiz-adv-x="368" 
d="M146 42v175q0 91 -79 91h-27v71h27q79 0 79 92v170q0 68 34.5 108.5t123.5 40.5h41v-65h-12q-55 0 -75 -24t-20 -71v-164q0 -53 -29 -83.5t-69 -35.5v-5q40 -6 69 -36.5t29 -82.5v-170q0 -47 20 -71t75 -24h12v-65h-41q-89 0 -123.5 40.5t-34.5 108.5z" />
    <glyph glyph-name="braceright.uc" horiz-adv-x="368" 
d="M23 -42h12q55 0 75 24t20 71v170q0 52 29 82.5t69 36.5v5q-40 5 -69 35.5t-29 83.5v164q0 47 -20 71t-75 24h-12v65h41q89 0 123.5 -40.5t34.5 -108.5v-170q0 -92 80 -92h26v-71h-26q-80 0 -80 -91v-175q0 -68 -34.5 -108.5t-123.5 -40.5h-41v65z" />
    <glyph glyph-name="guilsinglleft.uc" horiz-adv-x="299" 
d="M47 308v23l129 197h77v-11l-114 -197l114 -203v-10h-76z" />
    <glyph glyph-name="guilsinglright.uc" horiz-adv-x="299" 
d="M252 308l-130 -201h-76v10l114 203l-114 197v11h77l129 -197v-23z" />
    <glyph glyph-name="guillemotleft.uc" horiz-adv-x="502" 
d="M379 107l-130 201v21l129 198h77v-9l-114 -198l114 -204v-9h-76zM47 308v21l129 198h77v-9l-114 -198l114 -204v-9h-76z" />
    <glyph glyph-name="guillemotright.uc" horiz-adv-x="502" 
d="M455 308l-130 -201h-76v9l114 204l-114 198v9h77l129 -198v-21zM123 107h-77v9l114 204l-114 198v9h78l129 -198v-21z" />
    <glyph glyph-name="at.uc" horiz-adv-x="1006" 
d="M272 276q0 126 79 208t209 82q84 0 145 -27h4l-61 -304q-9 -46 9.5 -63.5t61.5 -17.5q79 0 121.5 63t42.5 170q0 148 -93.5 236.5t-254.5 88.5q-178 0 -292.5 -109.5t-114.5 -285.5q0 -183 109.5 -284.5t295.5 -101.5q184 0 292 88h12l27 -50q-51 -47 -141.5 -74.5
t-193.5 -27.5q-221 0 -349 119.5t-128 330.5q0 202 138.5 329t345.5 127q192 0 307.5 -105.5t115.5 -277.5q0 -138 -68 -220t-189 -82t-144 83h-3q-49 -79 -133 -79q-67 0 -108.5 47.5t-41.5 136.5zM454 159q34 0 62.5 23.5t41.5 74.5l50 238q-21 8 -56 8q-62 0 -108 -37.5
t-64 -109.5q-13 -47 -13 -84q0 -113 87 -113z" />
    <glyph glyph-name="slash.uc" horiz-adv-x="364" 
d="M272 779h83l-269 -881h-84z" />
    <glyph glyph-name="backslash.uc" horiz-adv-x="364" 
d="M361 -102h-83l-269 881h83z" />
    <glyph glyph-name="bar.uc" horiz-adv-x="243" 
d="M83 795h77v-923h-77v923z" />
    <glyph glyph-name="endash.sc" horiz-adv-x="570" 
d="M56 243v73h458v-73h-458z" />
    <glyph glyph-name="emdash.sc" horiz-adv-x="797" 
d="M56 243v73h686v-73h-686z" />
    <glyph glyph-name="slash.sc" horiz-adv-x="318" 
d="M321 691l-253 -823h-77l253 823h77z" />
    <glyph glyph-name="backslash.sc" horiz-adv-x="319" 
d="M252 -132l-255 823h78l254 -823h-77z" />
    <glyph glyph-name="bar.sc" horiz-adv-x="236" 
d="M153 691v-823h-70v823h70z" />
    <glyph glyph-name="zero.old" horiz-adv-x="634" 
d="M41 286q0 136 73 217.5t202 81.5q132 0 205 -82t73 -213q0 -138 -73 -220t-202 -82q-132 0 -205 83t-73 215zM493 286q0 108 -45.5 169.5t-131.5 61.5q-84 0 -129 -60.5t-45 -168.5q0 -109 45.5 -170t131.5 -61q84 0 129 60.5t45 168.5z" />
    <glyph glyph-name="one.old" horiz-adv-x="310" 
d="M144 0v479l-111 -40h-11l-16 71q141 48 186 69l52 -8v-571h-100z" />
    <glyph glyph-name="two.old" horiz-adv-x="524" 
d="M40 68q174 120 244 187q44 42 62.5 74.5t18.5 69.5q0 113 -129 113q-93 0 -157 -64h-11l-36 57q38 36 94.5 58t120.5 22q109 0 164 -46.5t55 -129.5q0 -45 -20.5 -84t-70.5 -87q-78 -77 -208 -162h311l-6 -76h-427z" />
    <glyph glyph-name="three.old" horiz-adv-x="525" 
d="M15 -77l35 64h13q70 -52 157 -52q77 0 119.5 36t42.5 100q0 61 -45 95.5t-132 34.5h-58l-4 70h55q68 0 112 33t44 91q0 118 -139 118q-74 0 -132 -44h-10l-34 55q79 60 200 60q216 0 216 -174q0 -65 -41 -108t-106 -58v-5q75 -9 125.5 -52t50.5 -120q0 -94 -67 -149.5
t-182 -55.5q-127 0 -220 61z" />
    <glyph glyph-name="four.old" horiz-adv-x="594" 
d="M354 46h-326l-7 67l334 461h91v-457h133l-6 -71h-126v-156h-93v156zM354 117v336h-6l-239 -336h245z" />
    <glyph glyph-name="five.old" horiz-adv-x="525" 
d="M24 -80l34 65h11q72 -50 154 -50q80 0 123 41t43 110q0 151 -163 151q-54 0 -134 -28l-17 19l20 346h360l-5 -76h-275l-12 -205q42 13 103 13q102 0 162 -52t60 -167q0 -99 -66 -162t-191 -63q-121 0 -207 58z" />
    <glyph glyph-name="six.old" horiz-adv-x="592" 
d="M45 293q0 198 84.5 311.5t234.5 113.5q103 0 159 -39l-34 -62h-9q-50 29 -111 29q-187 0 -218 -253h5q65 53 172 53q112 0 169 -58.5t57 -167.5q0 -107 -65.5 -169.5t-180.5 -62.5q-126 0 -194.5 83t-68.5 222zM302 381q-87 0 -157 -60v-34q0 -231 163 -231
q70 0 109 42.5t39 119.5q0 163 -154 163z" />
    <glyph glyph-name="seven.old" horiz-adv-x="523" 
d="M77 -114l320 610h-373l5 78h456l4 -78l-314 -622h-98v12z" />
    <glyph glyph-name="eight.old" horiz-adv-x="590" 
d="M43 173q0 65 45.5 111t115.5 66v7q-138 65 -138 184q0 81 64 129t169 48t164 -41t59 -125q0 -59 -37.5 -103t-103.5 -67v-9q81 -34 123 -80.5t42 -120.5q0 -83 -64.5 -133.5t-187.5 -50.5q-118 0 -184.5 49.5t-66.5 135.5zM456 172q0 54 -42 87t-139 70q-60 -18 -101 -57
t-41 -91q0 -62 43.5 -93.5t122.5 -31.5t118 32t39 84zM156 545q0 -52 38 -83.5t112 -60.5q55 19 91.5 56t36.5 82q0 58 -35 84.5t-106 26.5q-63 0 -100 -27.5t-37 -77.5z" />
    <glyph glyph-name="nine.old" horiz-adv-x="592" 
d="M49 -90l33 63h10q56 -40 132 -40q188 0 217 252h-7q-67 -55 -165 -55q-112 0 -171.5 58.5t-59.5 161.5q0 106 67.5 170t186.5 64q122 0 189 -82t67 -220q0 -195 -84 -307.5t-234 -112.5q-53 0 -102.5 14.5t-78.5 33.5zM288 196q95 0 158 61q1 11 1 34q0 226 -155 226
q-73 0 -114.5 -44t-41.5 -121q0 -71 36.5 -113.5t115.5 -42.5z" />
    <glyph glyph-name="Euro.old" horiz-adv-x="625" 
d="M38 286h72q-2 30 -2 46q0 32 2 48h-76l4 57h81q24 110 97.5 173.5t187.5 63.5q110 0 184 -61l-32 -57h-12q-53 46 -132 46q-156 0 -193 -165h219l-5 -58h-222q-2 -30 -2 -47q0 -31 1 -46h183l-3 -58h-172q34 -166 191 -166q90 0 152 62h12l30 -59q-78 -76 -209 -76
q-112 0 -183 62.5t-94 176.5h-83z" />
    <glyph glyph-name="dollar.old" horiz-adv-x="547" 
d="M37 57l31 61h11q53 -42 127 -56l33 247q-97 39 -136.5 80t-38.5 113q1 78 63 124t165 48l14 98h62l-14 -103q79 -13 137 -54l-31 -61h-10q-48 36 -106 46l-30 -222q103 -39 149.5 -83t46.5 -122q0 -90 -64 -137.5t-186 -47.5h-2l-13 -102h-62l14 107q-97 15 -160 64z
M418 167q0 44 -28.5 68.5t-91.5 50.5l-30 -229q150 0 150 110zM154 512q0 -40 21.5 -63t79.5 -48l28 204q-61 -2 -95 -26.5t-34 -66.5z" />
    <glyph glyph-name="sterling.old" horiz-adv-x="554" 
d="M41 67q37 39 50.5 72t13.5 93q0 29 -9.5 110t-9.5 114q0 96 63 157t183 61q114 0 189 -66l-39 -60h-11q-60 51 -132 51q-78 0 -117 -39t-39 -107q0 -32 7 -86h209l-3 -73h-197q4 -48 4 -68q0 -52 -13 -84.5t-46 -63.5h372l-5 -78h-452z" />
    <glyph glyph-name="yen.old" horiz-adv-x="599" 
d="M54 347h159l-183 306v10h97l176 -299h7l175 299h85v-10l-184 -306h161v-58h-197v-91h197v-57h-197v-141h-100v141h-196v57h196v91h-196v58z" />
    <glyph glyph-name="cent.old" horiz-adv-x="502" 
d="M295 632h65l-12 -101q72 -10 114 -45l-31 -64h-13q-31 27 -78 37l-46 -397h11q78 0 129 53h13l30 -59q-71 -67 -185 -67h-7l-11 -97h-64l12 105q-89 20 -136.5 90.5t-47.5 177.5q0 124 71 194.5t175 75.5zM135 267q0 -151 96 -192l44 386q-61 -8 -100.5 -57t-39.5 -137z
" />
    <glyph glyph-name="florin.old" horiz-adv-x="447" 
d="M31 371h129l25 155q13 76 60.5 112t114.5 36q50 0 90 -21l-17 -63h-9q-18 13 -53 13q-74 0 -88 -88l-23 -144h142v-71h-153l-46 -294q-24 -144 -174 -144q-55 0 -93 22l21 63h9q21 -14 54 -14q38 0 58 19.5t27 66.5l44 281h-118v71z" />
    <glyph glyph-name="percent.old" horiz-adv-x="814" 
d="M621 45q43 0 64.5 35.5t21.5 93.5q0 56 -22 92t-64 36t-64 -36t-22 -92q0 -58 22 -93.5t64 -35.5zM621 -13q-73 0 -117 54t-44 133q0 78 44 131.5t117 53.5t116.5 -53.5t43.5 -131.5q0 -79 -43.5 -133t-116.5 -54zM33 488q0 78 44 132t117 54t116.5 -53.5t43.5 -132.5
t-43.5 -132.5t-116.5 -53.5t-117 53.5t-44 132.5zM280 488q0 56 -22 92t-64 36t-64 -36t-22 -92q0 -57 22 -93t64 -36q43 0 64.5 36t21.5 93zM144 9l454 654h71v-11l-454 -652h-71v9z" />
    <glyph glyph-name="perthousand.old" horiz-adv-x="1178" 
d="M989 45q42 0 63.5 35.5t21.5 93.5q0 56 -21.5 92t-63.5 36t-64 -36t-22 -92q0 -58 22 -93.5t64 -35.5zM989 -13q-73 0 -117 54t-44 133q0 78 44 131.5t117 53.5t116.5 -53.5t43.5 -131.5q0 -79 -43.5 -133t-116.5 -54zM621 45q43 0 64.5 35.5t21.5 93.5q0 56 -22 92
t-64 36t-64 -36t-22 -92q0 -58 22 -93.5t64 -35.5zM621 -13q-73 0 -117 54t-44 133q0 78 44 131.5t117 53.5t116.5 -53.5t43.5 -131.5q0 -79 -43.5 -133t-116.5 -54zM33 488q0 78 44 132t117 54t116.5 -53.5t43.5 -132.5t-43.5 -132.5t-116.5 -53.5t-117 53.5t-44 132.5z
M280 488q0 56 -22 92t-64 36t-64 -36t-22 -92q0 -57 22 -93t64 -36q43 0 64.5 36t21.5 93zM144 9l454 654h71v-11l-454 -652h-71v9z" />
    <glyph glyph-name="plus.old" horiz-adv-x="572" 
d="M50 313h195v207h83v-207h194v-76h-194v-209h-83v209h-195v76z" />
    <glyph glyph-name="minus.old" horiz-adv-x="572" 
d="M50 311h472v-79h-472v79z" />
    <glyph glyph-name="multiply.old" horiz-adv-x="524" 
d="M48 440l56 54l158 -168l157 167l57 -53l-161 -170l156 -164l-57 -54l-152 161l-158 -167l-56 54l160 170z" />
    <glyph glyph-name="divide.old" horiz-adv-x="576" 
d="M231 480q0 25 16.5 41.5t40.5 16.5t41 -16.5t17 -41.5t-17 -41.5t-41 -16.5t-40.5 16.5t-16.5 41.5zM50 237v79h476v-79h-476zM231 73q0 25 16.5 41.5t40.5 16.5t41 -16.5t17 -41.5t-17 -41.5t-41 -16.5t-40.5 16.5t-16.5 41.5z" />
    <glyph glyph-name="equal.old" horiz-adv-x="595" 
d="M63 421h469v-77h-469v77zM63 196h469v-77h-469v77z" />
    <glyph glyph-name="less.old" horiz-adv-x="518" 
d="M50 233v74l392 202h13v-80l-304 -159l304 -159v-81h-13z" />
    <glyph glyph-name="greater.old" horiz-adv-x="518" 
d="M468 307v-74l-392 -203h-13v81l303 159l-303 159v80h13z" />
    <glyph glyph-name="numbersign.old" horiz-adv-x="717" 
d="M55 246h140l29 177h-140l11 69h141l29 173h65l-29 -173h169l29 173h64l-29 -173h139l-11 -69h-139l-29 -177h139l-12 -69h-139l-29 -177h-65l29 177h-169l-29 -177h-65l29 177h-139zM289 423l-29 -177h169l29 177h-169z" />
    <glyph glyph-name="plusminus.old" horiz-adv-x="596" 
d="M63 402h194v201h82v-201h194v-74h-194v-203h-82v203h-194v74zM63 74h470v-74h-470v74z" />
    <glyph glyph-name="notequal.old" horiz-adv-x="595" 
d="M63 419h280l66 122h65v-13l-58 -109h116v-76h-157l-79 -149h236v-76h-277l-64 -121h-66v12l58 109h-120v76h160l80 149h-240v76z" />
    <glyph glyph-name="approxequal.old" horiz-adv-x="624" 
d="M198 141q-61 0 -107 -61h-10l-34 56q24 38 64 60.5t86 22.5q52 0 124 -32t110 -32q60 0 106 63h10l35 -60q-52 -83 -144 -83q-47 0 -126.5 33t-113.5 33zM194 383q-32 0 -56 -14t-50 -47h-10l-34 55q24 37 64 59.5t86 22.5q52 0 124 -31.5t110 -31.5q60 0 106 63h10
l35 -59q-52 -83 -145 -83q-46 0 -125.5 33t-114.5 33z" />
    <glyph glyph-name="lessequal.old" horiz-adv-x="534" 
d="M63 315v66l390 201h13v-76l-303 -158l303 -156v-79h-13zM63 74h403v-74h-403v74z" />
    <glyph glyph-name="greaterequal.old" horiz-adv-x="534" 
d="M471 381v-66l-390 -202h-13v79l303 156l-303 158v76h13zM68 74h403v-74h-403v74z" />
    <glyph glyph-name="sterling.tab" horiz-adv-x="600" 
d="M201 484q0 -43 6 -91h207l-4 -74h-195q5 -47 5 -79q0 -59 -12 -93t-40 -67h370l-6 -80h-455l-18 64q36 41 49.5 79.5t13.5 103.5q0 31 -9 117.5t-9 121.5q0 101 66 166.5t185 65.5q124 0 196 -69l-43 -59h-10q-56 53 -138 53q-81 0 -120 -42.5t-39 -116.5z" />
    <glyph glyph-name="yen.tab" horiz-adv-x="600" 
d="M58 212h191v88h-191v61h153l-187 335v10h101l179 -333h5l178 333h88v-10l-188 -335h156v-61h-193v-88h193v-61h-193v-151h-101v151h-191v61z" />
    <glyph glyph-name="florin.tab" horiz-adv-x="600" 
d="M96 410h148l23 147q13 79 62 120t116 41q62 0 100 -23l-23 -64h-7q-24 16 -63 16q-72 0 -87 -100l-21 -137h149v-71h-160l-56 -363q-26 -160 -178 -160q-60 0 -97 22l21 64h8q21 -16 58 -16q43 0 62 22.5t27 74.5l55 356h-137v71z" />
    <glyph glyph-name="percent.tab" horiz-adv-x="600" 
d="M367 151q0 -108 72 -108q73 0 73 108t-73 108q-72 0 -72 -108zM579 151q0 -69 -37.5 -116t-102.5 -47t-102 46.5t-37 116.5t37 117.5t102 47.5t102.5 -48t37.5 -117zM21 555q0 69 37.5 116t102.5 47t101.5 -46.5t36.5 -116.5t-36.5 -117.5t-101.5 -47.5t-102.5 47.5
t-37.5 117.5zM233 555q0 108 -72 108q-74 0 -74 -108t74 -108q72 0 72 108zM45 9l447 697h63v-9l-447 -697h-63v9z" />
    <glyph glyph-name="perthousand.tab" horiz-adv-x="917" 
d="M898 151q0 -69 -37.5 -116t-102.5 -47q-64 0 -101 46.5t-37 116.5t37 117.5t101 47.5q65 0 102.5 -47.5t37.5 -117.5zM686 151q0 -108 72 -108q74 0 74 108t-74 108q-72 0 -72 -108zM45 9l447 697h63v-9l-447 -697h-63v9zM233 555q0 108 -72 108q-74 0 -74 -108t74 -108
q72 0 72 108zM21 555q0 69 37.5 116t102.5 47t101.5 -46.5t36.5 -116.5t-36.5 -117.5t-101.5 -47.5t-102.5 47.5t-37.5 117.5zM579 151q0 -69 -37.5 -116t-102.5 -47t-102 46.5t-37 116.5t37 117.5t102 47.5t102.5 -48t37.5 -117zM367 151q0 -108 72 -108q73 0 73 108
t-73 108q-72 0 -72 -108z" />
    <glyph glyph-name="plus.tab" horiz-adv-x="600" 
d="M61 313h197v211h84v-211h197v-77h-197v-212h-84v212h-197v77z" />
    <glyph glyph-name="minus.tab" horiz-adv-x="600" 
d="M61 311h478v-79h-478v79z" />
    <glyph glyph-name="multiply.tab" horiz-adv-x="600" 
d="M63 443l57 54l160 -170l161 169l57 -53l-164 -173l159 -167l-58 -54l-155 164l-160 -170l-57 55l163 172z" />
    <glyph glyph-name="divide.tab" horiz-adv-x="600" 
d="M241 482q0 25 17 42t41 17q25 0 42 -17t17 -42t-17 -41.5t-42 -16.5q-24 0 -41 16.5t-17 41.5zM61 239v78h477v-78h-477zM241 74q0 25 17 41.5t41 16.5q25 0 42 -16.5t17 -41.5t-17 -42t-42 -17q-24 0 -41 17t-17 42z" />
    <glyph glyph-name="equal.tab" horiz-adv-x="600" 
d="M62 422h475v-76h-475v76zM62 194h475v-77h-475v77z" />
    <glyph glyph-name="less.tab" horiz-adv-x="600" 
d="M86 233v74l399 204h13v-83l-308 -158l308 -157v-85h-13z" />
    <glyph glyph-name="greater.tab" horiz-adv-x="600" 
d="M513 307v-74l-399 -205h-13v85l307 157l-307 158v83h13z" />
    <glyph glyph-name="numbersign.tab" horiz-adv-x="600" 
d="M428 706h62l-33 -194h121l-12 -70h-120l-29 -173h122l-13 -70h-120l-33 -199h-64l33 199h-138l-33 -199h-63l33 199h-120l11 70h120l29 173h-121l12 70h120l33 194h64l-33 -194h139zM245 442l-29 -173h138l29 173h-138z" />
    <glyph glyph-name="plusminus.tab" horiz-adv-x="599" 
d="M62 412h195v203h85v-203h194v-78h-194v-204h-85v204h-195v78zM62 79h474v-79h-474v79z" />
    <glyph glyph-name="notequal.tab" horiz-adv-x="594" 
d="M122 5l58 111h-121v76h161l80 152h-241v77h281l65 123h66v-12l-59 -111h123v-77h-163l-80 -152h243v-76h-283l-65 -123h-65v12z" />
    <glyph glyph-name="approxequal.tab" horiz-adv-x="600" 
d="M187 140q-61 0 -107 -60h-10l-34 56q24 38 64 60.5t86 22.5q52 0 124 -32t110 -32q60 0 106 63h10l35 -60q-51 -83 -145 -83q-46 0 -125 32.5t-114 32.5zM183 383q-33 0 -56.5 -14t-50.5 -47h-9l-35 56q24 37 64 59.5t86 22.5q52 0 124 -31.5t110 -31.5q60 0 106 63h10
l35 -60q-52 -83 -144 -83q-47 0 -126 33t-114 33z" />
    <glyph glyph-name="lessequal.tab" horiz-adv-x="600" 
d="M90 336v70l400 200h13v-81l-311 -154l311 -154v-82h-13zM90 92h413v-77h-413v77z" />
    <glyph glyph-name="greaterequal.tab" horiz-adv-x="600" 
d="M510 406v-70l-400 -201h-13v82l310 154l-310 154v81h13zM97 92h413v-77h-413v77z" />
    <glyph glyph-name="zero.sub" horiz-adv-x="433" 
d="M38 105q0 101 47 160t131 59t131.5 -59t47.5 -153q0 -101 -47.5 -161t-130.5 -60q-85 0 -132 59.5t-47 154.5zM311 107q0 76 -24.5 118.5t-70.5 42.5t-70 -42t-24 -117q0 -77 24 -119.5t71 -42.5q46 0 70 42t24 118z" />
    <glyph glyph-name="one.sub" horiz-adv-x="238" 
d="M102 242l-64 -21h-7l-12 55l125 44l37 -5v-417h-79v344z" />
    <glyph glyph-name="two.sub" horiz-adv-x="357" 
d="M33 -45q118 95 157.5 143t39.5 88q0 76 -82 76q-55 0 -86 -31h-8l-25 48q57 46 137 46q69 0 107.5 -32t38.5 -93q0 -54 -34 -101t-150 -135v-5h199l-4 -61h-288z" />
    <glyph glyph-name="three.sub" horiz-adv-x="358" 
d="M23 -70l25 51h8q39 -30 95 -30q41 0 63 18t22 51q0 67 -97 67h-28v53h25q40 0 65 17t25 46q0 62 -76 62q-50 0 -80 -27h-7l-23 47q54 40 134 40q64 0 100 -28t36 -79q0 -39 -25.5 -63.5t-68.5 -33.5v-6q48 -6 76.5 -32.5t28.5 -73.5q0 -55 -40.5 -87t-116.5 -32
q-90 0 -141 40z" />
    <glyph glyph-name="four.sub" horiz-adv-x="393" 
d="M221 -1h-191l-5 51l180 267h90v-265h72l-4 -53h-68v-101h-74v101zM221 52v187h-8l-125 -187h133z" />
    <glyph glyph-name="five.sub" horiz-adv-x="361" 
d="M25 -70l25 49h8q41 -31 92 -31q92 0 92 81q0 82 -96 82q-44 0 -81 -16l-10 9l13 213h235l-2 -57h-172l-8 -109q26 8 62 8q141 0 141 -130q0 -62 -40 -100t-122 -38q-84 0 -137 39z" />
    <glyph glyph-name="six.sub" horiz-adv-x="399" 
d="M37 80q0 114 53 179.5t150 65.5q60 0 105 -28l-25 -49h-8q-28 19 -67 19q-105 0 -123 -135l5 1q39 29 99 29q68 0 103.5 -33t35.5 -96q0 -65 -41 -103.5t-114 -38.5q-82 0 -127.5 50.5t-45.5 138.5zM204 113q-52 0 -86 -27v-19q0 -122 89 -122q38 0 58.5 22.5t20.5 62.5
q0 83 -82 83z" />
    <glyph glyph-name="seven.sub" horiz-adv-x="350" 
d="M55 -94l187 351h-214l2 60h292l3 -59l-185 -360h-85v8z" />
    <glyph glyph-name="eight.sub" horiz-adv-x="398" 
d="M36 -2q0 39 26 65t69 37v4q-81 39 -81 111q-1 51 40 80.5t110 29.5q68 0 107 -24.5t39 -73.5q0 -34 -21.5 -59.5t-58.5 -37.5v-6q95 -43 95 -115q0 -57 -43 -87.5t-125 -30.5q-73 0 -115 27.5t-42 79.5zM287 -1q0 29 -24 47t-80 38q-32 -11 -54 -33t-22 -50
q0 -29 23.5 -44t63.5 -15q93 0 93 57zM121 222q0 -27 22 -44.5t65 -32.5q30 9 49.5 29t19.5 45q0 57 -79 57q-35 0 -56 -14t-21 -40z" />
    <glyph glyph-name="nine.sub" horiz-adv-x="399" 
d="M48 -81l25 49h6q28 -20 75 -20q55 0 84 32.5t38 98.5h-6q-31 -29 -87 -29q-69 0 -109 34.5t-40 98.5q0 61 44.5 101.5t114.5 40.5q79 0 124.5 -52.5t45.5 -139.5q0 -118 -51 -180t-151 -62q-74 0 -113 28zM198 100q48 0 81 27q1 8 1 25q0 56 -22 87.5t-63 31.5
q-37 0 -59.5 -24t-22.5 -64q0 -38 21 -60.5t64 -22.5z" />
    <glyph glyph-name="plus.sub" horiz-adv-x="443" 
d="M44 138h144v156h68v-156h143v-60h-143v-156h-68v156h-144v60z" />
    <glyph glyph-name="minus.sub" horiz-adv-x="425" 
d="M44 134h338v-62h-338v62z" />
    <glyph glyph-name="zero.sup" horiz-adv-x="433" 
d="M38 533q0 101 47 160t131 59t131.5 -59t47.5 -153q0 -101 -47.5 -161t-130.5 -60q-85 0 -132 59.5t-47 154.5zM311 535q0 76 -24.5 118.5t-70.5 42.5t-70 -42t-24 -117q0 -77 24 -119.5t71 -42.5q46 0 70 42t24 118z" />
    <glyph glyph-name="one.sup" horiz-adv-x="238" 
d="M102 670l-64 -21h-7l-12 55l125 44l37 -5v-417h-79v344z" />
    <glyph glyph-name="two.sup" horiz-adv-x="357" 
d="M33 383q118 95 157.5 143t39.5 88q0 76 -82 76q-55 0 -86 -31h-8l-25 48q57 46 137 46q69 0 107.5 -32t38.5 -93q0 -54 -34 -101t-150 -135v-5h199l-4 -61h-288z" />
    <glyph glyph-name="three.sup" horiz-adv-x="358" 
d="M23 358l25 51h8q39 -30 95 -30q41 0 63 18t22 51q0 67 -97 67h-28v53h25q40 0 65 17t25 46q0 62 -76 62q-50 0 -80 -27h-7l-23 47q54 40 134 40q64 0 100 -28t36 -79q0 -39 -25.5 -63.5t-68.5 -33.5v-6q48 -6 76.5 -32.5t28.5 -73.5q0 -55 -40.5 -87t-116.5 -32
q-90 0 -141 40z" />
    <glyph glyph-name="four.sup" horiz-adv-x="393" 
d="M221 427h-191l-5 51l180 267h90v-265h72l-4 -53h-68v-101h-74v101zM221 480v187h-8l-125 -187h133z" />
    <glyph glyph-name="five.sup" horiz-adv-x="361" 
d="M25 358l25 49h8q41 -31 92 -31q92 0 92 81q0 82 -96 82q-44 0 -81 -16l-10 9l13 213h235l-2 -57h-172l-8 -109q26 8 62 8q141 0 141 -130q0 -62 -40 -100t-122 -38q-84 0 -137 39z" />
    <glyph glyph-name="six.sup" horiz-adv-x="399" 
d="M37 508q0 114 53 179.5t150 65.5q60 0 105 -28l-25 -49h-8q-28 19 -67 19q-105 0 -123 -135l5 1q39 29 99 29q68 0 103.5 -33t35.5 -96q0 -65 -41 -103.5t-114 -38.5q-82 0 -127.5 50.5t-45.5 138.5zM204 541q-52 0 -86 -27v-19q0 -122 89 -122q38 0 58.5 22.5t20.5 62.5
q0 83 -82 83z" />
    <glyph glyph-name="seven.sup" horiz-adv-x="350" 
d="M55 334l187 351h-214l2 60h292l3 -59l-185 -360h-85v8z" />
    <glyph glyph-name="eight.sup" horiz-adv-x="398" 
d="M36 426q0 39 26 65t69 37v4q-81 39 -81 111q-1 51 40 80.5t110 29.5q68 0 107 -24.5t39 -73.5q0 -34 -21.5 -59.5t-58.5 -37.5v-6q95 -43 95 -115q0 -57 -43 -87.5t-125 -30.5q-73 0 -115 27.5t-42 79.5zM287 427q0 29 -24 47t-80 38q-32 -11 -54 -33t-22 -50
q0 -29 23.5 -44t63.5 -15q93 0 93 57zM121 650q0 -27 22 -44.5t65 -32.5q30 9 49.5 29t19.5 45q0 57 -79 57q-35 0 -56 -14t-21 -40z" />
    <glyph glyph-name="nine.sup" horiz-adv-x="399" 
d="M48 347l25 49h6q28 -20 75 -20q55 0 84 32.5t38 98.5h-6q-31 -29 -87 -29q-69 0 -109 34.5t-40 98.5q0 61 44.5 101.5t114.5 40.5q79 0 124.5 -52.5t45.5 -139.5q0 -118 -51 -180t-151 -62q-74 0 -113 28zM198 528q48 0 81 27q1 8 1 25q0 56 -22 87.5t-63 31.5
q-37 0 -59.5 -24t-22.5 -64q0 -38 21 -60.5t64 -22.5z" />
    <glyph glyph-name="plus.sup" horiz-adv-x="443" 
d="M44 564h144v155h68v-155h143v-61h-143v-156h-68v156h-144v61z" />
    <glyph glyph-name="minus.sup" horiz-adv-x="425" 
d="M44 564h338v-62h-338v62z" />
    <glyph glyph-name="zero.num" horiz-adv-x="433" 
d="M38 494q0 101 47 160t131 59t131.5 -59t47.5 -153q0 -101 -47.5 -161t-130.5 -60q-85 0 -132 59.5t-47 154.5zM311 496q0 76 -24.5 118.5t-70.5 42.5t-70 -42t-24 -117q0 -77 24 -119.5t71 -42.5q46 0 70 42t24 118z" />
    <glyph glyph-name="one.num" horiz-adv-x="238" 
d="M102 631l-64 -21h-7l-12 55l125 44l37 -5v-417h-79v344z" />
    <glyph glyph-name="two.num" horiz-adv-x="357" 
d="M33 344q118 95 157.5 143t39.5 88q0 76 -82 76q-55 0 -86 -31h-8l-25 48q57 46 137 46q69 0 107.5 -32t38.5 -93q0 -54 -34 -101t-150 -135v-5h199l-4 -61h-288z" />
    <glyph glyph-name="three.num" horiz-adv-x="358" 
d="M23 319l25 51h8q39 -30 95 -30q41 0 63 18t22 51q0 67 -97 67h-28v53h25q40 0 65 17t25 46q0 62 -76 62q-50 0 -80 -27h-7l-23 47q54 40 134 40q64 0 100 -28t36 -79q0 -39 -25.5 -63.5t-68.5 -33.5v-6q48 -6 76.5 -32.5t28.5 -73.5q0 -55 -40.5 -87t-116.5 -32
q-90 0 -141 40z" />
    <glyph glyph-name="four.num" horiz-adv-x="393" 
d="M221 388h-191l-5 51l180 267h90v-265h72l-4 -53h-68v-101h-74v101zM221 441v187h-8l-125 -187h133z" />
    <glyph glyph-name="five.num" horiz-adv-x="361" 
d="M25 319l25 49h8q41 -31 92 -31q92 0 92 81q0 82 -96 82q-44 0 -81 -16l-10 9l13 213h235l-2 -57h-172l-8 -109q26 8 62 8q141 0 141 -130q0 -62 -40 -100t-122 -38q-84 0 -137 39z" />
    <glyph glyph-name="six.num" horiz-adv-x="399" 
d="M37 469q0 114 53 179.5t150 65.5q60 0 105 -28l-25 -49h-8q-28 19 -67 19q-105 0 -123 -135l5 1q39 29 99 29q68 0 103.5 -33t35.5 -96q0 -65 -41 -103.5t-114 -38.5q-82 0 -127.5 50.5t-45.5 138.5zM204 502q-52 0 -86 -27v-19q0 -122 89 -122q38 0 58.5 22.5t20.5 62.5
q0 83 -82 83z" />
    <glyph glyph-name="seven.num" horiz-adv-x="350" 
d="M55 295l187 351h-214l2 60h292l3 -59l-185 -360h-85v8z" />
    <glyph glyph-name="eight.num" horiz-adv-x="398" 
d="M36 387q0 39 26 65t69 37v4q-81 39 -81 111q-1 51 40 80.5t110 29.5q68 0 107 -24.5t39 -73.5q0 -34 -21.5 -59.5t-58.5 -37.5v-6q95 -43 95 -115q0 -57 -43 -87.5t-125 -30.5q-73 0 -115 27.5t-42 79.5zM287 388q0 29 -24 47t-80 38q-32 -11 -54 -33t-22 -50
q0 -29 23.5 -44t63.5 -15q93 0 93 57zM121 611q0 -27 22 -44.5t65 -32.5q30 9 49.5 29t19.5 45q0 57 -79 57q-35 0 -56 -14t-21 -40z" />
    <glyph glyph-name="nine.num" horiz-adv-x="399" 
d="M48 308l25 49h6q28 -20 75 -20q55 0 84 32.5t38 98.5h-6q-31 -29 -87 -29q-69 0 -109 34.5t-40 98.5q0 61 44.5 101.5t114.5 40.5q79 0 124.5 -52.5t45.5 -139.5q0 -118 -51 -180t-151 -62q-74 0 -113 28zM198 489q48 0 81 27q1 8 1 25q0 56 -22 87.5t-63 31.5
q-37 0 -59.5 -24t-22.5 -64q0 -38 21 -60.5t64 -22.5z" />
    <glyph glyph-name="zero.den" horiz-adv-x="433" 
d="M38 207q0 101 47 160t131 59t131.5 -59t47.5 -153q0 -101 -47.5 -161t-130.5 -60q-85 0 -132 59.5t-47 154.5zM311 209q0 76 -24.5 118.5t-70.5 42.5t-70 -42t-24 -117q0 -77 24 -119.5t71 -42.5q46 0 70 42t24 118z" />
    <glyph glyph-name="one.den" horiz-adv-x="238" 
d="M102 344l-64 -21h-7l-12 55l125 44l37 -5v-417h-79v344z" />
    <glyph glyph-name="two.den" horiz-adv-x="357" 
d="M33 57q118 95 157.5 143t39.5 88q0 76 -82 76q-55 0 -86 -31h-8l-25 48q57 46 137 46q69 0 107.5 -32t38.5 -93q0 -54 -34 -101t-150 -135v-5h199l-4 -61h-288z" />
    <glyph glyph-name="three.den" horiz-adv-x="358" 
d="M23 32l25 51h8q39 -30 95 -30q41 0 63 18t22 51q0 67 -97 67h-28v53h25q40 0 65 17t25 46q0 62 -76 62q-50 0 -80 -27h-7l-23 47q54 40 134 40q64 0 100 -28t36 -79q0 -39 -25.5 -63.5t-68.5 -33.5v-6q48 -6 76.5 -32.5t28.5 -73.5q0 -55 -40.5 -87t-116.5 -32
q-90 0 -141 40z" />
    <glyph glyph-name="four.den" horiz-adv-x="393" 
d="M221 101h-191l-5 51l180 267h90v-265h72l-4 -53h-68v-101h-74v101zM221 154v187h-8l-125 -187h133z" />
    <glyph glyph-name="five.den" horiz-adv-x="361" 
d="M25 32l25 49h8q41 -31 92 -31q92 0 92 81q0 82 -96 82q-44 0 -81 -16l-10 9l13 213h235l-2 -57h-172l-8 -109q26 8 62 8q141 0 141 -130q0 -62 -40 -100t-122 -38q-84 0 -137 39z" />
    <glyph glyph-name="six.den" horiz-adv-x="399" 
d="M37 182q0 114 53 179.5t150 65.5q60 0 105 -28l-25 -49h-8q-28 19 -67 19q-105 0 -123 -135l5 1q39 29 99 29q68 0 103.5 -33t35.5 -96q0 -65 -41 -103.5t-114 -38.5q-82 0 -127.5 50.5t-45.5 138.5zM204 215q-52 0 -86 -27v-19q0 -122 89 -122q38 0 58.5 22.5t20.5 62.5
q0 83 -82 83z" />
    <glyph glyph-name="seven.den" horiz-adv-x="350" 
d="M55 8l187 351h-214l2 60h292l3 -59l-185 -360h-85v8z" />
    <glyph glyph-name="eight.den" horiz-adv-x="398" 
d="M36 100q0 39 26 65t69 37v4q-81 39 -81 111q-1 51 40 80.5t110 29.5q68 0 107 -24.5t39 -73.5q0 -34 -21.5 -59.5t-58.5 -37.5v-6q95 -43 95 -115q0 -57 -43 -87.5t-125 -30.5q-73 0 -115 27.5t-42 79.5zM287 101q0 29 -24 47t-80 38q-32 -11 -54 -33t-22 -50
q0 -29 23.5 -44t63.5 -15q93 0 93 57zM121 324q0 -27 22 -44.5t65 -32.5q30 9 49.5 29t19.5 45q0 57 -79 57q-35 0 -56 -14t-21 -40z" />
    <glyph glyph-name="nine.den" horiz-adv-x="399" 
d="M48 21l25 49h6q28 -20 75 -20q55 0 84 32.5t38 98.5h-6q-31 -29 -87 -29q-69 0 -109 34.5t-40 98.5q0 61 44.5 101.5t114.5 40.5q79 0 124.5 -52.5t45.5 -139.5q0 -118 -51 -180t-151 -62q-74 0 -113 28zM198 202q48 0 81 27q1 8 1 25q0 56 -22 87.5t-63 31.5
q-37 0 -59.5 -24t-22.5 -64q0 -38 21 -60.5t64 -22.5z" />
    <glyph glyph-name="halfcirczeroleft" 
d="M412 343q0 159 -53 159q-51 0 -51 -156q0 -160 53 -160q51 0 51 157zM243 341q0 102 30.5 156.5t85.5 54.5q56 0 87 -54.5t31 -149.5q0 -102 -30.5 -157t-85.5 -55q-56 0 -87 55t-31 150zM120 353q0 155 109.5 260t270.5 105v-28q-147 0 -247 -97t-100 -240t100 -240
t247 -97v-28q-161 0 -270.5 105t-109.5 260z" />
    <glyph glyph-name="halfcirconeleft" 
d="M276 193h70v286l-62 -27h-4l-9 49l31.5 13l49.5 21t28 13l30 -4v-351h70v-50h-204v50zM120 353q0 155 109.5 260t270.5 105v-28q-147 0 -247 -97t-100 -240t100 -240t247 -97v-28q-161 0 -270.5 105t-109.5 260z" />
    <glyph glyph-name="halfcirctwoleft" 
d="M348 498q-33 0 -61 -28h-5l-22 42q45 40 100 40q112 0 112 -119q0 -70 -51 -142q-16 -22 -78 -88v-5h139l-2 -55h-212l-2 52q17 22 49 57.5t45 52.5q46 63 46 119q0 74 -58 74zM120 353q0 155 109.5 260t270.5 105v-28q-147 0 -247 -97t-100 -240t100 -240t247 -97v-28
q-161 0 -270.5 105t-109.5 260z" />
    <glyph glyph-name="halfcircthreeleft" 
d="M411 255q0 37 -14.5 54t-49.5 17h-25l-2 48h24q27 0 43 17.5t16 47.5q0 61 -47 61q-35 0 -62 -27h-4l-21 40q41 39 101 39q101 0 101 -100q0 -37 -19 -62t-50 -33v-4q78 -16 78 -103q0 -52 -31 -83t-84 -31q-65 0 -106 38l22 45h5q28 -31 66 -31q59 0 59 67zM120 353
q0 155 109.5 260t270.5 105v-28q-147 0 -247 -97t-100 -240t100 -240t247 -97v-28q-161 0 -270.5 105t-109.5 260z" />
    <glyph glyph-name="halfcircfourleft" 
d="M372 238h-132l-4 44l127 263h73v-261h48l-3 -46h-44v-95h-65v95zM372 284v188h-2l-83 -188h85zM120 353q0 155 109.5 260t270.5 105v-28q-147 0 -247 -97t-100 -240t100 -240t247 -97v-28q-161 0 -270.5 105t-109.5 260z" />
    <glyph glyph-name="halfcircfiveleft" 
d="M257 172l20 45h5q28 -30 68 -30q64 0 64 79q0 82 -66 82q-32 0 -56 -17l-13 11l11 203h175l-2 -51h-122l-5 -108q16 6 41 6q104 0 104 -125q0 -58 -31.5 -94.5t-92.5 -36.5q-59 0 -100 36zM120 353q0 155 109.5 260t270.5 105v-28q-147 0 -247 -97t-100 -240t100 -240
t247 -97v-28q-161 0 -270.5 105t-109.5 260z" />
    <glyph glyph-name="halfcircsixleft" 
d="M251 315q0 112 37 174.5t107 62.5q51 0 77 -24l-20 -42h-5q-23 17 -47 17q-69 0 -80 -134h3q26 29 66 29q92 0 92 -128q0 -61 -28.5 -97.5t-81.5 -36.5q-57 0 -88.5 48t-31.5 131zM120 353q0 155 109.5 260t270.5 105v-28q-147 0 -247 -97t-100 -240t100 -240t247 -97
v-28q-161 0 -270.5 105t-109.5 260zM368 352q-30 0 -50 -25v-25q0 -118 53 -118q47 0 47 86q0 82 -50 82z" />
    <glyph glyph-name="halfcircsevenleft" 
d="M344 143h-68v6l135 341h-155l2 55h216l3 -53zM120 353q0 155 109.5 260t270.5 105v-28q-147 0 -247 -97t-100 -240t100 -240t247 -97v-28q-161 0 -270.5 105t-109.5 260z" />
    <glyph glyph-name="halfcirceightleft" 
d="M249 242q0 33 17.5 59t48.5 37v4q-56 35 -57 104q0 49 29.5 77.5t79.5 28.5t76.5 -25t26.5 -71q0 -33 -15 -59t-41 -36v-5q67 -38 67 -109q0 -52 -29 -81.5t-87 -29.5q-55 0 -85.5 28t-30.5 78zM500 718v-28q-147 0 -247 -97t-100 -240t100 -240t247 -97v-28
q-161 0 -270.5 105t-109.5 260t109.5 260t270.5 105zM420 241q0 28 -16 45.5t-54 36.5q-44 -23 -44 -77q0 -63 58 -63q56 0 56 58zM317 451q0 -27 15 -44t45 -33q38 23 38 74q0 58 -50 58q-23 0 -35.5 -15t-12.5 -40z" />
    <glyph glyph-name="halfcircnineleft" 
d="M261 163l19 44h5q24 -20 54 -20q37 0 54 33t22 98h-4q-23 -29 -61 -29q-47 0 -72 33.5t-25 89.5q0 61 29.5 100.5t82.5 39.5q57 0 88 -49.5t31 -137.5q0 -107 -34 -168t-101 -61q-57 0 -88 27zM120 353q0 155 109.5 260t270.5 105v-28q-147 0 -247 -97t-100 -240
t100 -240t247 -97v-28q-161 0 -270.5 105t-109.5 260zM369 334q25 0 48 26v22q0 123 -52 123q-24 0 -36.5 -24.5t-12.5 -63.5q0 -83 53 -83z" />
    <glyph glyph-name="neghalfcirczeroleft" 
d="M412 343q0 -157 -51 -157q-53 0 -53 160q0 156 51 156q53 0 53 -159zM243 341q0 -95 31 -150t87 -55q55 0 85.5 55t30.5 157q0 95 -31 149.5t-87 54.5q-55 0 -85.5 -54.5t-30.5 -156.5zM120 353q0 155 109.5 260t270.5 105v-730q-161 0 -270.5 105t-109.5 260z" />
    <glyph glyph-name="neghalfcirconeleft" 
d="M120 353q0 155 109.5 260t270.5 105v-730q-161 0 -270.5 105t-109.5 260zM276 143h204v50h-70v351l-30 4q-5 -3 -28 -13l-49.5 -21l-31.5 -13l9 -49h4l62 27v-286h-70v-50z" />
    <glyph glyph-name="neghalfcirctwoleft" 
d="M120 353q0 155 109.5 260t270.5 105v-730q-161 0 -270.5 105t-109.5 260zM348 498q58 0 58 -74q0 -56 -46 -119q-13 -17 -45 -52.5t-49 -57.5l2 -52h212l2 55h-139v5q62 66 78 88q51 72 51 142q0 119 -112 119q-55 0 -100 -40l22 -42h5q28 28 61 28z" />
    <glyph glyph-name="neghalfcircthreeleft" 
d="M120 353q0 155 109.5 260t270.5 105v-730q-161 0 -270.5 105t-109.5 260zM259 174q41 -38 106 -38q53 0 84 31t31 83q0 87 -78 103v4q31 8 50 33t19 62q0 100 -101 100q-60 0 -101 -39l21 -40h4q27 27 62 27q47 0 47 -61q0 -30 -16 -47.5t-43 -17.5h-24l2 -48h25
q35 0 49.5 -17t14.5 -54q0 -67 -59 -67q-38 0 -66 31h-5z" />
    <glyph glyph-name="neghalfcircfourleft" 
d="M120 353q0 155 109.5 260t270.5 105v-730q-161 0 -270.5 105t-109.5 260zM372 238v-95h65v95h44l3 46h-48v261h-73l-127 -263l4 -44h132zM372 284h-85l83 188h2v-188z" />
    <glyph glyph-name="neghalfcircfiveleft" 
d="M120 353q0 155 109.5 260t270.5 105v-730q-161 0 -270.5 105t-109.5 260zM257 172q41 -36 100 -36q61 0 92.5 36.5t31.5 94.5q0 125 -104 125q-25 0 -41 -6l5 108h122l2 51h-175l-11 -203l13 -11q24 17 56 17q66 0 66 -82q0 -79 -64 -79q-40 0 -68 30h-5z" />
    <glyph glyph-name="neghalfcircsixleft" 
d="M120 353q0 155 109.5 260t270.5 105v-730q-161 0 -270.5 105t-109.5 260zM481 270q0 128 -92 128q-40 0 -66 -29h-3q11 134 80 134q24 0 47 -17h5l20 42q-26 24 -77 24q-70 0 -107 -62.5t-37 -174.5q0 -83 31.5 -131t88.5 -48q53 0 81.5 36.5t28.5 97.5zM371 184
q-53 0 -53 118v25q20 25 50 25q50 0 50 -82q0 -86 -47 -86z" />
    <glyph glyph-name="neghalfcircsevenleft" 
d="M120 353q0 155 109.5 260t270.5 105v-730q-161 0 -270.5 105t-109.5 260zM344 143l133 349l-3 53h-216l-2 -55h155l-135 -341v-6h68z" />
    <glyph glyph-name="neghalfcirceightleft" 
d="M120 353q0 155 109.5 260t270.5 105v-730q-161 0 -270.5 105t-109.5 260zM365 136q58 0 87 29.5t29 81.5q0 72 -67 109v5q26 10 41 36t15 59q0 46 -26.5 71t-76.5 25t-79.5 -28.5t-29.5 -77.5q1 -69 57 -104v-4q-31 -11 -48.5 -37t-17.5 -59q0 -50 30.5 -78t85.5 -28z
M317 451q0 25 12.5 40t35.5 15q50 0 50 -58q0 -52 -38 -73q-30 15 -45 32t-15 44zM364 183q-58 0 -58 63q0 54 45 77q37 -18 53 -36t16 -46q0 -58 -56 -58z" />
    <glyph glyph-name="neghalfcircnineleft" 
d="M120 353q0 155 109.5 260t270.5 105v-730q-161 0 -270.5 105t-109.5 260zM349 136q67 0 101 61t34 168q0 88 -31 137.5t-88 49.5q-53 0 -82.5 -39.5t-29.5 -100.5q0 -56 25 -89.5t72 -33.5q38 0 61 29h4q-4 -65 -21.5 -98t-54.5 -33q-30 0 -54 20h-5l-19 -44
q31 -27 88 -27zM369 334q-53 0 -53 83q0 39 12.5 63.5t36.5 24.5q52 0 52 -123v-22q-23 -26 -48 -26z" />
    <glyph glyph-name="halfcirczeroright" 
d="M197 343q0 159 -53 159q-51 0 -51 -156q0 -160 53 -160q51 0 51 157zM28 341q0 102 30.5 156.5t85.5 54.5q56 0 87 -54.5t31 -149.5q0 -102 -30.5 -157t-85.5 -55q-56 0 -87 55t-31 150zM0 16q147 0 247 97t100 240t-100 240t-247 97v28q161 0 270.5 -105t109.5 -260
t-109.5 -260t-270.5 -105v28z" />
    <glyph glyph-name="halfcirconeright" 
d="M106 479l-62 -27h-4l-9 49l31.5 13l49.5 21t28 13l30 -4v-351h70v-50h-204v50h70v286zM0 16q147 0 247 97t100 240t-100 240t-247 97v28q161 0 270.5 -105t109.5 -260t-109.5 -260t-270.5 -105v28z" />
    <glyph glyph-name="halfcirctworight" 
d="M103 498q-33 0 -61 -28h-5l-22 42q45 40 100 40q112 0 112 -119q0 -70 -51 -142q-16 -22 -78 -88v-5h139l-2 -55h-212l-2 52q17 22 49 57.5t45 52.5q46 63 46 119q0 74 -58 74zM0 16q147 0 247 97t100 240t-100 240t-247 97v28q161 0 270.5 -105t109.5 -260t-109.5 -260
t-270.5 -105v28z" />
    <glyph glyph-name="halfcircthreeright" 
d="M167 255q0 37 -14.5 54t-49.5 17h-25l-2 48h24q27 0 43 17.5t16 47.5q0 61 -47 61q-35 0 -62 -27h-4l-21 40q41 39 101 39q101 0 101 -100q0 -37 -19 -62t-50 -33v-4q78 -16 78 -103q0 -52 -31 -83t-84 -31q-65 0 -106 38l22 45h5q28 -31 66 -31q59 0 59 67zM0 16
q147 0 247 97t100 240t-100 240t-247 97v28q161 0 270.5 -105t109.5 -260t-109.5 -260t-270.5 -105v28z" />
    <glyph glyph-name="halfcircfourright" 
d="M146 238h-132l-4 44l127 263h73v-261h48l-3 -46h-44v-95h-65v95zM146 284v188h-2l-83 -188h85zM0 16q147 0 247 97t100 240t-100 240t-247 97v28q161 0 270.5 -105t109.5 -260t-109.5 -260t-270.5 -105v28z" />
    <glyph glyph-name="halfcircfiveright" 
d="M15 172l20 45h5q28 -30 68 -30q64 0 64 79q0 82 -66 82q-32 0 -56 -17l-13 11l11 203h175l-2 -51h-122l-5 -108q17 6 41 6q104 0 104 -125q0 -58 -31.5 -94.5t-92.5 -36.5q-59 0 -100 36zM0 16q147 0 247 97t100 240t-100 240t-247 97v28q161 0 270.5 -105t109.5 -260
t-109.5 -260t-270.5 -105v28z" />
    <glyph glyph-name="halfcircsixright" 
d="M21 315q0 112 37 174.5t107 62.5q51 0 77 -24l-20 -42h-5q-23 17 -47 17q-69 0 -80 -134h3q26 29 66 29q92 0 92 -128q0 -61 -28.5 -97.5t-81.5 -36.5q-57 0 -88.5 48t-31.5 131zM0 16q147 0 247 97t100 240t-100 240t-247 97v28q161 0 270.5 -105t109.5 -260
t-109.5 -260t-270.5 -105v28zM138 352q-30 0 -50 -25v-25q0 -118 53 -118q47 0 47 86q0 82 -50 82z" />
    <glyph glyph-name="halfcircsevenright" 
d="M114 143h-68v6l135 341h-155l2 55h216l3 -53zM0 16q147 0 247 97t100 240t-100 240t-247 97v28q161 0 270.5 -105t109.5 -260t-109.5 -260t-270.5 -105v28z" />
    </font>
</defs>
</svg>
